SplineFontDB: 3.2
FontName: KoreeneSans-SemiBoldItalic
FullName: Koreene Sans SemiBold Italic
FamilyName: Koreene Sans SemiBold
Weight: Demi
Copyright: (C) Copyright HanYang I&C Co.,Ltd. All rights reserved.
Version: 2.52
ItalicAngle: -9.4
UnderlinePosition: -244
UnderlineWidth: 90
Ascent: 1638
Descent: 410
InvalidEm: 0
sfntRevision: 0x00020147
LayerCount: 2
Layer: 0 1 "Back" 1
Layer: 1 1 "Fore" 0
XUID: [1021 531 -1996577725 6104527]
StyleMap: 0x0001
FSType: 0
OS2Version: 4
OS2_WeightWidthSlopeOnly: 0
OS2_UseTypoMetrics: 1
CreationTime: 1068260456
ModificationTime: 1706986051
PfmFamily: 81
TTFWeight: 600
TTFWidth: 5
LineGap: 512
VLineGap: 0
Panose: 0 0 0 0 0 0 0 0 0 0
OS2TypoAscent: 1940
OS2TypoAOffset: 0
OS2TypoDescent: -470
OS2TypoDOffset: 0
OS2TypoLinegap: 512
OS2WinAscent: 2196
OS2WinAOffset: 0
OS2WinDescent: 726
OS2WinDOffset: 0
HheadAscent: 1940
HheadAOffset: 0
HheadDescent: -470
HheadDOffset: 0
OS2SubXSize: 410
OS2SubYSize: 410
OS2SubXOff: 0
OS2SubYOff: 574
OS2SupXSize: 410
OS2SupYSize: 410
OS2SupXOff: 0
OS2SupYOff: 1926
OS2StrikeYSize: 204
OS2StrikeYPos: 1024
OS2CapHeight: 1470
OS2XHeight: 1066
OS2Vendor: 'HY  '
OS2CodePages: 2000019f.00000000
OS2UnicodeRanges: e10002ff.4000001b.00000000.00000000
Lookup: 1 0 0 "'aalt' Access All Alternates lookup 0" { "'aalt' Access All Alternates lookup 0 subtable"  } ['aalt' ('DFLT' <'dflt' > 'cyrl' <'dflt' > 'grek' <'dflt' > 'hang' <'dflt' > 'jamo' <'dflt' > 'latn' <'dflt' > ) ]
Lookup: 3 0 0 "'aalt' Access All Alternates lookup 1" { "'aalt' Access All Alternates lookup 1 subtable"  } ['aalt' ('DFLT' <'dflt' > 'cyrl' <'dflt' > 'grek' <'dflt' > 'hang' <'dflt' > 'jamo' <'dflt' > 'latn' <'dflt' > ) ]
Lookup: 1 0 0 "'locl' Localized Forms in Latin lookup 2" { "'locl' Localized Forms in Latin lookup 2 subtable"  } ['locl' ('latn' <'MOL ' > ) ]
Lookup: 1 0 0 "'locl' Localized Forms in Latin lookup 3" { "'locl' Localized Forms in Latin lookup 3 subtable"  } ['locl' ('latn' <'ROM ' > ) ]

StartChar: exclam
Encoding: 33 33 4
Width: 584
GlyphClass: 2
Flags: W
LayerCount: 2
Fore
SplineSet
52 -14 m 1,0,-1
 96 252 l 1,1,-1
 384 252 l 1,2,-1
 340 -14 l 1,3,-1
 52 -14 l 1,0,-1
364 414 m 1,4,-1
 170 414 l 1,5,-1
 328 1478 l 1,6,-1
 558 1478 l 1,7,-1
 364 414 l 1,4,-1
EndSplineSet
EndChar

StartChar: quotedbl
Encoding: 34 34 5
Width: 1030
GlyphClass: 2
Flags: W
LayerCount: 2
Fore
SplineSet
624 1046 m 1,0,-1
 894 1638 l 1,1,-1
 1142 1638 l 1,2,-1
 792 1046 l 1,3,-1
 624 1046 l 1,0,-1
200 1046 m 1,4,-1
 468 1638 l 1,5,-1
 716 1638 l 1,6,-1
 366 1046 l 1,7,-1
 200 1046 l 1,4,-1
EndSplineSet
EndChar

StartChar: numbersign
Encoding: 35 35 6
Width: 1408
GlyphClass: 2
Flags: W
LayerCount: 2
Fore
SplineSet
58 378 m 1,0,-1
 84 542 l 1,1,-1
 328 542 l 1,2,-1
 432 890 l 1,3,-1
 204 890 l 1,4,-1
 230 1050 l 1,5,-1
 478 1050 l 1,6,-1
 590 1426 l 1,7,-1
 776 1426 l 1,8,-1
 666 1050 l 1,9,-1
 990 1050 l 1,10,-1
 1104 1426 l 1,11,-1
 1290 1426 l 1,12,-1
 1178 1050 l 1,13,-1
 1400 1050 l 1,14,-1
 1374 890 l 1,15,-1
 1130 890 l 1,16,-1
 1032 542 l 1,17,-1
 1256 542 l 1,18,-1
 1228 378 l 1,19,-1
 980 378 l 1,20,-1
 872 4 l 1,21,-1
 680 4 l 1,22,-1
 792 378 l 1,23,-1
 470 378 l 1,24,-1
 358 4 l 1,25,-1
 168 4 l 1,26,-1
 282 378 l 1,27,-1
 58 378 l 1,0,-1
518 542 m 1,28,-1
 840 542 l 1,29,-1
 944 890 l 1,30,-1
 616 890 l 1,31,-1
 518 542 l 1,28,-1
EndSplineSet
EndChar

StartChar: dollar
Encoding: 36 36 7
Width: 1130
GlyphClass: 2
Flags: W
LayerCount: 2
Fore
SplineSet
46 296 m 1,0,-1
 216 370 l 1,1,2
 256 280 256 280 334 229 c 128,-1,3
 412 178 412 178 510 178 c 0,4,5
 612 178 612 178 692 234 c 128,-1,6
 772 290 772 290 790 396 c 0,7,8
 796 438 796 438 787 474 c 128,-1,9
 778 510 778 510 758 534 c 128,-1,10
 738 558 738 558 697 585 c 128,-1,11
 656 612 656 612 622 629 c 128,-1,12
 588 646 588 646 524 675 c 128,-1,13
 460 704 460 704 418 726 c 0,14,15
 296 790 296 790 248 877 c 128,-1,16
 200 964 200 964 220 1090 c 0,17,18
 240 1214 240 1214 347 1324 c 128,-1,19
 454 1434 454 1434 622 1458 c 1,20,-1
 650 1622 l 1,21,-1
 842 1622 l 1,22,-1
 814 1454 l 1,23,24
 918 1448 918 1448 1002 1371 c 128,-1,25
 1086 1294 1086 1294 1108 1206 c 1,26,-1
 936 1130 l 1,27,28
 856 1290 856 1290 688 1290 c 0,29,30
 586 1290 586 1290 515 1232 c 128,-1,31
 444 1174 444 1174 430 1088 c 0,32,33
 426 1062 426 1062 427 1040 c 128,-1,34
 428 1018 428 1018 437 998 c 128,-1,35
 446 978 446 978 454 964 c 128,-1,36
 462 950 462 950 485 933 c 128,-1,37
 508 916 508 916 522 905 c 128,-1,38
 536 894 536 894 569 877 c 128,-1,39
 602 860 602 860 620 852 c 128,-1,40
 638 844 638 844 682 825 c 128,-1,41
 726 806 726 806 750 794 c 0,42,43
 812 766 812 766 856 737 c 128,-1,44
 900 708 900 708 942 662 c 128,-1,45
 984 616 984 616 1002 554 c 128,-1,46
 1020 492 1020 492 1006 414 c 0,47,48
 978 246 978 246 860 139 c 128,-1,49
 742 32 742 32 574 8 c 1,50,-1
 550 -146 l 1,51,-1
 356 -146 l 1,52,-1
 384 12 l 1,53,54
 274 20 274 20 178 101 c 128,-1,55
 82 182 82 182 46 296 c 1,0,-1
EndSplineSet
EndChar

StartChar: percent
Encoding: 37 37 8
Width: 1924
GlyphClass: 2
Flags: W
LayerCount: 2
Fore
SplineSet
1000 332 m 256,0,1
 1026 492 1026 492 1151 596 c 128,-1,2
 1276 700 1276 700 1446 700 c 256,3,4
 1614 700 1614 700 1705 596 c 128,-1,5
 1796 492 1796 492 1768 332 c 0,6,7
 1742 170 1742 170 1616 68 c 128,-1,8
 1490 -34 1490 -34 1324 -34 c 256,9,10
 1158 -34 1158 -34 1066 69 c 128,-1,11
 974 172 974 172 1000 332 c 256,0,1
1196 332 m 0,12,13
 1180 236 1180 236 1226 181 c 128,-1,14
 1272 126 1272 126 1350 126 c 0,15,16
 1430 126 1430 126 1496 182 c 128,-1,17
 1562 238 1562 238 1576 332 c 0,18,19
 1592 428 1592 428 1547 484 c 128,-1,20
 1502 540 1502 540 1420 540 c 0,21,22
 1342 540 1342 540 1277 483 c 128,-1,23
 1212 426 1212 426 1196 332 c 0,12,13
212 1136 m 256,24,25
 238 1296 238 1296 363 1400 c 128,-1,26
 488 1504 488 1504 658 1504 c 256,27,28
 826 1504 826 1504 917 1400 c 128,-1,29
 1008 1296 1008 1296 980 1136 c 0,30,31
 954 974 954 974 828 873 c 128,-1,32
 702 772 702 772 536 772 c 256,33,34
 370 772 370 772 278 874 c 128,-1,35
 186 976 186 976 212 1136 c 256,24,25
406 1136 m 0,36,37
 390 1040 390 1040 437 985 c 128,-1,38
 484 930 484 930 562 930 c 0,39,40
 642 930 642 930 707 987 c 128,-1,41
 772 1044 772 1044 786 1136 c 0,42,43
 802 1232 802 1232 757 1289 c 128,-1,44
 712 1346 712 1346 632 1346 c 256,45,46
 552 1346 552 1346 487 1288 c 128,-1,47
 422 1230 422 1230 406 1136 c 0,36,37
252 -8 m 1,48,-1
 1520 1478 l 1,49,-1
 1732 1478 l 1,50,-1
 460 -8 l 1,51,-1
 252 -8 l 1,48,-1
EndSplineSet
EndChar

StartChar: ampersand
Encoding: 38 38 9
Width: 1294
GlyphClass: 2
Flags: W
LayerCount: 2
Fore
SplineSet
272 386 m 0,0,1
 254 274 254 274 315 209 c 128,-1,2
 376 144 376 144 488 144 c 0,3,4
 636 144 636 144 782 284 c 1,5,-1
 534 718 l 1,6,7
 302 564 302 564 272 386 c 0,0,1
60 382 m 0,8,9
 106 660 106 660 454 866 c 1,10,11
 414 938 414 938 401 965 c 128,-1,12
 388 992 388 992 375 1047 c 128,-1,13
 362 1102 362 1102 370 1158 c 0,14,15
 394 1298 394 1298 509 1388 c 128,-1,16
 624 1478 624 1478 796 1478 c 0,17,18
 944 1478 944 1478 1032 1403 c 128,-1,19
 1120 1328 1120 1328 1150 1210 c 1,20,-1
 986 1142 l 1,21,22
 962 1208 962 1208 910 1255 c 128,-1,23
 858 1302 858 1302 782 1302 c 0,24,25
 700 1302 700 1302 646 1259 c 128,-1,26
 592 1216 592 1216 582 1150 c 0,27,28
 576 1116 576 1116 588 1068 c 128,-1,29
 600 1020 600 1020 653 921 c 128,-1,30
 706 822 706 822 739 764 c 128,-1,31
 772 706 772 706 868 542 c 0,32,33
 900 488 900 488 918 460 c 1,34,35
 978 560 978 560 1028 712 c 1,36,-1
 1210 678 l 1,37,38
 1144 466 1144 466 1018 290 c 1,39,-1
 1190 0 l 1,40,-1
 944 0 l 1,41,-1
 868 126 l 1,42,43
 684 -34 684 -34 456 -34 c 0,44,45
 236 -34 236 -34 133 86 c 128,-1,46
 30 206 30 206 60 382 c 0,8,9
EndSplineSet
EndChar

StartChar: quotesingle
Encoding: 39 39 10
Width: 632
GlyphClass: 2
Flags: W
LayerCount: 2
Fore
SplineSet
224 1046 m 1,0,-1
 494 1638 l 1,1,-1
 742 1638 l 1,2,-1
 394 1046 l 1,3,-1
 224 1046 l 1,0,-1
EndSplineSet
EndChar

StartChar: parenleft
Encoding: 40 40 11
Width: 842
GlyphClass: 2
Flags: W
LayerCount: 2
Fore
SplineSet
264 706 m 0,0,1
 356 1262 356 1262 764 1702 c 1,2,-1
 900 1616 l 1,3,4
 746 1414 746 1414 684 1312 c 0,5,6
 524 1046 524 1046 468 706 c 0,7,8
 434 500 434 500 449 322 c 128,-1,9
 464 144 464 144 499 39 c 128,-1,10
 534 -66 534 -66 598 -204 c 1,11,-1
 434 -292 l 1,12,13
 312 -76 312 -76 263 161 c 128,-1,14
 214 398 214 398 264 706 c 0,0,1
EndSplineSet
Substitution2: "'sups' Superscript lookup 5 subtable" uni207D
Substitution2: "'aalt' Access All Alternates lookup 0 subtable" uni207D
EndChar

StartChar: parenright
Encoding: 41 41 12
Width: 842
GlyphClass: 2
Flags: W
LayerCount: 2
Fore
SplineSet
-12 -204 m 1,0,1
 168 16 168 16 270 225 c 128,-1,2
 372 434 372 434 418 706 c 0,3,4
 444 866 444 866 445 1002 c 128,-1,5
 446 1138 446 1138 419 1252 c 128,-1,6
 392 1366 392 1366 365 1440 c 128,-1,7
 338 1514 338 1514 290 1616 c 1,8,-1
 454 1702 l 1,9,10
 714 1256 714 1256 622 706 c 0,11,12
 570 396 570 396 442 159 c 128,-1,13
 314 -78 314 -78 124 -292 c 1,14,-1
 -12 -204 l 1,0,1
EndSplineSet
Substitution2: "'sups' Superscript lookup 5 subtable" uni207E
Substitution2: "'aalt' Access All Alternates lookup 0 subtable" uni207E
EndChar

StartChar: asterisk
Encoding: 42 42 13
Width: 1086
GlyphClass: 2
Flags: W
LayerCount: 2
Fore
SplineSet
78 814 m 1,0,-1
 178 984 l 1,1,-1
 506 844 l 1,2,-1
 554 1214 l 1,3,-1
 746 1214 l 1,4,-1
 672 844 l 1,5,-1
 1046 984 l 1,6,-1
 1090 814 l 1,7,-1
 688 688 l 1,8,-1
 924 368 l 1,9,-1
 750 250 l 1,10,-1
 548 596 l 1,11,-1
 232 250 l 1,12,-1
 96 368 l 1,13,-1
 438 688 l 1,14,-1
 78 814 l 1,0,-1
EndSplineSet
EndChar

StartChar: plus
Encoding: 43 43 14
Width: 1084
GlyphClass: 2
Flags: W
LayerCount: 2
Fore
SplineSet
58 634 m 1,0,-1
 88 818 l 1,1,-1
 480 818 l 1,2,-1
 546 1218 l 1,3,-1
 750 1218 l 1,4,-1
 684 818 l 1,5,-1
 1076 818 l 1,6,-1
 1046 634 l 1,7,-1
 654 634 l 1,8,-1
 586 220 l 1,9,-1
 382 220 l 1,10,-1
 450 634 l 1,11,-1
 58 634 l 1,0,-1
EndSplineSet
Substitution2: "'sups' Superscript lookup 5 subtable" uni207A
Substitution2: "'aalt' Access All Alternates lookup 0 subtable" uni207A
EndChar

StartChar: comma
Encoding: 44 44 15
Width: 550
GlyphClass: 2
Flags: W
LayerCount: 2
Fore
SplineSet
-124 -322 m 1,0,-1
 144 270 l 1,1,-1
 390 270 l 1,2,-1
 42 -322 l 1,3,-1
 -124 -322 l 1,0,-1
EndSplineSet
EndChar

StartChar: hyphen
Encoding: 45 45 16
Width: 754
GlyphClass: 2
Flags: W
LayerCount: 2
Fore
SplineSet
72 634 m 1,0,-1
 102 818 l 1,1,-1
 736 818 l 1,2,-1
 706 634 l 1,3,-1
 72 634 l 1,0,-1
EndSplineSet
EndChar

StartChar: period
Encoding: 46 46 17
Width: 550
GlyphClass: 2
Flags: W
LayerCount: 2
Fore
SplineSet
34 0 m 1,0,-1
 78 270 l 1,1,-1
 366 270 l 1,2,-1
 320 0 l 1,3,-1
 34 0 l 1,0,-1
EndSplineSet
EndChar

StartChar: slash
Encoding: 47 47 18
Width: 716
GlyphClass: 2
Flags: W
LayerCount: 2
Fore
SplineSet
-138 -108 m 1,0,-1
 694 1564 l 1,1,-1
 908 1564 l 1,2,-1
 78 -108 l 1,3,-1
 -138 -108 l 1,0,-1
EndSplineSet
EndChar

StartChar: zero
Encoding: 48 48 19
Width: 1100
GlyphClass: 2
Flags: W
LayerCount: 2
Fore
SplineSet
330 734 m 256,0,1
 302 562 302 562 303 435 c 128,-1,2
 304 308 304 308 350 226 c 128,-1,3
 396 144 396 144 484 144 c 0,4,5
 552 144 552 144 609 192 c 128,-1,6
 666 240 666 240 708 327 c 128,-1,7
 750 414 750 414 778 513 c 128,-1,8
 806 612 806 612 826 734 c 0,9,10
 846 858 846 858 851 962 c 128,-1,11
 856 1066 856 1066 840 1150 c 128,-1,12
 824 1234 824 1234 783 1280 c 128,-1,13
 742 1326 742 1326 676 1326 c 0,14,15
 590 1326 590 1326 518 1244 c 128,-1,16
 446 1162 446 1162 402 1034 c 128,-1,17
 358 906 358 906 330 734 c 256,0,1
112 734 m 0,18,19
 148 948 148 948 214 1105 c 128,-1,20
 280 1262 280 1262 365 1345 c 128,-1,21
 450 1428 450 1428 534 1466 c 128,-1,22
 618 1504 618 1504 704 1504 c 0,23,24
 928 1504 928 1504 1016 1303 c 128,-1,25
 1104 1102 1104 1102 1044 734 c 0,26,27
 986 384 986 384 834 175 c 128,-1,28
 682 -34 682 -34 454 -34 c 0,29,30
 368 -34 368 -34 296 4 c 128,-1,31
 224 42 224 42 167 125 c 128,-1,32
 110 208 110 208 93 365 c 128,-1,33
 76 522 76 522 112 734 c 0,18,19
EndSplineSet
EndChar

StartChar: one
Encoding: 49 49 20
Width: 1100
GlyphClass: 2
Flags: W
LayerCount: 2
Fore
SplineSet
252 1066 m 1,0,-1
 278 1230 l 1,1,-1
 342 1230 l 2,2,3
 619 1230 619 1230 668 1444 c 2,4,-1
 674 1470 l 1,5,-1
 856 1470 l 1,6,-1
 610 0 l 1,7,-1
 394 0 l 1,8,-1
 572 1066 l 1,9,-1
 252 1066 l 1,0,-1
EndSplineSet
Substitution2: "'subs' Subscript lookup 6 subtable" uni2081
Substitution2: "'sups' Superscript lookup 5 subtable" onesuperior
Substitution2: "'sinf' Scientific Inferiors lookup 4 subtable" uni2081
AlternateSubs2: "'aalt' Access All Alternates lookup 1 subtable" uni2081 onesuperior
EndChar

StartChar: two
Encoding: 50 50 21
Width: 1100
GlyphClass: 2
Flags: W
LayerCount: 2
Fore
SplineSet
184 1118 m 1,0,1
 254 1298 254 1298 386 1401 c 128,-1,2
 518 1504 518 1504 698 1504 c 0,3,4
 890 1504 890 1504 994 1392 c 128,-1,5
 1098 1280 1098 1280 1066 1086 c 0,6,7
 1030 866 1030 866 770 648 c 0,8,9
 748 630 748 630 672 566 c 128,-1,10
 596 502 596 502 574 482 c 128,-1,11
 552 462 552 462 495 412 c 128,-1,12
 438 362 438 362 414 332 c 128,-1,13
 390 302 390 302 356 261 c 128,-1,14
 322 220 322 220 296 178 c 1,15,-1
 912 178 l 1,16,-1
 882 0 l 1,17,-1
 10 0 l 1,18,19
 24 84 24 84 66 167 c 128,-1,20
 108 250 108 250 156 314 c 128,-1,21
 204 378 204 378 288 460 c 128,-1,22
 372 542 372 542 430 593 c 128,-1,23
 488 644 488 644 590 726 c 0,24,25
 612 746 612 746 624 754 c 0,26,27
 820 918 820 918 848 1090 c 0,28,29
 866 1202 866 1202 816 1264 c 128,-1,30
 766 1326 766 1326 666 1326 c 0,31,32
 562 1326 562 1326 483 1256 c 128,-1,33
 404 1186 404 1186 356 1064 c 1,34,-1
 184 1118 l 1,0,1
EndSplineSet
Substitution2: "'subs' Subscript lookup 6 subtable" uni2082
Substitution2: "'sups' Superscript lookup 5 subtable" twosuperior
Substitution2: "'sinf' Scientific Inferiors lookup 4 subtable" uni2082
AlternateSubs2: "'aalt' Access All Alternates lookup 1 subtable" uni2082 twosuperior
EndChar

StartChar: three
Encoding: 51 51 22
Width: 1100
GlyphClass: 2
Flags: W
LayerCount: 2
Fore
SplineSet
20 284 m 1,0,-1
 202 348 l 1,1,2
 262 144 262 144 460 144 c 0,3,4
 574 144 574 144 663 215 c 128,-1,5
 752 286 752 286 774 416 c 0,6,7
 794 538 794 538 721 610 c 128,-1,8
 648 682 648 682 522 682 c 0,9,10
 468 682 468 682 392 676 c 1,11,-1
 422 852 l 1,12,13
 466 848 466 848 540 848 c 0,14,15
 646 848 646 848 729 914 c 128,-1,16
 812 980 812 980 830 1096 c 0,17,18
 846 1196 846 1196 795 1261 c 128,-1,19
 744 1326 744 1326 646 1326 c 0,20,21
 480 1326 480 1326 364 1112 c 1,22,-1
 200 1168 l 1,23,24
 266 1316 266 1316 393 1410 c 128,-1,25
 520 1504 520 1504 688 1504 c 0,26,27
 884 1504 884 1504 983 1394 c 128,-1,28
 1082 1284 1082 1284 1054 1116 c 0,29,30
 1034 996 1034 996 960 908 c 128,-1,31
 886 820 886 820 790 778 c 1,32,33
 890 744 890 744 953 652 c 128,-1,34
 1016 560 1016 560 992 416 c 0,35,36
 956 204 956 204 804 85 c 128,-1,37
 652 -34 652 -34 432 -34 c 0,38,39
 258 -34 258 -34 150 58 c 128,-1,40
 42 150 42 150 20 284 c 1,0,-1
EndSplineSet
Substitution2: "'subs' Subscript lookup 6 subtable" uni2083
Substitution2: "'sups' Superscript lookup 5 subtable" threesuperior
Substitution2: "'sinf' Scientific Inferiors lookup 4 subtable" uni2083
AlternateSubs2: "'aalt' Access All Alternates lookup 1 subtable" uni2083 threesuperior
EndChar

StartChar: four
Encoding: 52 52 23
Width: 1100
GlyphClass: 2
Flags: W
LayerCount: 2
Fore
SplineSet
38 488 m 1,0,-1
 850 1470 l 1,1,-1
 1034 1470 l 1,2,-1
 866 492 l 1,3,-1
 1052 492 l 1,4,-1
 1022 314 l 1,5,-1
 836 314 l 1,6,-1
 782 0 l 1,7,-1
 570 0 l 1,8,-1
 624 314 l 1,9,-1
 8 314 l 1,10,-1
 38 488 l 1,0,-1
240 492 m 1,11,-1
 654 492 l 1,12,-1
 734 938 l 2,13,14
 758 1068 758 1068 776 1146 c 1,15,-1
 768 1146 l 1,16,17
 740 1108 740 1108 688 1040 c 0,18,19
 632 968 632 968 628 962 c 2,20,-1
 240 492 l 1,11,-1
EndSplineSet
Substitution2: "'subs' Subscript lookup 6 subtable" uni2084
Substitution2: "'sups' Superscript lookup 5 subtable" uni2074
Substitution2: "'sinf' Scientific Inferiors lookup 4 subtable" uni2084
AlternateSubs2: "'aalt' Access All Alternates lookup 1 subtable" uni2084 uni2074
EndChar

StartChar: five
Encoding: 53 53 24
Width: 1100
GlyphClass: 2
Flags: W
LayerCount: 2
Fore
SplineSet
32 262 m 1,0,-1
 220 328 l 1,1,2
 242 246 242 246 302 195 c 128,-1,3
 362 144 362 144 444 144 c 0,4,5
 568 144 568 144 653 229 c 128,-1,6
 738 314 738 314 760 452 c 0,7,8
 782 588 782 588 721 675 c 128,-1,9
 660 762 660 762 540 762 c 0,10,11
 398 762 398 762 272 628 c 1,12,-1
 148 682 l 1,13,-1
 352 1470 l 1,14,-1
 1066 1470 l 1,15,-1
 1036 1292 l 1,16,-1
 518 1292 l 1,17,-1
 402 868 l 1,18,19
 512 938 512 938 644 938 c 0,20,21
 828 938 828 938 923 808 c 128,-1,22
 1018 678 1018 678 980 456 c 0,23,24
 964 362 964 362 923 277 c 128,-1,25
 882 192 882 192 814 121 c 128,-1,26
 746 50 746 50 644 8 c 128,-1,27
 542 -34 542 -34 420 -34 c 0,28,29
 262 -34 262 -34 164 46 c 128,-1,30
 66 126 66 126 32 262 c 1,0,-1
EndSplineSet
EndChar

StartChar: six
Encoding: 54 54 25
Width: 1100
GlyphClass: 2
Flags: W
LayerCount: 2
Fore
SplineSet
298 466 m 0,0,1
 274 320 274 320 328 232 c 0,2,3
 380 144 380 144 492 144 c 0,4,5
 600 144 600 144 684 231 c 128,-1,6
 768 318 768 318 794 466 c 256,7,8
 818 614 818 614 763 700 c 128,-1,9
 708 786 708 786 598 786 c 0,10,11
 490 786 490 786 406 697 c 128,-1,12
 322 608 322 608 298 466 c 0,0,1
106 664 m 0,13,14
 134 830 134 830 188 976 c 128,-1,15
 242 1122 242 1122 321 1243 c 128,-1,16
 400 1364 400 1364 514 1434 c 128,-1,17
 628 1504 628 1504 764 1504 c 0,18,19
 1042 1504 1042 1504 1120 1212 c 1,20,-1
 942 1154 l 1,21,22
 880 1326 880 1326 736 1326 c 0,23,24
 520 1326 520 1326 396 962 c 0,25,26
 362 874 362 874 342 792 c 1,27,28
 390 868 390 868 473 916 c 128,-1,29
 556 964 556 964 656 964 c 0,30,31
 846 964 846 964 944 823 c 128,-1,32
 1042 682 1042 682 1008 468 c 0,33,34
 972 252 972 252 827 109 c 128,-1,35
 682 -34 682 -34 470 -34 c 0,36,37
 254 -34 254 -34 154 122 c 0,38,39
 44 294 44 294 106 664 c 0,13,14
EndSplineSet
EndChar

StartChar: seven
Encoding: 55 55 26
Width: 1100
GlyphClass: 2
Flags: W
LayerCount: 2
Fore
SplineSet
206 1286 m 1,0,-1
 236 1470 l 1,1,-1
 1144 1470 l 1,2,-1
 1120 1322 l 1,3,4
 658 726 658 726 376 0 c 5,5,-1
 160 0 l 5,6,7
 386 620 386 620 866 1286 c 1,8,-1
 206 1286 l 1,0,-1
EndSplineSet
EndChar

StartChar: eight
Encoding: 56 56 27
Width: 1100
GlyphClass: 2
Flags: W
LayerCount: 2
Fore
SplineSet
424 1096 m 0,0,1
 406 992 406 992 459 927 c 128,-1,2
 512 862 512 862 602 862 c 0,3,4
 694 862 694 862 765 928 c 128,-1,5
 836 994 836 994 854 1096 c 0,6,7
 870 1194 870 1194 821 1260 c 128,-1,8
 772 1326 772 1326 678 1326 c 0,9,10
 582 1326 582 1326 511 1260 c 128,-1,11
 440 1194 440 1194 424 1096 c 0,0,1
48 402 m 0,12,13
 72 550 72 550 165 645 c 128,-1,14
 258 740 258 740 368 780 c 1,15,16
 174 884 174 884 210 1104 c 0,17,18
 238 1276 238 1276 380 1390 c 128,-1,19
 522 1504 522 1504 708 1504 c 260,20,21
 894 1504 894 1504 997 1390 c 128,-1,22
 1100 1276 1100 1276 1072 1104 c 0,23,24
 1052 986 1052 986 978 904 c 128,-1,25
 904 822 904 822 806 780 c 1,26,27
 910 740 910 740 969 643 c 128,-1,28
 1028 546 1028 546 1002 400 c 0,29,30
 970 206 970 206 817 86 c 128,-1,31
 664 -34 664 -34 452 -34 c 0,32,33
 252 -34 252 -34 133 82 c 128,-1,34
 14 198 14 198 48 402 c 0,12,13
268 412 m 0,35,36
 250 298 250 298 309 221 c 128,-1,37
 368 144 368 144 482 144 c 256,38,39
 596 144 596 144 681 221 c 128,-1,40
 766 298 766 298 786 412 c 256,41,42
 804 526 804 526 745 606 c 128,-1,43
 686 686 686 686 572 686 c 0,44,45
 460 686 460 686 374 607 c 128,-1,46
 288 528 288 528 268 412 c 0,35,36
EndSplineSet
EndChar

StartChar: nine
Encoding: 57 57 28
Width: 1100
GlyphClass: 2
Flags: W
LayerCount: 2
Fore
SplineSet
364 1008 m 0,0,1
 340 864 340 864 397 777 c 128,-1,2
 454 690 454 690 556 690 c 256,3,4
 660 690 660 690 744 779 c 128,-1,5
 828 868 828 868 850 1008 c 0,6,7
 872 1142 872 1142 821 1234 c 128,-1,8
 770 1326 770 1326 662 1326 c 0,9,10
 556 1326 556 1326 471 1236 c 128,-1,11
 386 1146 386 1146 364 1008 c 0,0,1
30 260 m 1,12,-1
 214 318 l 1,13,14
 272 144 272 144 424 144 c 0,15,16
 504 144 504 144 571 188 c 128,-1,17
 638 232 638 232 684 312 c 128,-1,18
 730 392 730 392 760 481 c 128,-1,19
 790 570 790 570 810 674 c 1,20,21
 760 608 760 608 679 560 c 128,-1,22
 598 512 598 512 496 512 c 0,23,24
 320 512 320 512 217 647 c 128,-1,25
 114 782 114 782 150 1006 c 0,26,27
 186 1226 186 1226 338 1365 c 128,-1,28
 490 1504 490 1504 690 1504 c 0,29,30
 858 1504 858 1504 956 1394 c 128,-1,31
 1054 1284 1054 1284 1062 1106 c 0,32,33
 1068 990 1068 990 1038 806 c 0,34,35
 972 406 972 406 811 186 c 128,-1,36
 650 -34 650 -34 390 -34 c 0,37,38
 242 -34 242 -34 149 55 c 128,-1,39
 56 144 56 144 30 260 c 1,12,-1
EndSplineSet
EndChar

StartChar: colon
Encoding: 58 58 29
Width: 550
GlyphClass: 2
Flags: W
LayerCount: 2
Fore
SplineSet
34 0 m 1,0,-1
 78 270 l 1,1,-1
 366 270 l 1,2,-1
 320 0 l 1,3,-1
 34 0 l 1,0,-1
164 784 m 1,4,-1
 210 1056 l 1,5,-1
 496 1056 l 1,6,-1
 450 784 l 1,7,-1
 164 784 l 1,4,-1
EndSplineSet
EndChar

StartChar: semicolon
Encoding: 59 59 30
Width: 550
GlyphClass: 2
Flags: W
LayerCount: 2
Fore
SplineSet
-124 -322 m 1,0,-1
 144 270 l 1,1,-1
 390 270 l 1,2,-1
 42 -322 l 1,3,-1
 -124 -322 l 1,0,-1
180 784 m 1,4,-1
 226 1056 l 1,5,-1
 512 1056 l 1,6,-1
 466 784 l 1,7,-1
 180 784 l 1,4,-1
EndSplineSet
EndChar

StartChar: less
Encoding: 60 60 31
Width: 1078
GlyphClass: 2
Flags: W
LayerCount: 2
Fore
SplineSet
88 614 m 1,0,-1
 120 808 l 1,1,-1
 1020 1418 l 1,2,-1
 1106 1262 l 1,3,-1
 306 712 l 1,4,-1
 924 162 l 1,5,-1
 786 6 l 1,6,-1
 88 614 l 1,0,-1
EndSplineSet
EndChar

StartChar: equal
Encoding: 61 61 32
Width: 1078
GlyphClass: 2
Flags: W
LayerCount: 2
Fore
SplineSet
64 434 m 1,0,-1
 94 616 l 1,1,-1
 1000 616 l 1,2,-1
 970 434 l 1,3,-1
 64 434 l 1,0,-1
130 836 m 1,4,-1
 160 1020 l 1,5,-1
 1068 1020 l 1,6,-1
 1038 836 l 1,7,-1
 130 836 l 1,4,-1
EndSplineSet
Substitution2: "'sups' Superscript lookup 5 subtable" uni207C
Substitution2: "'aalt' Access All Alternates lookup 0 subtable" uni207C
EndChar

StartChar: greater
Encoding: 62 62 33
Width: 1078
GlyphClass: 2
Flags: W
LayerCount: 2
Fore
SplineSet
104 6 m 1,0,-1
 20 162 l 1,1,-1
 820 712 l 1,2,-1
 202 1262 l 1,3,-1
 338 1418 l 1,4,-1
 1040 808 l 1,5,-1
 1008 614 l 1,6,-1
 104 6 l 1,0,-1
EndSplineSet
EndChar

StartChar: question
Encoding: 63 63 34
Width: 1090
GlyphClass: 2
Flags: W
LayerCount: 2
Fore
SplineSet
210 1164 m 1,0,1
 280 1314 280 1314 411 1412 c 128,-1,2
 542 1510 542 1510 708 1510 c 0,3,4
 896 1510 896 1510 993 1397 c 128,-1,5
 1090 1284 1090 1284 1060 1100 c 0,6,7
 1046 1010 1046 1010 999 938 c 128,-1,8
 952 866 952 866 895 818 c 128,-1,9
 838 770 838 770 781 723 c 128,-1,10
 724 676 724 676 679 610 c 128,-1,11
 634 544 634 544 622 466 c 2,12,-1
 612 404 l 1,13,-1
 398 404 l 1,14,-1
 410 482 l 2,15,16
 424 562 424 562 459 628 c 128,-1,17
 494 694 494 694 539 737 c 128,-1,18
 584 780 584 780 632 825 c 128,-1,19
 680 870 680 870 723 906 c 128,-1,20
 766 942 766 942 800 995 c 128,-1,21
 834 1048 834 1048 842 1106 c 0,22,23
 858 1206 858 1206 815 1266 c 128,-1,24
 772 1326 772 1326 680 1326 c 0,25,26
 510 1326 510 1326 386 1102 c 1,27,-1
 210 1164 l 1,0,1
292 -14 m 1,28,-1
 336 252 l 1,29,-1
 624 252 l 1,30,-1
 580 -14 l 1,31,-1
 292 -14 l 1,28,-1
EndSplineSet
EndChar

StartChar: at
Encoding: 64 64 35
Width: 1822
GlyphClass: 2
Flags: W
LayerCount: 2
Fore
SplineSet
114 690 m 256,0,1
 176 1062 176 1062 453 1298 c 128,-1,2
 730 1534 730 1534 1110 1534 c 0,3,4
 1454 1534 1454 1534 1637 1326 c 128,-1,5
 1820 1118 1820 1118 1768 796 c 0,6,7
 1744 646 1744 646 1687 532 c 128,-1,8
 1630 418 1630 418 1559 355 c 128,-1,9
 1488 292 1488 292 1415 260 c 128,-1,10
 1342 228 1342 228 1272 228 c 0,11,12
 1190 228 1190 228 1136 281 c 128,-1,13
 1082 334 1082 334 1084 414 c 1,14,-1
 1082 414 l 1,15,16
 1042 344 1042 344 958 287 c 128,-1,17
 874 230 874 230 776 230 c 0,18,19
 636 230 636 230 558 340 c 128,-1,20
 480 450 480 450 510 628 c 0,21,22
 550 866 550 866 693 1002 c 128,-1,23
 836 1138 836 1138 1002 1138 c 0,24,25
 1076 1138 1076 1138 1124 1104 c 128,-1,26
 1172 1070 1172 1070 1190 1032 c 1,27,-1
 1214 1124 l 1,28,-1
 1370 1124 l 1,29,-1
 1244 542 l 2,30,31
 1242 532 1242 532 1242 522 c 0,32,33
 1232 462 1232 462 1249 425 c 128,-1,34
 1266 388 1266 388 1312 388 c 0,35,36
 1396 388 1396 388 1475 495 c 128,-1,37
 1554 602 1554 602 1586 786 c 0,38,39
 1630 1050 1630 1050 1493 1216 c 128,-1,40
 1356 1382 1356 1382 1084 1382 c 0,41,42
 790 1382 790 1382 569 1187 c 128,-1,43
 348 992 348 992 298 690 c 0,44,45
 246 372 246 372 396 188 c 128,-1,46
 546 4 546 4 836 4 c 0,47,48
 1048 4 1048 4 1260 62 c 1,49,-1
 1270 -80 l 1,50,51
 1060 -150 1060 -150 810 -150 c 0,52,53
 430 -150 430 -150 241 84 c 128,-1,54
 52 318 52 318 114 690 c 256,0,1
704 630 m 0,55,56
 688 534 688 534 721 467 c 128,-1,57
 754 400 754 400 830 400 c 0,58,59
 914 400 914 400 1001 492 c 128,-1,60
 1088 584 1088 584 1122 796 c 0,61,62
 1136 876 1136 876 1104 929 c 128,-1,63
 1072 982 1072 982 992 982 c 0,64,65
 904 982 904 982 817 885 c 128,-1,66
 730 788 730 788 704 630 c 0,55,56
EndSplineSet
EndChar

StartChar: A
Encoding: 65 65 36
Width: 1276
GlyphClass: 2
Flags: W
LayerCount: 2
Fore
SplineSet
402 558 m 1,0,-1
 872 558 l 1,1,-1
 802 974 l 2,2,3
 796 1008 796 1008 781 1111 c 128,-1,4
 766 1214 766 1214 758 1264 c 1,5,-1
 748 1264 l 1,6,7
 712 1190 712 1190 610 974 c 2,8,-1
 402 558 l 1,0,-1
-102 0 m 1,9,-1
 670 1470 l 1,10,-1
 908 1470 l 1,11,-1
 1192 0 l 1,12,-1
 962 0 l 1,13,-1
 900 384 l 1,14,-1
 320 384 l 1,15,-1
 128 0 l 1,16,-1
 -102 0 l 1,9,-1
EndSplineSet
Substitution2: "Single Substitution lookup 12 subtable" ordfeminine
EndChar

StartChar: B
Encoding: 66 66 37
Width: 1282
GlyphClass: 2
Flags: W
LayerCount: 2
Fore
SplineSet
68 0 m 1,0,-1
 312 1470 l 1,1,-1
 852 1470 l 2,2,3
 1078 1470 1078 1470 1173 1367 c 128,-1,4
 1268 1264 1268 1264 1238 1086 c 0,5,6
 1202 870 1202 870 998 776 c 1,7,8
 1092 742 1092 742 1147 649 c 128,-1,9
 1202 556 1202 556 1180 422 c 0,10,11
 1150 244 1150 244 1016 122 c 128,-1,12
 882 0 882 0 680 0 c 2,13,-1
 68 0 l 1,0,-1
310 186 m 1,14,-1
 670 186 l 2,15,16
 776 186 776 186 859 247 c 128,-1,17
 942 308 942 308 960 420 c 0,18,19
 978 524 978 524 921 595 c 128,-1,20
 864 666 864 666 742 666 c 2,21,-1
 390 666 l 1,22,-1
 310 186 l 1,14,-1
420 848 m 1,23,-1
 726 848 l 2,24,25
 838 848 838 848 918 904 c 128,-1,26
 998 960 998 960 1016 1068 c 0,27,28
 1032 1168 1032 1168 983 1226 c 128,-1,29
 934 1284 934 1284 806 1284 c 2,30,-1
 492 1284 l 1,31,-1
 420 848 l 1,23,-1
EndSplineSet
EndChar

StartChar: C
Encoding: 67 67 38
Width: 1280
GlyphClass: 2
Flags: W
LayerCount: 2
Fore
SplineSet
106 734 m 0,0,1
 164 1090 164 1090 374 1297 c 128,-1,2
 584 1504 584 1504 864 1504 c 0,3,4
 1044 1504 1044 1504 1154 1404 c 128,-1,5
 1264 1304 1264 1304 1302 1160 c 1,6,-1
 1108 1098 l 1,7,8
 1022 1318 1022 1318 830 1318 c 0,9,10
 644 1318 644 1318 506 1158 c 128,-1,11
 368 998 368 998 324 734 c 0,12,13
 280 466 280 466 367 309 c 128,-1,14
 454 152 454 152 636 152 c 0,15,16
 758 152 758 152 859 224 c 128,-1,17
 960 296 960 296 1020 400 c 1,18,-1
 1202 338 l 1,19,20
 1162 270 1162 270 1110 211 c 128,-1,21
 1058 152 1058 152 986 93 c 128,-1,22
 914 34 914 34 816 0 c 128,-1,23
 718 -34 718 -34 610 -34 c 0,24,25
 336 -34 336 -34 191 170 c 128,-1,26
 46 374 46 374 106 734 c 0,0,1
EndSplineSet
EndChar

StartChar: D
Encoding: 68 68 39
Width: 1326
GlyphClass: 2
Flags: W
LayerCount: 2
Fore
SplineSet
68 0 m 1,0,-1
 312 1470 l 1,1,-1
 726 1470 l 2,2,3
 1048 1470 1048 1470 1194 1281 c 128,-1,4
 1340 1092 1340 1092 1282 734 c 0,5,6
 1256 576 1256 576 1195 447 c 128,-1,7
 1134 318 1134 318 1039 216 c 128,-1,8
 944 114 944 114 801 57 c 128,-1,9
 658 0 658 0 480 0 c 2,10,-1
 68 0 l 1,0,-1
310 184 m 1,11,-1
 486 184 l 2,12,13
 968 184 968 184 1060 734 c 0,14,15
 1152 1286 1152 1286 670 1286 c 2,16,-1
 492 1286 l 1,17,-1
 310 184 l 1,11,-1
EndSplineSet
EndChar

StartChar: E
Encoding: 69 69 40
Width: 1168
GlyphClass: 2
Flags: W
LayerCount: 2
Fore
SplineSet
68 0 m 1,0,-1
 312 1470 l 1,1,-1
 1242 1470 l 1,2,-1
 1212 1284 l 1,3,-1
 492 1284 l 1,4,-1
 420 852 l 1,5,-1
 1070 852 l 1,6,-1
 1040 670 l 1,7,-1
 390 670 l 1,8,-1
 310 186 l 1,9,-1
 1046 186 l 1,10,-1
 1014 0 l 1,11,-1
 68 0 l 1,0,-1
EndSplineSet
EndChar

StartChar: F
Encoding: 70 70 41
Width: 1088
GlyphClass: 2
Flags: W
LayerCount: 2
Fore
SplineSet
68 0 m 1,0,-1
 312 1470 l 1,1,-1
 1214 1470 l 1,2,-1
 1184 1284 l 1,3,-1
 492 1284 l 1,4,-1
 416 828 l 1,5,-1
 1038 828 l 1,6,-1
 1008 646 l 1,7,-1
 386 646 l 1,8,-1
 280 0 l 1,9,-1
 68 0 l 1,0,-1
EndSplineSet
EndChar

StartChar: G
Encoding: 71 71 42
Width: 1374
GlyphClass: 2
Flags: W
LayerCount: 2
Fore
SplineSet
106 734 m 0,0,1
 162 1072 162 1072 371 1288 c 128,-1,2
 580 1504 580 1504 876 1504 c 0,3,4
 982 1504 982 1504 1067 1469 c 128,-1,5
 1152 1434 1152 1434 1204 1378 c 128,-1,6
 1256 1322 1256 1322 1284 1270 c 128,-1,7
 1312 1218 1312 1218 1328 1166 c 1,8,-1
 1136 1104 l 1,9,10
 1094 1202 1094 1202 1028 1260 c 128,-1,11
 962 1318 962 1318 846 1318 c 0,12,13
 646 1318 646 1318 506 1157 c 128,-1,14
 366 996 366 996 324 734 c 0,15,16
 280 464 280 464 368 308 c 128,-1,17
 456 152 456 152 642 152 c 0,18,19
 804 152 804 152 913 253 c 128,-1,20
 1022 354 1022 354 1056 502 c 0,21,22
 1064 534 1064 534 1078 628 c 1,23,-1
 706 628 l 1,24,-1
 736 812 l 1,25,-1
 1314 812 l 1,26,-1
 1180 0 l 1,27,-1
 1030 0 l 1,28,-1
 1042 172 l 1,29,30
 890 -34 890 -34 606 -34 c 0,31,32
 332 -34 332 -34 190 173 c 128,-1,33
 48 380 48 380 106 734 c 0,0,1
EndSplineSet
EndChar

StartChar: H
Encoding: 72 72 43
Width: 1366
GlyphClass: 2
Flags: W
LayerCount: 2
Fore
SplineSet
68 0 m 1,0,-1
 312 1470 l 1,1,-1
 524 1470 l 1,2,-1
 420 848 l 1,3,-1
 1044 848 l 1,4,-1
 1146 1470 l 1,5,-1
 1356 1470 l 1,6,-1
 1112 0 l 1,7,-1
 902 0 l 1,8,-1
 1012 664 l 1,9,-1
 390 664 l 1,10,-1
 280 0 l 1,11,-1
 68 0 l 1,0,-1
EndSplineSet
EndChar

StartChar: I
Encoding: 73 73 44
Width: 532
GlyphClass: 2
Flags: W
LayerCount: 2
Fore
SplineSet
68 0 m 1,0,-1
 312 1470 l 1,1,-1
 524 1470 l 1,2,-1
 280 0 l 1,3,-1
 68 0 l 1,0,-1
EndSplineSet
EndChar

StartChar: J
Encoding: 74 74 45
Width: 980
GlyphClass: 2
Flags: W
LayerCount: 2
Fore
SplineSet
-34 262 m 1,0,-1
 158 332 l 1,1,2
 170 254 170 254 216 203 c 128,-1,3
 262 152 262 152 338 152 c 0,4,5
 540 152 540 152 588 442 c 2,6,-1
 758 1470 l 1,7,-1
 970 1470 l 1,8,-1
 794 414 l 2,9,10
 758 196 758 196 633 81 c 128,-1,11
 508 -34 508 -34 312 -34 c 0,12,13
 154 -34 154 -34 68 51 c 128,-1,14
 -18 136 -18 136 -34 262 c 1,0,-1
EndSplineSet
EndChar

StartChar: K
Encoding: 75 75 46
Width: 1254
GlyphClass: 2
Flags: W
LayerCount: 2
Fore
SplineSet
68 0 m 1,0,-1
 312 1470 l 1,1,-1
 524 1470 l 1,2,-1
 408 770 l 1,3,-1
 414 770 l 1,4,-1
 1116 1470 l 1,5,-1
 1388 1470 l 1,6,-1
 730 830 l 1,7,-1
 1166 0 l 1,8,-1
 906 0 l 1,9,-1
 570 676 l 1,10,-1
 358 470 l 1,11,-1
 280 0 l 1,12,-1
 68 0 l 1,0,-1
EndSplineSet
EndChar

StartChar: L
Encoding: 76 76 47
Width: 1052
GlyphClass: 2
Flags: W
LayerCount: 2
Fore
SplineSet
68 0 m 1,0,-1
 312 1470 l 1,1,-1
 524 1470 l 1,2,-1
 310 186 l 1,3,-1
 972 186 l 1,4,-1
 942 0 l 1,5,-1
 68 0 l 1,0,-1
EndSplineSet
EndChar

StartChar: M
Encoding: 77 77 48
Width: 1662
GlyphClass: 2
Flags: W
LayerCount: 2
Fore
SplineSet
68 0 m 1,0,-1
 312 1470 l 1,1,-1
 574 1470 l 1,2,-1
 728 752 l 2,3,4
 742 682 742 682 764 556 c 128,-1,5
 786 430 786 430 794 376 c 1,6,-1
 802 376 l 1,7,8
 818 406 818 406 998 752 c 1,9,-1
 1388 1470 l 1,10,-1
 1654 1470 l 1,11,-1
 1410 0 l 1,12,-1
 1198 0 l 1,13,-1
 1318 718 l 2,14,15
 1342 864 1342 864 1416 1172 c 1,16,-1
 1408 1172 l 1,17,-1
 1268 894 l 1,18,-1
 836 92 l 1,19,-1
 674 92 l 1,20,-1
 504 894 l 1,21,-1
 454 1172 l 1,22,-1
 446 1172 l 1,23,24
 422 864 422 864 398 718 c 2,25,-1
 280 0 l 1,26,-1
 68 0 l 1,0,-1
EndSplineSet
EndChar

StartChar: N
Encoding: 78 78 49
Width: 1376
GlyphClass: 2
Flags: W
LayerCount: 2
Fore
SplineSet
68 0 m 1,0,-1
 312 1470 l 1,1,-1
 538 1470 l 1,2,-1
 864 620 l 1,3,-1
 978 318 l 1,4,-1
 988 318 l 1,5,6
 994 516 994 516 1032 740 c 2,7,-1
 1152 1470 l 1,8,-1
 1366 1470 l 1,9,-1
 1122 0 l 1,10,-1
 896 0 l 1,11,-1
 566 842 l 1,12,-1
 454 1148 l 1,13,-1
 444 1148 l 1,14,15
 438 952 438 952 400 726 c 2,16,-1
 280 0 l 1,17,-1
 68 0 l 1,0,-1
EndSplineSet
EndChar

StartChar: O
Encoding: 79 79 50
Width: 1376
GlyphClass: 2
Flags: W
LayerCount: 2
Fore
SplineSet
106 734 m 0,0,1
 164 1080 164 1080 366 1292 c 128,-1,2
 568 1504 568 1504 846 1504 c 256,3,4
 1124 1504 1124 1504 1255 1292 c 128,-1,5
 1386 1080 1386 1080 1328 732 c 0,6,7
 1270 382 1270 382 1069 174 c 128,-1,8
 868 -34 868 -34 592 -34 c 0,9,10
 314 -34 314 -34 181 175 c 128,-1,11
 48 384 48 384 106 734 c 0,0,1
326 734 m 256,12,13
 282 466 282 466 360 309 c 128,-1,14
 438 152 438 152 622 152 c 0,15,16
 802 152 802 152 933 307 c 128,-1,17
 1064 462 1064 462 1108 732 c 0,18,19
 1152 998 1152 998 1076 1158 c 128,-1,20
 1000 1318 1000 1318 816 1318 c 256,21,22
 632 1318 632 1318 501 1160 c 128,-1,23
 370 1002 370 1002 326 734 c 256,12,13
EndSplineSet
Substitution2: "Single Substitution lookup 12 subtable" ordmasculine
EndChar

StartChar: P
Encoding: 80 80 51
Width: 1250
GlyphClass: 2
Flags: W
LayerCount: 2
Fore
SplineSet
68 0 m 1,0,-1
 312 1470 l 1,1,-1
 868 1470 l 2,2,3
 1088 1470 1088 1470 1193 1349 c 128,-1,4
 1298 1228 1298 1228 1266 1028 c 0,5,6
 1232 822 1232 822 1083 702 c 128,-1,7
 934 582 934 582 724 582 c 2,8,-1
 376 582 l 1,9,-1
 280 0 l 1,10,-1
 68 0 l 1,0,-1
406 766 m 1,11,-1
 722 766 l 2,12,13
 858 766 858 766 941 832 c 128,-1,14
 1024 898 1024 898 1046 1028 c 0,15,16
 1066 1154 1066 1154 1005 1219 c 128,-1,17
 944 1284 944 1284 808 1284 c 2,18,-1
 492 1284 l 1,19,-1
 406 766 l 1,11,-1
EndSplineSet
EndChar

StartChar: Q
Encoding: 81 81 52
Width: 1376
GlyphClass: 2
Flags: W
LayerCount: 2
Fore
SplineSet
106 732 m 0,0,1
 164 1082 164 1082 367 1293 c 128,-1,2
 570 1504 570 1504 846 1504 c 0,3,4
 1124 1504 1124 1504 1255 1292 c 128,-1,5
 1386 1080 1386 1080 1328 732 c 0,6,7
 1272 392 1272 392 1076 182 c 1,8,-1
 1210 12 l 1,9,-1
 1064 -102 l 1,10,-1
 936 64 l 1,11,12
 782 -34 782 -34 592 -34 c 0,13,14
 312 -34 312 -34 181 177 c 128,-1,15
 50 388 50 388 106 732 c 0,0,1
626 458 m 1,16,-1
 770 574 l 1,17,-1
 956 336 l 1,18,19
 1070 488 1070 488 1108 732 c 0,20,21
 1154 1006 1154 1006 1074 1162 c 128,-1,22
 994 1318 994 1318 816 1318 c 0,23,24
 634 1318 634 1318 502 1160 c 128,-1,25
 370 1002 370 1002 324 732 c 0,26,27
 280 464 280 464 360 308 c 128,-1,28
 440 152 440 152 622 152 c 0,29,30
 730 152 730 152 822 208 c 1,31,-1
 626 458 l 1,16,-1
EndSplineSet
EndChar

StartChar: R
Encoding: 82 82 53
Width: 1290
GlyphClass: 2
Flags: W
LayerCount: 2
Fore
SplineSet
410 786 m 1,0,-1
 742 786 l 2,1,2
 872 786 872 786 952 854 c 128,-1,3
 1032 922 1032 922 1052 1040 c 0,4,5
 1070 1150 1070 1150 1008 1217 c 128,-1,6
 946 1284 946 1284 814 1284 c 2,7,-1
 492 1284 l 1,8,-1
 410 786 l 1,0,-1
68 0 m 1,9,-1
 312 1470 l 1,10,-1
 888 1470 l 2,11,12
 1108 1470 1108 1470 1206 1352 c 128,-1,13
 1304 1234 1304 1234 1274 1058 c 0,14,15
 1248 906 1248 906 1162 810 c 128,-1,16
 1076 714 1076 714 982 682 c 1,17,18
 1046 636 1046 636 1070 579 c 128,-1,19
 1094 522 1094 522 1096 412 c 0,20,21
 1100 296 1100 296 1117 205 c 128,-1,22
 1134 114 1134 114 1180 0 c 1,23,-1
 942 0 l 1,24,25
 884 140 884 140 870 398 c 0,26,27
 866 498 866 498 833 551 c 128,-1,28
 800 604 800 604 706 604 c 2,29,-1
 380 604 l 1,30,-1
 280 0 l 1,31,-1
 68 0 l 1,9,-1
EndSplineSet
EndChar

StartChar: S
Encoding: 83 83 54
Width: 1182
GlyphClass: 2
Flags: W
LayerCount: 2
Fore
SplineSet
8 300 m 1,0,-1
 210 368 l 1,1,2
 246 270 246 270 335 211 c 128,-1,3
 424 152 424 152 546 152 c 0,4,5
 674 152 674 152 765 216 c 128,-1,6
 856 280 856 280 874 386 c 0,7,8
 884 442 884 442 867 487 c 128,-1,9
 850 532 850 532 805 565 c 128,-1,10
 760 598 760 598 716 619 c 128,-1,11
 672 640 672 640 600 666 c 0,12,13
 392 740 392 740 320 790 c 0,14,15
 160 902 160 902 194 1104 c 0,16,17
 224 1284 224 1284 380 1394 c 128,-1,18
 536 1504 536 1504 756 1504 c 4,19,20
 936 1504 936 1504 1052 1419 c 128,-1,21
 1168 1334 1168 1334 1204 1204 c 1,22,-1
 1016 1140 l 1,23,24
 930 1318 930 1318 724 1318 c 0,25,26
 596 1318 596 1318 512 1261 c 128,-1,27
 428 1204 428 1204 412 1106 c 0,28,29
 400 1032 400 1032 451 976 c 128,-1,30
 502 920 502 920 550 899 c 128,-1,31
 598 878 598 878 720 834 c 0,32,33
 746 824 746 824 760 820 c 0,34,35
 840 788 840 788 900 758 c 128,-1,36
 960 728 960 728 1014 679 c 128,-1,37
 1068 630 1068 630 1090 558 c 128,-1,38
 1112 486 1112 486 1096 396 c 0,39,40
 1062 192 1062 192 901 79 c 128,-1,41
 740 -34 740 -34 512 -34 c 0,42,43
 314 -34 314 -34 184 57 c 128,-1,44
 54 148 54 148 8 300 c 1,0,-1
EndSplineSet
EndChar

StartChar: T
Encoding: 84 84 55
Width: 1092
GlyphClass: 2
Flags: W
LayerCount: 2
Fore
SplineSet
136 1284 m 1,0,-1
 168 1470 l 1,1,-1
 1228 1470 l 1,2,-1
 1198 1284 l 1,3,-1
 774 1284 l 1,4,-1
 562 0 l 1,5,-1
 350 0 l 1,6,-1
 562 1284 l 1,7,-1
 136 1284 l 1,0,-1
EndSplineSet
EndChar

StartChar: U
Encoding: 85 85 56
Width: 1360
GlyphClass: 2
Flags: W
LayerCount: 2
Fore
SplineSet
152 542 m 2,0,-1
 306 1470 l 1,1,-1
 520 1470 l 1,2,-1
 366 544 l 2,3,4
 334 346 334 346 402 249 c 128,-1,5
 470 152 470 152 612 152 c 0,6,7
 758 152 758 152 859 252 c 128,-1,8
 960 352 960 352 992 544 c 2,9,-1
 1144 1470 l 1,10,-1
 1356 1470 l 1,11,-1
 1202 542 l 2,12,13
 1156 268 1156 268 998 117 c 128,-1,14
 840 -34 840 -34 582 -34 c 0,15,16
 332 -34 332 -34 219 113 c 128,-1,17
 106 260 106 260 152 542 c 2,0,-1
EndSplineSet
EndChar

StartChar: V
Encoding: 86 86 57
Width: 1182
GlyphClass: 2
Flags: W
LayerCount: 2
Fore
SplineSet
150 1470 m 1,0,-1
 380 1470 l 1,1,-1
 498 570 l 1,2,3
 524 298 524 298 532 224 c 1,4,-1
 538 224 l 1,5,6
 564 286 564 286 612 397 c 128,-1,7
 660 508 660 508 688 570 c 2,8,-1
 1102 1470 l 1,9,-1
 1336 1470 l 1,10,-1
 620 0 l 1,11,-1
 376 0 l 1,12,-1
 150 1470 l 1,0,-1
EndSplineSet
EndChar

StartChar: W
Encoding: 87 87 58
Width: 1694
GlyphClass: 2
Flags: W
LayerCount: 2
Fore
SplineSet
170 1470 m 1,0,-1
 396 1470 l 1,1,-1
 420 602 l 2,2,3
 420 454 420 454 416 236 c 1,4,-1
 426 236 l 1,5,6
 482 402 482 402 554 602 c 2,7,-1
 886 1470 l 1,8,-1
 1106 1470 l 1,9,-1
 1152 602 l 2,10,11
 1160 410 1160 410 1160 236 c 1,12,-1
 1170 236 l 1,13,14
 1186 280 1186 280 1229 411 c 128,-1,15
 1272 542 1272 542 1290 602 c 2,16,-1
 1600 1470 l 1,17,-1
 1826 1470 l 1,18,-1
 1254 0 l 1,19,-1
 1010 0 l 1,20,-1
 964 856 l 1,21,22
 958 1136 958 1136 958 1204 c 1,23,-1
 948 1204 l 1,24,25
 928 1136 928 1136 881 1008 c 128,-1,26
 834 880 834 880 826 856 c 2,27,-1
 500 0 l 1,28,-1
 258 0 l 1,29,-1
 170 1470 l 1,0,-1
EndSplineSet
EndChar

StartChar: X
Encoding: 88 88 59
Width: 1182
GlyphClass: 2
Flags: W
LayerCount: 2
Fore
SplineSet
-92 0 m 1,0,-1
 498 754 l 1,1,-1
 172 1470 l 1,2,-1
 428 1470 l 1,3,-1
 558 1138 l 2,4,5
 574 1102 574 1102 603 1029 c 128,-1,6
 632 956 632 956 648 918 c 1,7,-1
 656 918 l 1,8,9
 682 956 682 956 736 1029 c 128,-1,10
 790 1102 790 1102 816 1138 c 2,11,-1
 1056 1470 l 1,12,-1
 1312 1470 l 1,13,-1
 750 754 l 1,14,-1
 1092 0 l 1,15,-1
 842 0 l 1,16,-1
 696 352 l 2,17,18
 678 392 678 392 645 475 c 128,-1,19
 612 558 612 558 600 586 c 1,20,-1
 592 586 l 1,21,22
 528 500 528 500 420 352 c 2,23,-1
 158 0 l 1,24,-1
 -92 0 l 1,0,-1
EndSplineSet
EndChar

StartChar: Y
Encoding: 89 89 60
Width: 1208
GlyphClass: 2
Flags: W
LayerCount: 2
Fore
SplineSet
144 1470 m 1,0,-1
 390 1470 l 1,1,-1
 548 1032 l 2,2,3
 602 886 602 886 636 780 c 1,4,-1
 642 780 l 1,5,6
 670 816 670 816 698 858 c 128,-1,7
 726 900 726 900 761 951 c 128,-1,8
 796 1002 796 1002 814 1032 c 2,9,-1
 1116 1470 l 1,10,-1
 1364 1470 l 1,11,-1
 718 600 l 1,12,-1
 618 0 l 1,13,-1
 404 0 l 1,14,-1
 504 600 l 1,15,-1
 144 1470 l 1,0,-1
EndSplineSet
EndChar

StartChar: Z
Encoding: 90 90 61
Width: 1174
GlyphClass: 2
Flags: W
LayerCount: 2
Fore
SplineSet
-2 158 m 1,0,-1
 952 1284 l 1,1,-1
 242 1284 l 1,2,-1
 274 1470 l 1,3,-1
 1246 1470 l 1,4,-1
 1220 1310 l 1,5,-1
 262 186 l 1,6,-1
 1050 186 l 1,7,-1
 1020 0 l 1,8,-1
 -28 0 l 1,9,-1
 -2 158 l 1,0,-1
EndSplineSet
EndChar

StartChar: bracketleft
Encoding: 91 91 62
Width: 838
GlyphClass: 2
Flags: W
LayerCount: 2
Fore
SplineSet
104 -244 m 1,0,-1
 418 1656 l 1,1,-1
 864 1656 l 1,2,-1
 836 1486 l 1,3,-1
 596 1486 l 1,4,-1
 338 -74 l 1,5,-1
 578 -74 l 1,6,-1
 548 -244 l 1,7,-1
 104 -244 l 1,0,-1
EndSplineSet
EndChar

StartChar: backslash
Encoding: 92 92 63
Width: 686
GlyphClass: 2
Flags: W
LayerCount: 2
Fore
SplineSet
140 1564 m 1,0,-1
 352 1564 l 1,1,-1
 604 -108 l 1,2,-1
 390 -108 l 1,3,-1
 140 1564 l 1,0,-1
EndSplineSet
EndChar

StartChar: bracketright
Encoding: 93 93 64
Width: 838
GlyphClass: 2
Flags: W
LayerCount: 2
Fore
SplineSet
50 -74 m 1,0,-1
 290 -74 l 1,1,-1
 548 1486 l 1,2,-1
 308 1486 l 1,3,-1
 336 1656 l 1,4,-1
 782 1656 l 1,5,-1
 468 -244 l 1,6,-1
 22 -244 l 1,7,-1
 50 -74 l 1,0,-1
EndSplineSet
EndChar

StartChar: asciicircum
Encoding: 94 94 65
Width: 1014
GlyphClass: 2
Flags: W
LayerCount: 2
Fore
SplineSet
82 930 m 1,0,-1
 586 1618 l 1,1,-1
 778 1618 l 1,2,-1
 1054 930 l 1,3,-1
 840 930 l 1,4,-1
 698 1324 l 1,5,-1
 654 1452 l 1,6,-1
 294 930 l 1,7,-1
 82 930 l 1,0,-1
EndSplineSet
EndChar

StartChar: underscore
Encoding: 95 95 66
Width: 928
GlyphClass: 2
Flags: W
LayerCount: 2
Fore
SplineSet
-86 -22 m 1,0,-1
 826 -22 l 1,1,-1
 798 -192 l 1,2,-1
 -114 -192 l 1,3,-1
 -86 -22 l 1,0,-1
EndSplineSet
EndChar

StartChar: grave
Encoding: 96 96 67
Width: 632
GlyphClass: 2
Flags: W
LayerCount: 2
Fore
SplineSet
400 1046 m 1,0,-1
 244 1638 l 1,1,-1
 494 1638 l 1,2,-1
 566 1046 l 1,3,-1
 400 1046 l 1,0,-1
EndSplineSet
EndChar

StartChar: a
Encoding: 97 97 68
Width: 1030
GlyphClass: 2
Flags: W
LayerCount: 2
Fore
SplineSet
218 292 m 0,0,1
 208 228 208 228 249 184 c 128,-1,2
 290 140 290 140 374 140 c 0,3,4
 490 140 490 140 584 219 c 128,-1,5
 678 298 678 298 698 424 c 2,6,-1
 718 540 l 1,7,8
 632 518 632 518 494 496 c 0,9,10
 366 474 366 474 299 425 c 128,-1,11
 232 376 232 376 218 292 c 0,0,1
16 274 m 0,12,13
 66 574 66 574 504 644 c 0,14,15
 686 672 686 672 744 690 c 1,16,-1
 752 750 l 2,17,18
 766 834 766 834 717 884 c 128,-1,19
 668 934 668 934 568 934 c 0,20,21
 394 934 394 934 248 786 c 1,22,-1
 144 894 l 1,23,24
 238 992 238 992 355 1047 c 128,-1,25
 472 1102 472 1102 592 1102 c 0,26,27
 1006 1102 1006 1102 936 670 c 2,28,-1
 824 0 l 1,29,-1
 634 0 l 1,30,-1
 658 148 l 1,31,32
 616 74 616 74 523 20 c 128,-1,33
 430 -34 430 -34 318 -34 c 0,34,35
 154 -34 154 -34 74 52 c 128,-1,36
 -6 138 -6 138 16 274 c 0,12,13
EndSplineSet
Substitution2: "Single Substitution lookup 12 subtable" ordfeminine
EndChar

StartChar: b
Encoding: 98 98 69
Width: 1098
GlyphClass: 2
Flags: W
LayerCount: 2
Fore
SplineSet
42 0 m 1,0,-1
 294 1522 l 1,1,-1
 488 1522 l 1,2,-1
 390 926 l 1,3,4
 438 996 438 996 517 1049 c 128,-1,5
 596 1102 596 1102 694 1102 c 0,6,7
 880 1102 880 1102 976 950 c 128,-1,8
 1072 798 1072 798 1028 536 c 0,9,10
 1004 388 1004 388 945 273 c 128,-1,11
 886 158 886 158 812 94 c 128,-1,12
 738 30 738 30 659 -2 c 128,-1,13
 580 -34 580 -34 506 -34 c 0,14,15
 412 -34 412 -34 346 21 c 128,-1,16
 280 76 280 76 258 154 c 1,17,-1
 232 0 l 1,18,-1
 42 0 l 1,0,-1
322 536 m 0,19,20
 292 354 292 354 345 248 c 128,-1,21
 398 142 398 142 506 142 c 0,22,23
 618 142 618 142 707 245 c 128,-1,24
 796 348 796 348 826 536 c 0,25,26
 856 716 856 716 804 820 c 128,-1,27
 752 924 752 924 636 924 c 0,28,29
 526 924 526 924 439 818 c 128,-1,30
 352 712 352 712 322 536 c 0,19,20
EndSplineSet
EndChar

StartChar: c
Encoding: 99 99 70
Width: 966
GlyphClass: 2
Flags: W
LayerCount: 2
Fore
SplineSet
62 534 m 0,0,1
 104 790 104 790 256 946 c 128,-1,2
 408 1102 408 1102 616 1102 c 0,3,4
 764 1102 764 1102 848 1010 c 128,-1,5
 932 918 932 918 942 796 c 1,6,-1
 768 748 l 1,7,8
 756 822 756 822 710 873 c 128,-1,9
 664 924 664 924 588 924 c 0,10,11
 466 924 466 924 378 813 c 128,-1,12
 290 702 290 702 262 534 c 0,13,14
 232 350 232 350 288 246 c 128,-1,15
 344 142 344 142 458 142 c 0,16,17
 538 142 538 142 612 200 c 128,-1,18
 686 258 686 258 724 332 c 1,19,-1
 882 282 l 1,20,21
 828 156 828 156 702 61 c 128,-1,22
 576 -34 576 -34 428 -34 c 0,23,24
 222 -34 222 -34 120 120 c 128,-1,25
 18 274 18 274 62 534 c 0,0,1
EndSplineSet
EndChar

StartChar: d
Encoding: 100 100 71
Width: 1098
GlyphClass: 2
Flags: W
LayerCount: 2
Fore
SplineSet
62 536 m 0,0,1
 106 798 106 798 252 950 c 128,-1,2
 398 1102 398 1102 584 1102 c 0,3,4
 678 1102 678 1102 742 1049 c 128,-1,5
 806 996 806 996 828 926 c 1,6,-1
 926 1522 l 1,7,-1
 1122 1522 l 1,8,-1
 870 0 l 1,9,-1
 680 0 l 1,10,-1
 706 156 l 1,11,12
 658 76 658 76 574 21 c 128,-1,13
 490 -34 490 -34 396 -34 c 0,14,15
 316 -34 316 -34 249 -2 c 128,-1,16
 182 30 182 30 130 94 c 128,-1,17
 78 158 78 158 58 273 c 128,-1,18
 38 388 38 388 62 536 c 0,0,1
262 536 m 0,19,20
 232 352 232 352 285 247 c 128,-1,21
 338 142 338 142 450 142 c 0,22,23
 558 142 558 142 647 248 c 128,-1,24
 736 354 736 354 766 536 c 0,25,26
 796 712 796 712 743 818 c 128,-1,27
 690 924 690 924 580 924 c 0,28,29
 462 924 462 924 377 818 c 128,-1,30
 292 712 292 712 262 536 c 0,19,20
EndSplineSet
EndChar

StartChar: e
Encoding: 101 101 72
Width: 1048
GlyphClass: 2
Flags: W
LayerCount: 2
Fore
SplineSet
62 540 m 0,0,1
 104 792 104 792 261 947 c 128,-1,2
 418 1102 418 1102 622 1102 c 256,3,4
 824 1102 824 1102 924 948 c 128,-1,5
 1024 794 1024 794 984 552 c 0,6,7
 984 548 984 548 964 464 c 1,8,-1
 248 464 l 1,9,10
 226 330 226 330 283 233 c 128,-1,11
 340 136 340 136 470 136 c 0,12,13
 560 136 560 136 636 182 c 128,-1,14
 712 228 712 228 760 298 c 1,15,-1
 914 240 l 1,16,17
 846 122 846 122 725 44 c 128,-1,18
 604 -34 604 -34 442 -34 c 0,19,20
 230 -34 230 -34 124 122 c 128,-1,21
 18 278 18 278 62 540 c 0,0,1
276 612 m 1,22,-1
 794 612 l 1,23,24
 816 748 816 748 763 840 c 128,-1,25
 710 932 710 932 592 932 c 0,26,27
 470 932 470 932 386 838 c 128,-1,28
 302 744 302 744 276 612 c 1,22,-1
EndSplineSet
EndChar

StartChar: f
Encoding: 102 102 73
Width: 646
GlyphClass: 2
Flags: W
LayerCount: 2
Fore
SplineSet
96 890 m 1,0,-1
 124 1066 l 1,1,-1
 286 1066 l 1,2,-1
 308 1198 l 2,3,4
 334 1360 334 1360 423 1441 c 128,-1,5
 512 1522 512 1522 650 1522 c 2,6,-1
 802 1522 l 1,7,-1
 772 1346 l 1,8,-1
 650 1346 l 2,9,10
 528 1346 528 1346 500 1182 c 2,11,-1
 482 1066 l 1,12,-1
 702 1066 l 1,13,-1
 672 890 l 1,14,-1
 452 890 l 1,15,-1
 304 0 l 1,16,-1
 110 0 l 1,17,-1
 256 890 l 1,18,-1
 96 890 l 1,0,-1
EndSplineSet
EndChar

StartChar: g
Encoding: 103 103 74
Width: 1068
GlyphClass: 2
Flags: W
LayerCount: 2
Fore
SplineSet
268 554 m 0,0,1
 240 382 240 382 289 284 c 128,-1,2
 338 186 338 186 446 186 c 0,3,4
 556 186 556 186 637 281 c 128,-1,5
 718 376 718 376 746 554 c 0,6,7
 774 728 774 728 725 826 c 128,-1,8
 676 924 676 924 572 924 c 0,9,10
 462 924 462 924 379 822 c 128,-1,11
 296 720 296 720 268 554 c 0,0,1
68 552 m 0,12,13
 110 802 110 802 252 952 c 128,-1,14
 394 1102 394 1102 576 1102 c 0,15,16
 676 1102 676 1102 735 1048 c 128,-1,17
 794 994 794 994 810 926 c 1,18,-1
 834 1066 l 1,19,-1
 1028 1066 l 1,20,-1
 874 140 l 2,21,22
 824 -162 824 -162 692 -307 c 128,-1,23
 560 -452 560 -452 332 -452 c 0,24,25
 78 -452 78 -452 -24 -252 c 1,26,-1
 124 -156 l 1,27,28
 210 -286 210 -286 364 -286 c 0,29,30
 470 -286 470 -286 552 -197 c 128,-1,31
 634 -108 634 -108 662 36 c 0,32,33
 666 58 666 58 674 104 c 128,-1,34
 682 150 682 150 684 166 c 1,35,36
 636 96 636 96 561 52 c 128,-1,37
 486 8 486 8 402 8 c 0,38,39
 210 8 210 8 119 158 c 128,-1,40
 28 308 28 308 68 552 c 0,12,13
EndSplineSet
EndChar

StartChar: h
Encoding: 104 104 75
Width: 1058
GlyphClass: 2
Flags: W
LayerCount: 2
Fore
SplineSet
42 0 m 1,0,-1
 294 1522 l 1,1,-1
 488 1522 l 1,2,-1
 392 938 l 1,3,-1
 396 938 l 1,4,5
 446 1008 446 1008 528 1055 c 128,-1,6
 610 1102 610 1102 698 1102 c 0,7,8
 848 1102 848 1102 924 1004 c 128,-1,9
 1000 906 1000 906 964 686 c 2,10,-1
 850 0 l 1,11,-1
 656 0 l 1,12,-1
 764 658 l 2,13,14
 808 924 808 924 634 924 c 0,15,16
 534 924 534 924 446 833 c 128,-1,17
 358 742 358 742 338 616 c 2,18,-1
 236 0 l 1,19,-1
 42 0 l 1,0,-1
EndSplineSet
Substitution2: "'sups' Superscript lookup 5 subtable" uni02B0
Substitution2: "'aalt' Access All Alternates lookup 0 subtable" uni02B0
EndChar

StartChar: i
Encoding: 105 105 76
Width: 494
GlyphClass: 2
Flags: W
LayerCount: 2
Fore
SplineSet
252 1252 m 1,0,-1
 290 1490 l 1,1,-1
 510 1490 l 1,2,-1
 470 1252 l 1,3,-1
 252 1252 l 1,0,-1
58 0 m 1,4,-1
 234 1066 l 1,5,-1
 428 1066 l 1,6,-1
 252 0 l 1,7,-1
 58 0 l 1,4,-1
EndSplineSet
EndChar

StartChar: j
Encoding: 106 106 77
Width: 512
GlyphClass: 2
Flags: W
LayerCount: 2
Fore
SplineSet
266 1252 m 1,0,-1
 306 1490 l 1,1,-1
 530 1490 l 1,2,-1
 490 1252 l 1,3,-1
 266 1252 l 1,0,-1
-154 -252 m 1,4,-1
 -118 -252 l 2,5,6
 32 -252 32 -252 68 -32 c 2,7,-1
 250 1066 l 1,8,-1
 444 1066 l 1,9,-1
 260 -42 l 2,10,11
 228 -232 228 -232 132 -331 c 128,-1,12
 36 -430 36 -430 -116 -430 c 2,13,-1
 -184 -430 l 1,14,-1
 -154 -252 l 1,4,-1
EndSplineSet
Substitution2: "'sups' Superscript lookup 5 subtable" uni02B2
Substitution2: "'aalt' Access All Alternates lookup 0 subtable" uni02B2
EndChar

StartChar: k
Encoding: 107 107 78
Width: 982
GlyphClass: 2
Flags: W
LayerCount: 2
Fore
SplineSet
44 0 m 1,0,-1
 296 1522 l 1,1,-1
 492 1522 l 1,2,-1
 340 608 l 1,3,-1
 800 1066 l 1,4,-1
 1052 1066 l 1,5,-1
 614 636 l 1,6,-1
 906 0 l 1,7,-1
 672 0 l 1,8,-1
 462 490 l 1,9,-1
 294 326 l 1,10,-1
 240 0 l 1,11,-1
 44 0 l 1,0,-1
EndSplineSet
EndChar

StartChar: l
Encoding: 108 108 79
Width: 482
GlyphClass: 2
Flags: W
LayerCount: 2
Fore
SplineSet
50 0 m 1,0,-1
 302 1522 l 1,1,-1
 500 1522 l 1,2,-1
 248 0 l 1,3,-1
 50 0 l 1,0,-1
EndSplineSet
Substitution2: "'sups' Superscript lookup 5 subtable" uni02E1
Substitution2: "'aalt' Access All Alternates lookup 0 subtable" uni02E1
EndChar

StartChar: m
Encoding: 109 109 80
Width: 1562
GlyphClass: 2
Flags: W
LayerCount: 2
Fore
SplineSet
32 0 m 1,0,-1
 208 1066 l 1,1,-1
 398 1066 l 1,2,-1
 376 930 l 1,3,4
 412 992 412 992 491 1047 c 128,-1,5
 570 1102 570 1102 670 1102 c 0,6,7
 842 1102 842 1102 886 894 c 1,8,9
 900 920 900 920 926 949 c 128,-1,10
 952 978 952 978 995 1015 c 128,-1,11
 1038 1052 1038 1052 1100 1077 c 128,-1,12
 1162 1102 1162 1102 1232 1102 c 0,13,14
 1538 1102 1538 1102 1468 686 c 2,15,-1
 1356 0 l 1,16,-1
 1156 0 l 1,17,-1
 1268 678 l 2,18,19
 1288 800 1288 800 1267 862 c 128,-1,20
 1246 924 1246 924 1160 924 c 0,21,22
 1064 924 1064 924 989 840 c 128,-1,23
 914 756 914 756 894 632 c 2,24,-1
 790 0 l 1,25,-1
 596 0 l 1,26,-1
 708 682 l 2,27,28
 748 924 748 924 596 924 c 0,29,30
 496 924 496 924 426 845 c 128,-1,31
 356 766 356 766 334 638 c 2,32,-1
 228 0 l 1,33,-1
 32 0 l 1,0,-1
EndSplineSet
EndChar

StartChar: n
Encoding: 110 110 81
Width: 1050
GlyphClass: 2
Flags: W
LayerCount: 2
Fore
SplineSet
32 0 m 1,0,-1
 208 1066 l 1,1,-1
 398 1066 l 1,2,-1
 374 918 l 1,3,-1
 376 918 l 1,4,5
 412 982 412 982 499 1042 c 128,-1,6
 586 1102 586 1102 700 1102 c 0,7,8
 848 1102 848 1102 920 1005 c 128,-1,9
 992 908 992 908 956 686 c 2,10,-1
 842 0 l 1,11,-1
 646 0 l 1,12,-1
 756 658 l 2,13,14
 800 924 800 924 628 924 c 0,15,16
 526 924 526 924 439 836 c 128,-1,17
 352 748 352 748 332 622 c 2,18,-1
 228 0 l 1,19,-1
 32 0 l 1,0,-1
EndSplineSet
Substitution2: "'sups' Superscript lookup 5 subtable" uni207F
Substitution2: "'aalt' Access All Alternates lookup 0 subtable" uni207F
EndChar

StartChar: o
Encoding: 111 111 82
Width: 1054
GlyphClass: 2
Flags: W
LayerCount: 2
Fore
SplineSet
262 534 m 256,0,1
 230 342 230 342 290 242 c 128,-1,2
 350 142 350 142 458 142 c 0,3,4
 564 142 564 142 659 242 c 128,-1,5
 754 342 754 342 786 534 c 256,6,7
 818 726 818 726 756 825 c 128,-1,8
 694 924 694 924 588 924 c 256,9,10
 482 924 482 924 388 825 c 128,-1,11
 294 726 294 726 262 534 c 256,0,1
62 534 m 0,12,13
 88 688 88 688 156 813 c 128,-1,14
 224 938 224 938 345 1020 c 128,-1,15
 466 1102 466 1102 618 1102 c 0,16,17
 842 1102 842 1102 933 938 c 128,-1,18
 1024 774 1024 774 984 534 c 0,19,20
 968 436 968 436 929 342 c 128,-1,21
 890 248 890 248 825 161 c 128,-1,22
 760 74 760 74 657 20 c 128,-1,23
 554 -34 554 -34 430 -34 c 256,24,25
 306 -34 306 -34 220 18 c 128,-1,26
 134 70 134 70 97 156 c 128,-1,27
 60 242 60 242 53 337 c 128,-1,28
 46 432 46 432 62 534 c 0,12,13
EndSplineSet
Substitution2: "Single Substitution lookup 12 subtable" ordmasculine
EndChar

StartChar: p
Encoding: 112 112 83
Width: 1098
GlyphClass: 2
Flags: W
LayerCount: 2
Fore
SplineSet
322 536 m 0,0,1
 292 358 292 358 341 250 c 128,-1,2
 390 142 390 142 506 142 c 0,3,4
 618 142 618 142 707 247 c 128,-1,5
 796 352 796 352 826 536 c 0,6,7
 856 712 856 712 806 818 c 128,-1,8
 756 924 756 924 636 924 c 0,9,10
 522 924 522 924 436 816 c 128,-1,11
 350 708 350 708 322 536 c 0,0,1
-32 -444 m 1,12,-1
 218 1066 l 1,13,-1
 406 1066 l 1,14,-1
 380 912 l 1,15,16
 434 996 434 996 515 1049 c 128,-1,17
 596 1102 596 1102 694 1102 c 0,18,19
 878 1102 878 1102 974 948 c 128,-1,20
 1070 794 1070 794 1028 536 c 0,21,22
 1004 392 1004 392 946 278 c 128,-1,23
 888 164 888 164 815 98 c 128,-1,24
 742 32 742 32 662 -1 c 128,-1,25
 582 -34 582 -34 506 -34 c 0,26,27
 404 -34 404 -34 342 18 c 128,-1,28
 280 70 280 70 260 144 c 1,29,-1
 162 -444 l 1,30,-1
 -32 -444 l 1,12,-1
EndSplineSet
EndChar

StartChar: q
Encoding: 113 113 84
Width: 1094
GlyphClass: 2
Flags: W
LayerCount: 2
Fore
SplineSet
262 536 m 0,0,1
 232 352 232 352 285 247 c 128,-1,2
 338 142 338 142 448 142 c 0,3,4
 562 142 562 142 649 250 c 128,-1,5
 736 358 736 358 764 536 c 0,6,7
 792 708 792 708 743 816 c 128,-1,8
 694 924 694 924 578 924 c 0,9,10
 456 924 456 924 373 816 c 128,-1,11
 290 708 290 708 262 536 c 0,0,1
62 536 m 0,12,13
 104 794 104 794 250 948 c 128,-1,14
 396 1102 396 1102 582 1102 c 0,15,16
 674 1102 674 1102 739 1049 c 128,-1,17
 804 996 804 996 832 912 c 1,18,-1
 858 1066 l 1,19,-1
 1046 1066 l 1,20,-1
 796 -444 l 1,21,-1
 600 -444 l 1,22,-1
 698 144 l 1,23,24
 652 68 652 68 571 17 c 128,-1,25
 490 -34 490 -34 394 -34 c 0,26,27
 314 -34 314 -34 247 -1 c 128,-1,28
 180 32 180 32 128 97 c 128,-1,29
 76 162 76 162 57 276 c 128,-1,30
 38 390 38 390 62 536 c 0,12,13
EndSplineSet
EndChar

StartChar: r
Encoding: 114 114 85
Width: 698
GlyphClass: 2
Flags: W
LayerCount: 2
Fore
SplineSet
32 0 m 1,0,-1
 208 1066 l 1,1,-1
 394 1066 l 1,2,-1
 372 938 l 1,3,4
 412 1000 412 1000 488 1051 c 128,-1,5
 564 1102 564 1102 658 1102 c 0,6,7
 740 1102 740 1102 790 1076 c 1,8,-1
 758 886 l 1,9,10
 702 910 702 910 626 910 c 0,11,12
 506 910 506 910 427 814 c 128,-1,13
 348 718 348 718 322 560 c 2,14,-1
 228 0 l 1,15,-1
 32 0 l 1,0,-1
EndSplineSet
Substitution2: "'sups' Superscript lookup 5 subtable" uni02B3
Substitution2: "'aalt' Access All Alternates lookup 0 subtable" uni02B3
EndChar

StartChar: s
Encoding: 115 115 86
Width: 930
GlyphClass: 2
Flags: W
LayerCount: 2
Fore
SplineSet
-8 220 m 1,0,-1
 150 306 l 1,1,2
 232 136 232 136 404 136 c 0,3,4
 496 136 496 136 557 175 c 128,-1,5
 618 214 618 214 628 278 c 0,6,7
 642 362 642 362 534 414 c 0,8,9
 500 434 500 434 372 476 c 0,10,11
 314 498 314 498 272 520 c 128,-1,12
 230 542 230 542 189 578 c 128,-1,13
 148 614 148 614 131 669 c 128,-1,14
 114 724 114 724 126 794 c 0,15,16
 148 932 148 932 272 1017 c 128,-1,17
 396 1102 396 1102 564 1102 c 0,18,19
 686 1102 686 1102 782 1032 c 128,-1,20
 878 962 878 962 914 858 c 1,21,-1
 770 774 l 1,22,23
 694 930 694 930 536 930 c 0,24,25
 444 930 444 930 389 892 c 128,-1,26
 334 854 334 854 324 790 c 0,27,28
 318 756 318 756 331 728 c 128,-1,29
 344 700 344 700 360 683 c 128,-1,30
 376 666 376 666 418 646 c 128,-1,31
 460 626 460 626 482 619 c 128,-1,32
 504 612 504 612 556 592 c 0,33,34
 864 486 864 486 828 276 c 0,35,36
 806 146 806 146 687 56 c 128,-1,37
 568 -34 568 -34 378 -34 c 0,38,39
 236 -34 236 -34 135 34 c 128,-1,40
 34 102 34 102 -8 220 c 1,0,-1
EndSplineSet
Substitution2: "'hist' Historical Forms lookup 11 subtable" longs
Substitution2: "'sups' Superscript lookup 5 subtable" uni02E2
AlternateSubs2: "'aalt' Access All Alternates lookup 1 subtable" uni02E2 longs
EndChar

StartChar: t
Encoding: 116 116 87
Width: 684
GlyphClass: 2
Flags: W
LayerCount: 2
Fore
SplineSet
86 890 m 1,0,-1
 116 1066 l 1,1,-1
 278 1066 l 1,2,-1
 332 1390 l 1,3,-1
 528 1390 l 1,4,-1
 474 1066 l 1,5,-1
 718 1066 l 1,6,-1
 688 890 l 1,7,-1
 446 890 l 1,8,-1
 352 332 l 2,9,10
 338 250 338 250 364 214 c 128,-1,11
 390 178 390 178 454 178 c 2,12,-1
 570 178 l 1,13,-1
 540 0 l 1,14,-1
 400 0 l 2,15,16
 102 0 102 0 154 318 c 2,17,-1
 250 890 l 1,18,-1
 86 890 l 1,0,-1
EndSplineSet
EndChar

StartChar: u
Encoding: 117 117 88
Width: 1044
GlyphClass: 2
Flags: W
LayerCount: 2
Fore
SplineSet
82 382 m 2,0,-1
 196 1066 l 1,1,-1
 392 1066 l 1,2,-1
 284 414 l 2,3,4
 238 142 238 142 424 142 c 0,5,6
 536 142 536 142 612 237 c 128,-1,7
 688 332 688 332 710 466 c 2,8,-1
 808 1066 l 1,9,-1
 1002 1066 l 1,10,-1
 826 0 l 1,11,-1
 640 0 l 1,12,-1
 664 140 l 1,13,-1
 660 140 l 1,14,15
 626 78 626 78 546 22 c 128,-1,16
 466 -34 466 -34 350 -34 c 0,17,18
 212 -34 212 -34 129 64 c 128,-1,19
 46 162 46 162 82 382 c 2,0,-1
EndSplineSet
EndChar

StartChar: v
Encoding: 118 118 89
Width: 972
GlyphClass: 2
Flags: W
LayerCount: 2
Fore
SplineSet
98 1066 m 1,0,-1
 314 1066 l 1,1,-1
 392 480 l 1,2,3
 414 254 414 254 420 178 c 1,4,-1
 424 178 l 1,5,6
 446 228 446 228 492 333 c 128,-1,7
 538 438 538 438 556 480 c 2,8,-1
 826 1066 l 1,9,-1
 1044 1066 l 1,10,-1
 508 0 l 1,11,-1
 280 0 l 1,12,-1
 98 1066 l 1,0,-1
EndSplineSet
EndChar

StartChar: w
Encoding: 119 119 90
Width: 1386
GlyphClass: 2
Flags: W
LayerCount: 2
Fore
SplineSet
98 1066 m 1,0,-1
 312 1066 l 1,1,-1
 336 490 l 2,2,3
 340 362 340 362 342 200 c 1,4,-1
 348 200 l 1,5,6
 388 316 388 316 452 490 c 2,7,-1
 670 1066 l 1,8,-1
 886 1066 l 1,9,-1
 912 484 l 2,10,11
 914 458 914 458 918 359 c 128,-1,12
 922 260 922 260 920 200 c 1,13,-1
 928 200 l 1,14,15
 970 320 970 320 1032 490 c 2,16,-1
 1244 1066 l 1,17,-1
 1460 1066 l 1,18,-1
 1008 0 l 1,19,-1
 780 0 l 1,20,-1
 750 558 l 2,21,22
 744 800 744 800 744 842 c 1,23,-1
 736 842 l 1,24,25
 652 604 652 604 638 558 c 2,26,-1
 424 0 l 1,27,-1
 196 0 l 1,28,-1
 98 1066 l 1,0,-1
EndSplineSet
Substitution2: "'sups' Superscript lookup 5 subtable" uni02B7
Substitution2: "'aalt' Access All Alternates lookup 0 subtable" uni02B7
EndChar

StartChar: x
Encoding: 120 120 91
Width: 978
GlyphClass: 2
Flags: W
LayerCount: 2
Fore
SplineSet
-84 0 m 1,0,-1
 368 548 l 1,1,-1
 108 1066 l 1,2,-1
 348 1066 l 1,3,-1
 454 822 l 2,4,5
 462 798 462 798 480 756 c 128,-1,6
 498 714 498 714 504 694 c 1,7,-1
 510 694 l 1,8,9
 522 712 522 712 604 822 c 2,10,-1
 788 1066 l 1,11,-1
 1028 1066 l 1,12,-1
 600 548 l 1,13,-1
 872 0 l 1,14,-1
 638 0 l 1,15,-1
 520 276 l 2,16,17
 492 338 492 338 462 404 c 1,18,-1
 456 404 l 1,19,20
 408 334 408 334 362 276 c 2,21,-1
 150 0 l 1,22,-1
 -84 0 l 1,0,-1
EndSplineSet
Substitution2: "'sups' Superscript lookup 5 subtable" uni02E3
Substitution2: "'aalt' Access All Alternates lookup 0 subtable" uni02E3
EndChar

StartChar: y
Encoding: 121 121 92
Width: 970
GlyphClass: 2
Flags: W
LayerCount: 2
Fore
SplineSet
96 1066 m 1,0,-1
 316 1066 l 1,1,-1
 406 494 l 2,2,3
 430 336 430 336 438 240 c 1,4,-1
 442 240 l 1,5,6
 466 292 466 292 506 382 c 128,-1,7
 546 472 546 472 558 494 c 2,8,-1
 824 1066 l 1,9,-1
 1042 1066 l 1,10,-1
 414 -152 l 2,11,12
 330 -314 330 -314 236 -379 c 128,-1,13
 142 -444 142 -444 16 -444 c 2,14,-1
 -48 -444 l 1,15,-1
 -20 -272 l 1,16,-1
 14 -272 l 2,17,18
 90 -272 90 -272 146 -233 c 128,-1,19
 202 -194 202 -194 252 -98 c 2,20,-1
 304 14 l 1,21,-1
 96 1066 l 1,0,-1
EndSplineSet
Substitution2: "'sups' Superscript lookup 5 subtable" uni02B8
Substitution2: "'aalt' Access All Alternates lookup 0 subtable" uni02B8
EndChar

StartChar: z
Encoding: 122 122 93
Width: 914
GlyphClass: 2
Flags: W
LayerCount: 2
Fore
SplineSet
-46 0 m 1,0,-1
 -24 138 l 1,1,-1
 646 890 l 1,2,-1
 146 890 l 1,3,-1
 176 1066 l 1,4,-1
 934 1066 l 1,5,-1
 912 936 l 1,6,-1
 238 176 l 1,7,-1
 806 176 l 1,8,-1
 776 0 l 1,9,-1
 -46 0 l 1,0,-1
EndSplineSet
EndChar

StartChar: braceleft
Encoding: 123 123 94
Width: 850
GlyphClass: 2
Flags: W
LayerCount: 2
Fore
SplineSet
120 620 m 1,0,-1
 146 782 l 1,1,-1
 206 782 l 2,2,3
 258 782 258 782 298 842 c 128,-1,4
 338 902 338 902 358 1014 c 2,5,-1
 418 1382 l 2,6,7
 440 1514 440 1514 524 1585 c 128,-1,8
 608 1656 608 1656 724 1656 c 2,9,-1
 884 1656 l 1,10,-1
 854 1486 l 1,11,-1
 734 1486 l 2,12,13
 692 1486 692 1486 661 1451 c 128,-1,14
 630 1416 630 1416 620 1358 c 2,15,-1
 558 986 l 2,16,17
 526 794 526 794 370 702 c 1,18,19
 498 624 498 624 468 434 c 2,20,-1
 406 60 l 2,21,22
 394 -8 394 -8 415 -41 c 128,-1,23
 436 -74 436 -74 480 -74 c 2,24,-1
 596 -74 l 1,25,-1
 568 -244 l 1,26,-1
 410 -244 l 2,27,28
 296 -244 296 -244 234 -177 c 128,-1,29
 172 -110 172 -110 194 26 c 2,30,-1
 256 404 l 2,31,32
 272 500 272 500 252 560 c 128,-1,33
 232 620 232 620 178 620 c 2,34,-1
 120 620 l 1,0,-1
EndSplineSet
EndChar

StartChar: bar
Encoding: 124 124 95
Width: 532
GlyphClass: 2
Flags: W
LayerCount: 2
Fore
SplineSet
18 -318 m 1,0,-1
 358 1724 l 1,1,-1
 562 1724 l 1,2,-1
 224 -318 l 1,3,-1
 18 -318 l 1,0,-1
EndSplineSet
EndChar

StartChar: braceright
Encoding: 125 125 96
Width: 850
GlyphClass: 2
Flags: W
LayerCount: 2
Fore
SplineSet
40 -74 m 1,0,-1
 160 -74 l 2,1,2
 254 -74 254 -74 278 60 c 2,3,-1
 340 434 l 2,4,5
 370 616 370 616 524 702 c 1,6,7
 466 746 466 746 439 808 c 128,-1,8
 412 870 412 870 430 986 c 2,9,-1
 492 1358 l 2,10,11
 502 1418 502 1418 483 1452 c 128,-1,12
 464 1486 464 1486 424 1486 c 2,13,-1
 298 1486 l 1,14,-1
 326 1656 l 1,15,-1
 488 1656 l 2,16,17
 602 1656 602 1656 663 1585 c 128,-1,18
 724 1514 724 1514 702 1382 c 2,19,-1
 640 1014 l 2,20,21
 622 902 622 902 643 842 c 128,-1,22
 664 782 664 782 718 782 c 2,23,-1
 776 782 l 1,24,-1
 750 620 l 1,25,-1
 692 620 l 2,26,27
 636 620 636 620 596 559 c 128,-1,28
 556 498 556 498 540 404 c 2,29,-1
 478 26 l 2,30,31
 456 -110 456 -110 371 -177 c 128,-1,32
 286 -244 286 -244 174 -244 c 2,33,-1
 12 -244 l 1,34,-1
 40 -74 l 1,0,-1
EndSplineSet
EndChar

StartChar: asciitilde
Encoding: 126 126 97
Width: 1508
GlyphClass: 2
Flags: W
LayerCount: 2
Fore
SplineSet
124 606 m 1,0,1
 308 930 308 930 582 930 c 0,2,3
 658 930 658 930 723 890 c 128,-1,4
 788 850 788 850 824 802 c 128,-1,5
 860 754 860 754 908 714 c 128,-1,6
 956 674 956 674 1006 674 c 0,7,8
 1054 674 1054 674 1098 694 c 128,-1,9
 1142 714 1142 714 1176 755 c 128,-1,10
 1210 796 1210 796 1226 820 c 128,-1,11
 1242 844 1242 844 1270 892 c 1,12,-1
 1430 812 l 1,13,14
 1248 486 1248 486 980 486 c 0,15,16
 902 486 902 486 836 526 c 128,-1,17
 770 566 770 566 733 614 c 128,-1,18
 696 662 696 662 648 702 c 128,-1,19
 600 742 600 742 550 742 c 0,20,21
 410 742 410 742 286 524 c 1,22,-1
 124 606 l 1,0,1
EndSplineSet
EndChar

StartChar: exclamdown
Encoding: 161 161 99
Width: 584
GlyphClass: 2
Flags: W
LayerCount: 2
Fore
SplineSet
14 -410 m 1,0,-1
 210 646 l 1,1,-1
 404 646 l 1,2,-1
 246 -410 l 1,3,-1
 14 -410 l 1,0,-1
190 812 m 1,4,-1
 234 1074 l 1,5,-1
 520 1074 l 1,6,-1
 476 812 l 1,7,-1
 190 812 l 1,4,-1
EndSplineSet
EndChar

StartChar: cent
Encoding: 162 162 100
Width: 992
GlyphClass: 2
Flags: W
LayerCount: 2
Fore
SplineSet
62 534 m 0,0,1
 98 748 98 748 223 903 c 128,-1,2
 348 1058 348 1058 532 1088 c 1,3,-1
 558 1242 l 1,4,-1
 742 1242 l 1,5,-1
 716 1090 l 1,6,7
 832 1064 832 1064 896 979 c 128,-1,8
 960 894 960 894 972 796 c 1,9,-1
 792 748 l 1,10,11
 774 822 774 822 730 873 c 128,-1,12
 686 924 686 924 610 924 c 0,13,14
 480 924 480 924 390 813 c 128,-1,15
 300 702 300 702 272 534 c 0,16,17
 242 356 242 356 298 250 c 128,-1,18
 354 144 354 144 478 144 c 0,19,20
 558 144 558 144 632 200 c 128,-1,21
 706 256 706 256 746 332 c 1,22,-1
 912 282 l 1,23,24
 864 178 864 178 765 92 c 128,-1,25
 666 6 666 6 532 -24 c 1,26,-1
 504 -190 l 1,27,-1
 320 -190 l 1,28,-1
 348 -22 l 1,29,30
 184 6 184 6 104 154 c 128,-1,31
 24 302 24 302 62 534 c 0,0,1
EndSplineSet
EndChar

StartChar: sterling
Encoding: 163 163 101
Width: 1160
GlyphClass: 2
Flags: W
LayerCount: 2
Fore
SplineSet
82 634 m 1,0,-1
 114 820 l 1,1,-1
 320 820 l 1,2,-1
 372 1128 l 2,3,4
 402 1310 402 1310 535 1407 c 128,-1,5
 668 1504 668 1504 864 1504 c 0,6,7
 996 1504 996 1504 1082 1435 c 128,-1,8
 1168 1366 1168 1366 1198 1276 c 1,9,-1
 1032 1192 l 1,10,11
 968 1316 968 1316 834 1316 c 0,12,13
 736 1316 736 1316 667 1263 c 128,-1,14
 598 1210 598 1210 580 1106 c 2,15,-1
 532 820 l 1,16,-1
 942 820 l 1,17,-1
 912 634 l 1,18,-1
 502 634 l 1,19,-1
 468 434 l 2,20,21
 440 268 440 268 364 200 c 1,22,23
 448 216 448 216 492 216 c 0,24,25
 548 216 548 216 637 184 c 128,-1,26
 726 152 726 152 792 152 c 0,27,28
 920 152 920 152 1032 210 c 1,29,-1
 1060 34 l 1,30,31
 900 -34 900 -34 760 -34 c 0,32,33
 696 -34 696 -34 577 -1 c 128,-1,34
 458 32 458 32 396 32 c 0,35,36
 330 32 330 32 236 19 c 128,-1,37
 142 6 142 6 82 -10 c 2,38,-1
 18 -22 l 1,39,-1
 -6 130 l 1,40,41
 216 184 216 184 256 422 c 2,42,-1
 290 634 l 1,43,-1
 82 634 l 1,0,-1
EndSplineSet
EndChar

StartChar: currency
Encoding: 164 164 102
Width: 1264
GlyphClass: 2
Flags: W
LayerCount: 2
Fore
SplineSet
-2 296 m 1,0,-1
 244 498 l 1,1,2
 190 592 190 592 212 730 c 0,3,4
 236 872 236 872 318 964 c 1,5,-1
 142 1166 l 1,6,-1
 304 1304 l 1,7,-1
 476 1102 l 1,8,9
 606 1178 606 1178 734 1178 c 256,10,11
 864 1178 864 1178 970 1102 c 1,12,-1
 1204 1302 l 1,13,-1
 1322 1166 l 1,14,-1
 1078 964 l 1,15,16
 1132 868 1132 868 1110 730 c 256,17,18
 1088 592 1088 592 1000 498 c 1,19,-1
 1178 296 l 1,20,-1
 1016 158 l 1,21,-1
 846 360 l 1,22,23
 720 282 720 282 586 282 c 0,24,25
 450 282 450 282 352 360 c 1,26,-1
 116 160 l 1,27,-1
 -2 296 l 1,0,-1
398 730 m 256,28,29
 380 622 380 622 442 544 c 128,-1,30
 504 466 504 466 616 466 c 0,31,32
 732 466 732 466 818 543 c 128,-1,33
 904 620 904 620 924 730 c 0,34,35
 942 842 942 842 880 919 c 128,-1,36
 818 996 818 996 704 996 c 256,37,38
 590 996 590 996 503 917 c 128,-1,39
 416 838 416 838 398 730 c 256,28,29
EndSplineSet
EndChar

StartChar: yen
Encoding: 165 165 103
Width: 1206
GlyphClass: 2
Flags: W
LayerCount: 2
Fore
SplineSet
144 1470 m 1,0,-1
 390 1470 l 1,1,-1
 550 1118 l 2,2,3
 636 912 636 912 650 870 c 1,4,-1
 656 870 l 1,5,-1
 842 1118 l 1,6,-1
 1116 1470 l 1,7,-1
 1364 1470 l 1,8,-1
 844 830 l 1,9,-1
 1130 830 l 1,10,-1
 1104 676 l 1,11,-1
 728 676 l 1,12,-1
 694 472 l 1,13,-1
 1070 472 l 1,14,-1
 1044 316 l 1,15,-1
 668 316 l 1,16,-1
 616 0 l 1,17,-1
 404 0 l 1,18,-1
 456 316 l 1,19,-1
 78 316 l 1,20,-1
 104 472 l 1,21,-1
 482 472 l 1,22,-1
 516 676 l 1,23,-1
 138 676 l 1,24,-1
 164 830 l 1,25,-1
 452 830 l 1,26,-1
 144 1470 l 1,0,-1
EndSplineSet
EndChar

StartChar: brokenbar
Encoding: 166 166 104
Width: 532
GlyphClass: 2
Flags: W
LayerCount: 2
Fore
SplineSet
222 914 m 1,0,-1
 358 1724 l 1,1,-1
 562 1724 l 1,2,-1
 428 914 l 1,3,-1
 222 914 l 1,0,-1
18 -318 m 1,4,-1
 152 490 l 1,5,-1
 358 490 l 1,6,-1
 224 -318 l 1,7,-1
 18 -318 l 1,4,-1
EndSplineSet
EndChar

StartChar: section
Encoding: 167 167 105
Width: 1068
GlyphClass: 2
Flags: W
LayerCount: 2
Fore
SplineSet
2 102 m 1,0,-1
 160 208 l 1,1,2
 238 74 238 74 414 74 c 0,3,4
 612 74 612 74 632 190 c 0,5,6
 638 230 638 230 615 257 c 128,-1,7
 592 284 592 284 536 312 c 2,8,-1
 344 408 l 2,9,10
 106 526 106 526 138 716 c 0,11,12
 164 868 164 868 354 996 c 1,13,14
 252 1090 252 1090 272 1206 c 0,15,16
 294 1340 294 1340 412 1422 c 128,-1,17
 530 1504 530 1504 736 1504 c 0,18,19
 996 1504 996 1504 1110 1300 c 1,20,-1
 960 1192 l 1,21,22
 866 1322 866 1322 702 1322 c 0,23,24
 604 1322 604 1322 550 1290 c 128,-1,25
 496 1258 496 1258 488 1206 c 0,26,27
 484 1184 484 1184 487 1167 c 128,-1,28
 490 1150 490 1150 504 1134 c 128,-1,29
 518 1118 518 1118 531 1106 c 128,-1,30
 544 1094 544 1094 571 1078 c 128,-1,31
 598 1062 598 1062 617 1053 c 128,-1,32
 636 1044 636 1044 672 1026 c 128,-1,33
 708 1008 708 1008 728 998 c 0,34,35
 880 920 880 920 924 874 c 0,36,37
 1020 784 1020 784 998 648 c 0,38,39
 972 492 972 492 802 370 c 1,40,41
 860 298 860 298 842 190 c 0,42,43
 820 52 820 52 706 -28 c 128,-1,44
 592 -108 592 -108 384 -108 c 0,45,46
 246 -108 246 -108 144 -46 c 128,-1,47
 42 16 42 16 2 102 c 1,0,-1
354 722 m 0,48,49
 344 660 344 660 374 627 c 128,-1,50
 404 594 404 594 486 550 c 2,51,-1
 654 466 l 1,52,53
 770 556 770 556 786 648 c 0,54,55
 796 704 796 704 760 741 c 128,-1,56
 724 778 724 778 644 822 c 2,57,-1
 498 902 l 1,58,59
 370 816 370 816 354 722 c 0,48,49
EndSplineSet
EndChar

StartChar: dieresis
Encoding: 168 168 106
Width: 956
GlyphClass: 2
Flags: W
LayerCount: 2
Fore
SplineSet
284 1228 m 1,0,-1
 324 1470 l 1,1,-1
 560 1470 l 1,2,-1
 520 1228 l 1,3,-1
 284 1228 l 1,0,-1
660 1228 m 1,4,-1
 700 1470 l 1,5,-1
 934 1470 l 1,6,-1
 894 1228 l 1,7,-1
 660 1228 l 1,4,-1
EndSplineSet
EndChar

StartChar: copyright
Encoding: 169 169 107
Width: 1674
GlyphClass: 2
Flags: W
LayerCount: 2
Fore
SplineSet
494 744 m 0,0,1
 530 962 530 962 660 1087 c 128,-1,2
 790 1212 790 1212 970 1212 c 0,3,4
 1096 1212 1096 1212 1163 1141 c 128,-1,5
 1230 1070 1230 1070 1248 964 c 1,6,-1
 1096 918 l 1,7,8
 1052 1058 1052 1058 944 1058 c 0,9,10
 838 1058 838 1058 766 975 c 128,-1,11
 694 892 694 892 670 744 c 0,12,13
 644 590 644 590 691 511 c 128,-1,14
 738 432 738 432 840 432 c 0,15,16
 910 432 910 432 967 476 c 128,-1,17
 1024 520 1024 520 1056 582 c 1,18,-1
 1198 538 l 1,19,20
 1148 430 1148 430 1047 354 c 128,-1,21
 946 278 946 278 812 278 c 0,22,23
 636 278 636 278 547 401 c 128,-1,24
 458 524 458 524 494 744 c 0,0,1
102 746 m 256,25,26
 160 1102 160 1102 414 1320 c 128,-1,27
 668 1538 668 1538 998 1538 c 0,28,29
 1334 1538 1334 1538 1513 1318 c 128,-1,30
 1692 1098 1692 1098 1634 746 c 0,31,32
 1576 398 1576 398 1323 175 c 128,-1,33
 1070 -48 1070 -48 736 -48 c 0,34,35
 406 -48 406 -48 225 171 c 128,-1,36
 44 390 44 390 102 746 c 256,25,26
254 746 m 256,37,38
 206 452 206 452 345 271 c 128,-1,39
 484 90 484 90 758 90 c 0,40,41
 1026 90 1026 90 1229 267 c 128,-1,42
 1432 444 1432 444 1482 746 c 0,43,44
 1532 1042 1532 1042 1390 1221 c 128,-1,45
 1248 1400 1248 1400 974 1400 c 256,46,47
 702 1400 702 1400 502 1220 c 128,-1,48
 302 1040 302 1040 254 746 c 256,37,38
EndSplineSet
EndChar

StartChar: ordfeminine
Encoding: 170 170 108
Width: 748
GlyphClass: 2
Flags: W
LayerCount: 2
Fore
SplineSet
64 600 m 1,0,-1
 86 734 l 1,1,-1
 718 734 l 1,2,-1
 696 600 l 1,3,-1
 64 600 l 1,0,-1
284 1080 m 0,4,5
 276 1036 276 1036 305 1006 c 128,-1,6
 334 976 334 976 392 976 c 0,7,8
 474 976 474 976 541 1030 c 128,-1,9
 608 1084 608 1084 622 1172 c 2,10,-1
 634 1248 l 1,11,12
 604 1242 604 1242 543 1232 c 128,-1,13
 482 1222 482 1222 449 1214 c 128,-1,14
 416 1206 416 1206 375 1190 c 128,-1,15
 334 1174 334 1174 312 1147 c 128,-1,16
 290 1120 290 1120 284 1080 c 0,4,5
130 1066 m 0,17,18
 142 1140 142 1140 185 1191 c 128,-1,19
 228 1242 228 1242 293 1270 c 128,-1,20
 358 1298 358 1298 416 1312 c 128,-1,21
 474 1326 474 1326 549 1337 c 128,-1,22
 624 1348 624 1348 652 1358 c 1,23,-1
 660 1398 l 2,24,25
 670 1456 670 1456 633 1490 c 128,-1,26
 596 1524 596 1524 528 1524 c 0,27,28
 462 1524 462 1524 399 1490 c 128,-1,29
 336 1456 336 1456 298 1418 c 1,30,-1
 220 1498 l 1,31,32
 272 1554 272 1554 361 1599 c 128,-1,33
 450 1644 450 1644 544 1644 c 0,34,35
 844 1644 844 1644 794 1342 c 2,36,-1
 718 874 l 1,37,-1
 576 874 l 1,38,-1
 592 966 l 1,39,40
 502 852 502 852 354 852 c 0,41,42
 232 852 232 852 173 911 c 128,-1,43
 114 970 114 970 130 1066 c 0,17,18
EndSplineSet
EndChar

StartChar: guillemotleft
Encoding: 171 171 109
Width: 968
GlyphClass: 2
Flags: W
LayerCount: 2
Fore
SplineSet
62 520 m 1,0,-1
 460 996 l 1,1,-1
 590 896 l 1,2,-1
 278 520 l 1,3,-1
 464 148 l 1,4,-1
 302 42 l 1,5,-1
 62 520 l 1,0,-1
436 520 m 1,6,-1
 830 978 l 1,7,-1
 956 866 l 1,8,-1
 656 520 l 1,9,-1
 840 170 l 1,10,-1
 680 62 l 1,11,-1
 436 520 l 1,6,-1
EndSplineSet
EndChar

StartChar: logicalnot
Encoding: 172 172 110
Width: 1068
GlyphClass: 2
Flags: W
LayerCount: 2
Fore
SplineSet
92 604 m 1,0,-1
 122 788 l 1,1,-1
 1024 788 l 1,2,-1
 932 240 l 1,3,-1
 738 240 l 1,4,-1
 800 604 l 1,5,-1
 92 604 l 1,0,-1
EndSplineSet
EndChar

StartChar: uni00AD
Encoding: 173 173 111
Width: 1084
GlyphClass: 2
Flags: W
LayerCount: 2
Fore
SplineSet
114 640 m 1,0,-1
 144 822 l 1,1,-1
 1024 822 l 1,2,-1
 994 640 l 1,3,-1
 114 640 l 1,0,-1
EndSplineSet
EndChar

StartChar: registered
Encoding: 174 174 112
Width: 1674
GlyphClass: 2
Flags: W
LayerCount: 2
Fore
SplineSet
500 290 m 1,0,-1
 648 1190 l 1,1,-1
 1004 1190 l 2,2,3
 1136 1190 1136 1190 1195 1113 c 128,-1,4
 1254 1036 1254 1036 1236 926 c 0,5,6
 1212 776 1212 776 1080 710 c 1,7,8
 1110 680 1110 680 1121 644 c 128,-1,9
 1132 608 1132 608 1136 548 c 0,10,11
 1140 436 1140 436 1194 290 c 1,12,-1
 1000 290 l 1,13,14
 960 376 960 376 956 532 c 0,15,16
 954 566 954 566 952 579 c 128,-1,17
 950 592 950 592 945 613 c 128,-1,18
 940 634 940 634 927 642 c 128,-1,19
 914 650 914 650 888 650 c 2,20,-1
 734 650 l 1,21,-1
 674 290 l 1,22,-1
 500 290 l 1,0,-1
756 788 m 1,23,-1
 912 788 l 2,24,25
 972 788 972 788 1011 822 c 128,-1,26
 1050 856 1050 856 1058 912 c 0,27,28
 1066 962 1066 962 1039 997 c 128,-1,29
 1012 1032 1012 1032 954 1032 c 2,30,-1
 796 1032 l 1,31,-1
 756 788 l 1,23,-1
102 748 m 0,32,33
 160 1102 160 1102 414 1320 c 128,-1,34
 668 1538 668 1538 998 1538 c 0,35,36
 1336 1538 1336 1538 1514 1319 c 128,-1,37
 1692 1100 1692 1100 1634 748 c 0,38,39
 1576 400 1576 400 1324 176 c 128,-1,40
 1072 -48 1072 -48 736 -48 c 0,41,42
 408 -48 408 -48 226 172 c 128,-1,43
 44 392 44 392 102 748 c 0,32,33
254 748 m 0,44,45
 204 450 204 450 342 273 c 128,-1,46
 480 96 480 96 760 96 c 0,47,48
 1032 96 1032 96 1232 272 c 128,-1,49
 1432 448 1432 448 1482 748 c 0,50,51
 1532 1046 1532 1046 1388 1220 c 128,-1,52
 1244 1394 1244 1394 974 1394 c 0,53,54
 700 1394 700 1394 501 1218 c 128,-1,55
 302 1042 302 1042 254 748 c 0,44,45
EndSplineSet
EndChar

StartChar: macron
Encoding: 175 175 113
Width: 974
GlyphClass: 2
Flags: W
LayerCount: 2
Fore
SplineSet
144 1416 m 1,0,-1
 174 1598 l 1,1,-1
 1144 1598 l 1,2,-1
 1114 1416 l 1,3,-1
 144 1416 l 1,0,-1
EndSplineSet
EndChar

StartChar: degree
Encoding: 176 176 114
Width: 812
GlyphClass: 2
Flags: W
LayerCount: 2
Fore
SplineSet
258 1226 m 0,0,1
 276 1332 276 1332 362 1408 c 128,-1,2
 448 1484 448 1484 560 1484 c 0,3,4
 668 1484 668 1484 729 1411 c 128,-1,5
 790 1338 790 1338 772 1226 c 0,6,7
 754 1116 754 1116 667 1042 c 128,-1,8
 580 968 580 968 474 968 c 0,9,10
 366 968 366 968 303 1043 c 128,-1,11
 240 1118 240 1118 258 1226 c 0,0,1
392 1226 m 0,12,13
 384 1172 384 1172 412 1135 c 128,-1,14
 440 1098 440 1098 496 1098 c 0,15,16
 546 1098 546 1098 588 1135 c 128,-1,17
 630 1172 630 1172 638 1226 c 0,18,19
 646 1278 646 1278 618 1315 c 128,-1,20
 590 1352 590 1352 538 1352 c 0,21,22
 482 1352 482 1352 441 1314 c 128,-1,23
 400 1276 400 1276 392 1226 c 0,12,13
EndSplineSet
EndChar

StartChar: plusminus
Encoding: 177 177 115
Width: 1090
GlyphClass: 2
Flags: W
LayerCount: 2
Fore
SplineSet
114 800 m 1,0,-1
 144 982 l 1,1,-1
 512 982 l 1,2,-1
 566 1312 l 1,3,-1
 770 1312 l 1,4,-1
 716 982 l 1,5,-1
 1084 982 l 1,6,-1
 1054 800 l 1,7,-1
 686 800 l 1,8,-1
 632 472 l 1,9,-1
 428 472 l 1,10,-1
 482 800 l 1,11,-1
 114 800 l 1,0,-1
10 170 m 1,12,-1
 40 350 l 1,13,-1
 978 350 l 1,14,-1
 948 170 l 1,15,-1
 10 170 l 1,12,-1
EndSplineSet
EndChar

StartChar: twosuperior
Encoding: 178 178 116
Width: 632
GlyphClass: 2
Flags: W
LayerCount: 2
Fore
SplineSet
186 1402 m 1,0,1
 278 1642 278 1642 496 1642 c 0,2,3
 610 1642 610 1642 670 1576 c 128,-1,4
 730 1510 730 1510 712 1394 c 0,5,6
 692 1272 692 1272 540 1136 c 0,7,8
 518 1116 518 1116 475 1079 c 128,-1,9
 432 1042 432 1042 404 1019 c 128,-1,10
 376 996 376 996 344 961 c 128,-1,11
 312 926 312 926 290 894 c 1,12,-1
 626 894 l 1,13,-1
 606 768 l 1,14,-1
 88 768 l 1,15,16
 108 884 108 884 179 971 c 128,-1,17
 250 1058 250 1058 438 1216 c 0,18,19
 546 1306 546 1306 562 1394 c 0,20,21
 572 1452 572 1452 547 1483 c 128,-1,22
 522 1514 522 1514 472 1514 c 256,23,24
 424 1514 424 1514 385 1483 c 128,-1,25
 346 1452 346 1452 334 1427 c 128,-1,26
 322 1402 322 1402 306 1364 c 1,27,-1
 186 1402 l 1,0,1
EndSplineSet
EndChar

StartChar: threesuperior
Encoding: 179 179 117
Width: 634
GlyphClass: 2
Flags: W
LayerCount: 2
Fore
SplineSet
94 950 m 1,0,-1
 222 996 l 1,1,2
 258 876 258 876 358 876 c 0,3,4
 416 876 416 876 463 912 c 128,-1,5
 510 948 510 948 520 1016 c 0,6,7
 530 1076 530 1076 492 1113 c 128,-1,8
 454 1150 454 1150 386 1150 c 0,9,10
 358 1150 358 1150 304 1146 c 1,11,-1
 324 1276 l 1,12,13
 386 1274 386 1274 404 1274 c 0,14,15
 458 1274 458 1274 501 1306 c 128,-1,16
 544 1338 544 1338 554 1398 c 0,17,18
 562 1450 562 1450 537 1483 c 128,-1,19
 512 1516 512 1516 460 1516 c 0,20,21
 374 1516 374 1516 310 1390 c 1,22,-1
 194 1430 l 1,23,24
 288 1642 288 1642 488 1642 c 0,25,26
 606 1642 606 1642 664 1577 c 128,-1,27
 722 1512 722 1512 706 1412 c 0,28,29
 686 1288 686 1288 574 1222 c 1,30,31
 696 1162 696 1162 672 1016 c 0,32,33
 652 892 652 892 561 820 c 128,-1,34
 470 748 470 748 340 748 c 0,35,36
 240 748 240 748 174 802 c 128,-1,37
 108 856 108 856 94 950 c 1,0,-1
EndSplineSet
EndChar

StartChar: acute
Encoding: 180 180 118
Width: 698
GlyphClass: 2
Flags: W
LayerCount: 2
Fore
SplineSet
264 1298 m 1,0,-1
 532 1646 l 1,1,-1
 784 1646 l 1,2,-1
 440 1298 l 1,3,-1
 264 1298 l 1,0,-1
EndSplineSet
EndChar

StartChar: uni00B5
Encoding: 181 181 119
Width: 1062
GlyphClass: 2
Flags: W
LayerCount: 2
Fore
SplineSet
-32 -446 m 1,0,-1
 218 1066 l 1,1,-1
 414 1066 l 1,2,-1
 306 414 l 2,3,4
 262 144 262 144 442 144 c 0,5,6
 556 144 556 144 631 240 c 128,-1,7
 706 336 706 336 728 468 c 2,8,-1
 826 1066 l 1,9,-1
 1024 1066 l 1,10,-1
 848 0 l 1,11,-1
 660 0 l 1,12,-1
 682 136 l 1,13,-1
 680 136 l 1,14,15
 646 68 646 68 563 17 c 128,-1,16
 480 -34 480 -34 376 -34 c 0,17,18
 284 -34 284 -34 244 36 c 1,19,-1
 164 -446 l 1,20,-1
 -32 -446 l 1,0,-1
EndSplineSet
EndChar

StartChar: paragraph
Encoding: 182 182 120
Width: 1218
GlyphClass: 2
Flags: W
LayerCount: 2
Fore
SplineSet
184 1094 m 0,0,1
 218 1294 218 1294 342 1417 c 128,-1,2
 466 1540 466 1540 660 1540 c 2,3,-1
 1232 1540 l 1,4,-1
 952 -144 l 1,5,-1
 782 -144 l 1,6,-1
 1030 1348 l 1,7,-1
 866 1348 l 1,8,-1
 620 -144 l 1,9,-1
 450 -144 l 1,10,-1
 582 646 l 1,11,12
 530 632 530 632 482 632 c 0,13,14
 324 632 324 632 235 751 c 128,-1,15
 146 870 146 870 184 1094 c 0,0,1
EndSplineSet
EndChar

StartChar: periodcentered
Encoding: 183 183 121
Width: 648
GlyphClass: 2
Flags: W
LayerCount: 2
Fore
SplineSet
182 572 m 1,0,-1
 228 840 l 1,1,-1
 512 840 l 1,2,-1
 466 572 l 1,3,-1
 182 572 l 1,0,-1
EndSplineSet
EndChar

StartChar: cedilla
Encoding: 184 184 122
Width: 584
GlyphClass: 2
Flags: W
LayerCount: 2
Fore
SplineSet
-62 -288 m 1,0,1
 4 -304 4 -304 58 -304 c 0,2,3
 168 -304 168 -304 178 -242 c 0,4,5
 190 -166 190 -166 14 -154 c 1,6,-1
 154 62 l 1,7,-1
 336 62 l 1,8,-1
 256 -58 l 1,9,10
 390 -104 390 -104 368 -244 c 0,11,12
 354 -332 354 -332 278 -393 c 128,-1,13
 202 -454 202 -454 48 -454 c 0,14,15
 -32 -454 -32 -454 -86 -438 c 1,16,-1
 -62 -288 l 1,0,1
EndSplineSet
EndChar

StartChar: onesuperior
Encoding: 185 185 123
Width: 618
GlyphClass: 2
Flags: W
LayerCount: 2
Fore
SplineSet
216 1372 m 1,0,-1
 236 1490 l 1,1,-1
 288 1490 l 2,2,3
 438 1490 438 1490 456 1600 c 2,4,-1
 462 1636 l 1,5,-1
 594 1636 l 1,6,-1
 450 768 l 1,7,-1
 302 768 l 1,8,-1
 402 1372 l 1,9,-1
 216 1372 l 1,0,-1
EndSplineSet
EndChar

StartChar: ordmasculine
Encoding: 186 186 124
Width: 758
GlyphClass: 2
Flags: W
LayerCount: 2
Fore
SplineSet
306 1246 m 0,0,1
 284 1114 284 1114 328 1047 c 128,-1,2
 372 980 372 980 446 980 c 256,3,4
 520 980 520 980 587 1048 c 128,-1,5
 654 1116 654 1116 676 1246 c 0,6,7
 698 1380 698 1380 654 1448 c 128,-1,8
 610 1516 610 1516 536 1516 c 256,9,10
 462 1516 462 1516 395 1448 c 128,-1,11
 328 1380 328 1380 306 1246 c 0,0,1
158 1246 m 0,12,13
 186 1416 186 1416 290 1530 c 128,-1,14
 394 1644 394 1644 556 1644 c 0,15,16
 716 1644 716 1644 785 1530 c 128,-1,17
 854 1416 854 1416 826 1246 c 0,18,19
 814 1178 814 1178 787 1113 c 128,-1,20
 760 1048 760 1048 713 987 c 128,-1,21
 666 926 666 926 591 889 c 128,-1,22
 516 852 516 852 426 852 c 256,23,24
 336 852 336 852 273 888 c 128,-1,25
 210 924 210 924 185 984 c 128,-1,26
 160 1044 160 1044 153 1109 c 128,-1,27
 146 1174 146 1174 158 1246 c 0,12,13
66 608 m 1,28,-1
 88 742 l 1,29,-1
 728 742 l 1,30,-1
 704 608 l 1,31,-1
 66 608 l 1,28,-1
EndSplineSet
EndChar

StartChar: guillemotright
Encoding: 187 187 125
Width: 968
GlyphClass: 2
Flags: W
LayerCount: 2
Fore
SplineSet
114 866 m 1,0,-1
 278 978 l 1,1,-1
 520 520 l 1,2,-1
 126 62 l 1,3,-1
 2 170 l 1,4,-1
 302 520 l 1,5,-1
 114 866 l 1,0,-1
370 150 m 1,6,-1
 676 520 l 1,7,-1
 490 896 l 1,8,-1
 658 996 l 1,9,-1
 896 520 l 1,10,-1
 500 42 l 1,11,-1
 370 150 l 1,6,-1
EndSplineSet
EndChar

StartChar: onequarter
Encoding: 188 188 126
Width: 1884
GlyphClass: 3
Flags: W
LayerCount: 2
Fore
SplineSet
1216 274 m 1,0,-1
 1424 274 l 1,1,-1
 1462 512 l 2,2,3
 1464 530 1464 530 1472 569 c 128,-1,4
 1480 608 1480 608 1482 616 c 1,5,-1
 1216 274 l 1,0,-1
242 1274 m 1,6,-1
 266 1422 l 1,7,-1
 328 1422 l 2,8,9
 494 1422 494 1422 514 1538 c 2,10,-1
 522 1586 l 1,11,-1
 684 1586 l 1,12,-1
 518 584 l 1,13,-1
 334 584 l 1,14,-1
 448 1274 l 1,15,-1
 242 1274 l 1,6,-1
200 -102 m 1,16,-1
 1404 1564 l 1,17,-1
 1596 1564 l 1,18,-1
 398 -102 l 1,19,-1
 200 -102 l 1,16,-1
1024 258 m 1,20,-1
 1554 912 l 1,21,-1
 1708 912 l 1,22,-1
 1602 274 l 1,23,-1
 1722 274 l 1,24,-1
 1696 116 l 1,25,-1
 1576 116 l 1,26,-1
 1540 -94 l 1,27,-1
 1362 -94 l 1,28,-1
 1398 116 l 1,29,-1
 1002 116 l 1,30,-1
 1024 258 l 1,20,-1
EndSplineSet
Ligature2: "'frac' Diagonal Fractions lookup 7 subtable" one fraction four
Ligature2: "'frac' Diagonal Fractions lookup 7 subtable" one slash four
EndChar

StartChar: onehalf
Encoding: 189 189 127
Width: 1880
GlyphClass: 3
Flags: W
LayerCount: 2
Fore
SplineSet
1124 632 m 1,0,1
 1138 666 1138 666 1148 687 c 128,-1,2
 1158 708 1158 708 1190 757 c 128,-1,3
 1222 806 1222 806 1256 835 c 128,-1,4
 1290 864 1290 864 1352 890 c 128,-1,5
 1414 916 1414 916 1484 916 c 0,6,7
 1616 916 1616 916 1688 837 c 128,-1,8
 1760 758 1760 758 1738 626 c 0,9,10
 1724 536 1724 536 1669 464 c 128,-1,11
 1614 392 1614 392 1516 308 c 0,12,13
 1436 242 1436 242 1401 212 c 128,-1,14
 1366 182 1366 182 1326 141 c 128,-1,15
 1286 100 1286 100 1262 66 c 1,16,-1
 1642 66 l 1,17,-1
 1616 -90 l 1,18,-1
 1016 -90 l 1,19,20
 1038 40 1038 40 1115 140 c 128,-1,21
 1192 240 1192 240 1422 430 c 0,22,23
 1538 524 1538 524 1554 628 c 0,24,25
 1564 690 1564 690 1539 724 c 128,-1,26
 1514 758 1514 758 1456 758 c 0,27,28
 1422 758 1422 758 1394 743 c 128,-1,29
 1366 728 1366 728 1348 712 c 128,-1,30
 1330 696 1330 696 1311 664 c 128,-1,31
 1292 632 1292 632 1289 622 c 128,-1,32
 1286 612 1286 612 1274 584 c 1,33,-1
 1124 632 l 1,0,1
242 1274 m 1,34,-1
 266 1422 l 1,35,-1
 328 1422 l 2,36,37
 494 1422 494 1422 514 1538 c 2,38,-1
 522 1586 l 1,39,-1
 684 1586 l 1,40,-1
 518 584 l 1,41,-1
 334 584 l 1,42,-1
 448 1274 l 1,43,-1
 242 1274 l 1,34,-1
182 -102 m 1,44,-1
 1390 1564 l 1,45,-1
 1582 1564 l 1,46,-1
 380 -102 l 1,47,-1
 182 -102 l 1,44,-1
EndSplineSet
Ligature2: "'frac' Diagonal Fractions lookup 7 subtable" one fraction two
Ligature2: "'frac' Diagonal Fractions lookup 7 subtable" one slash two
EndChar

StartChar: threequarters
Encoding: 190 190 128
Width: 1886
GlyphClass: 3
Flags: W
LayerCount: 2
Fore
SplineSet
144 816 m 1,0,-1
 300 872 l 1,1,2
 310 846 310 846 317 828 c 128,-1,3
 324 810 324 810 340 785 c 128,-1,4
 356 760 356 760 385 748 c 128,-1,5
 414 736 414 736 452 736 c 0,6,7
 516 736 516 736 565 774 c 128,-1,8
 614 812 614 812 628 888 c 0,9,10
 638 954 638 954 598 994 c 128,-1,11
 558 1034 558 1034 482 1034 c 0,12,13
 452 1034 452 1034 380 1030 c 1,14,-1
 408 1192 l 1,15,16
 446 1188 446 1188 504 1188 c 256,17,18
 562 1188 562 1188 609 1223 c 128,-1,19
 656 1258 656 1258 666 1322 c 0,20,21
 676 1378 676 1378 647 1414 c 128,-1,22
 618 1450 618 1450 566 1450 c 0,23,24
 524 1450 524 1450 490 1426 c 128,-1,25
 456 1402 456 1402 438 1376 c 128,-1,26
 420 1350 420 1350 398 1308 c 1,27,-1
 254 1354 l 1,28,29
 306 1478 306 1478 399 1542 c 128,-1,30
 492 1606 492 1606 598 1606 c 0,31,32
 734 1606 734 1606 803 1529 c 128,-1,33
 872 1452 872 1452 852 1336 c 0,34,35
 830 1204 830 1204 710 1124 c 1,36,37
 840 1046 840 1046 814 888 c 0,38,39
 790 744 790 744 684 660 c 128,-1,40
 578 576 578 576 426 576 c 0,41,42
 324 576 324 576 245 631 c 128,-1,43
 166 686 166 686 144 816 c 1,0,-1
1040 256 m 1,44,-1
 1570 912 l 1,45,-1
 1722 912 l 1,46,-1
 1616 274 l 1,47,-1
 1734 274 l 1,48,-1
 1708 116 l 1,49,-1
 1590 116 l 1,50,-1
 1554 -94 l 1,51,-1
 1374 -94 l 1,52,-1
 1408 116 l 1,53,-1
 1016 116 l 1,54,-1
 1040 256 l 1,44,-1
1230 274 m 1,55,-1
 1436 274 l 1,56,-1
 1474 508 l 2,57,58
 1476 524 1476 524 1484 566 c 128,-1,59
 1492 608 1492 608 1494 616 c 1,60,-1
 1422 518 l 1,61,-1
 1230 274 l 1,55,-1
320 -102 m 1,62,-1
 1534 1564 l 1,63,-1
 1728 1564 l 1,64,-1
 518 -102 l 1,65,-1
 320 -102 l 1,62,-1
EndSplineSet
Ligature2: "'frac' Diagonal Fractions lookup 7 subtable" three fraction four
Ligature2: "'frac' Diagonal Fractions lookup 7 subtable" three slash four
EndChar

StartChar: questiondown
Encoding: 191 191 129
Width: 1090
GlyphClass: 2
Flags: W
LayerCount: 2
Fore
SplineSet
18 -34 m 0,0,1
 32 56 32 56 79 127 c 128,-1,2
 126 198 126 198 183 247 c 128,-1,3
 240 296 240 296 298 343 c 128,-1,4
 356 390 356 390 401 455 c 128,-1,5
 446 520 446 520 460 602 c 2,6,-1
 468 656 l 1,7,-1
 680 656 l 1,8,-1
 668 584 l 2,9,10
 652 490 652 490 606 414 c 128,-1,11
 560 338 560 338 504 289 c 128,-1,12
 448 240 448 240 392 195 c 128,-1,13
 336 150 336 150 292 90 c 128,-1,14
 248 30 248 30 236 -42 c 0,15,16
 220 -142 220 -142 263 -201 c 128,-1,17
 306 -260 306 -260 398 -260 c 0,18,19
 570 -260 570 -260 694 -36 c 1,20,-1
 870 -100 l 1,21,22
 798 -252 798 -252 666 -348 c 128,-1,23
 534 -444 534 -444 370 -444 c 0,24,25
 184 -444 184 -444 86 -332 c 128,-1,26
 -12 -220 -12 -220 18 -34 c 0,0,1
456 812 m 1,27,-1
 500 1074 l 1,28,-1
 786 1074 l 1,29,-1
 742 812 l 1,30,-1
 456 812 l 1,27,-1
EndSplineSet
EndChar

StartChar: AE
Encoding: 198 198 136
Width: 1858
GlyphClass: 2
Flags: W
LayerCount: 2
Fore
SplineSet
510 558 m 1,0,-1
 910 558 l 1,1,-1
 1028 1266 l 1,2,-1
 1010 1266 l 1,3,-1
 510 558 l 1,0,-1
-102 0 m 1,4,-1
 936 1470 l 1,5,-1
 1930 1470 l 1,6,-1
 1900 1286 l 1,7,-1
 1240 1286 l 1,8,-1
 1168 852 l 1,9,-1
 1758 852 l 1,10,-1
 1728 668 l 1,11,-1
 1128 668 l 1,12,-1
 1048 184 l 1,13,-1
 1736 184 l 1,14,-1
 1706 0 l 1,15,-1
 818 0 l 1,16,-1
 882 382 l 1,17,-1
 392 382 l 1,18,-1
 126 0 l 1,19,-1
 -102 0 l 1,4,-1
EndSplineSet
EndChar

StartChar: Eth
Encoding: 208 208 146
Width: 1336
GlyphClass: 2
Flags: W
LayerCount: 2
Fore
SplineSet
80 0 m 1,0,-1
 188 658 l 1,1,-1
 34 658 l 1,2,-1
 62 832 l 1,3,-1
 216 832 l 1,4,-1
 322 1470 l 1,5,-1
 738 1470 l 2,6,7
 1060 1470 1060 1470 1206 1281 c 128,-1,8
 1352 1092 1352 1092 1292 734 c 0,9,10
 1266 576 1266 576 1206 447 c 128,-1,11
 1146 318 1146 318 1050 216 c 128,-1,12
 954 114 954 114 812 57 c 128,-1,13
 670 0 670 0 490 0 c 2,14,-1
 80 0 l 1,0,-1
322 184 m 1,15,-1
 498 184 l 2,16,17
 980 184 980 184 1070 734 c 0,18,19
 1162 1286 1162 1286 682 1286 c 2,20,-1
 504 1286 l 1,21,-1
 428 832 l 1,22,-1
 796 832 l 1,23,-1
 768 658 l 1,24,-1
 400 658 l 1,25,-1
 322 184 l 1,15,-1
EndSplineSet
EndChar

StartChar: multiply
Encoding: 215 215 153
Width: 1080
GlyphClass: 2
Flags: W
LayerCount: 2
Fore
SplineSet
42 398 m 1,0,-1
 442 728 l 1,1,-1
 152 1062 l 1,2,-1
 306 1192 l 1,3,-1
 586 854 l 1,4,-1
 984 1192 l 1,5,-1
 1094 1062 l 1,6,-1
 694 728 l 1,7,-1
 984 398 l 1,8,-1
 828 266 l 1,9,-1
 546 604 l 1,10,-1
 152 266 l 1,11,-1
 42 398 l 1,0,-1
EndSplineSet
EndChar

StartChar: Oslash
Encoding: 216 216 154
Width: 1378
GlyphClass: 2
Flags: W
LayerCount: 2
Fore
SplineSet
106 734 m 0,0,1
 164 1080 164 1080 367 1292 c 128,-1,2
 570 1504 570 1504 846 1504 c 0,3,4
 1000 1504 1000 1504 1116 1432 c 1,5,-1
 1218 1580 l 1,6,-1
 1400 1580 l 1,7,-1
 1230 1332 l 1,8,9
 1394 1118 1394 1118 1330 734 c 0,10,11
 1272 384 1272 384 1070 175 c 128,-1,12
 868 -34 868 -34 592 -34 c 0,13,14
 446 -34 446 -34 342 24 c 1,15,-1
 240 -122 l 1,16,-1
 60 -122 l 1,17,-1
 226 118 l 1,18,19
 40 332 40 332 106 734 c 0,0,1
1088 1130 m 1,20,-1
 462 194 l 1,21,22
 526 152 526 152 622 152 c 0,23,24
 802 152 802 152 934 308 c 128,-1,25
 1066 464 1066 464 1112 734 c 0,26,27
 1152 978 1152 978 1088 1130 c 1,20,-1
998 1260 m 1,28,29
 924 1318 924 1318 816 1318 c 0,30,31
 632 1318 632 1318 501 1160 c 128,-1,32
 370 1002 370 1002 326 734 c 0,33,34
 282 470 282 470 362 314 c 1,35,-1
 998 1260 l 1,28,29
EndSplineSet
EndChar

StartChar: Thorn
Encoding: 222 222 160
Width: 1136
GlyphClass: 2
Flags: W
LayerCount: 2
Fore
SplineSet
68 0 m 1,0,-1
 312 1470 l 1,1,-1
 524 1470 l 1,2,-1
 484 1230 l 1,3,-1
 658 1230 l 2,4,5
 800 1230 800 1230 898 1191 c 128,-1,6
 996 1152 996 1152 1043 1083 c 128,-1,7
 1090 1014 1090 1014 1104 933 c 128,-1,8
 1118 852 1118 852 1102 754 c 0,9,10
 1062 514 1062 514 900 394 c 128,-1,11
 738 274 738 274 496 274 c 2,12,-1
 326 274 l 1,13,-1
 280 0 l 1,14,-1
 68 0 l 1,0,-1
356 458 m 1,15,-1
 504 458 l 2,16,17
 832 458 832 458 882 756 c 0,18,19
 930 1046 930 1046 610 1046 c 2,20,-1
 452 1046 l 1,21,-1
 356 458 l 1,15,-1
EndSplineSet
EndChar

StartChar: germandbls
Encoding: 223 223 161
Width: 1210
GlyphClass: 2
Flags: W
LayerCount: 2
Fore
SplineSet
68 0 m 1,0,-1
 248 1082 l 2,1,2
 282 1286 282 1286 421 1395 c 128,-1,3
 560 1504 560 1504 742 1504 c 0,4,5
 940 1504 940 1504 1044 1396 c 128,-1,6
 1148 1288 1148 1288 1116 1104 c 0,7,8
 1080 890 1080 890 904 790 c 1,9,-1
 904 786 l 1,10,11
 1016 748 1016 748 1073 650 c 128,-1,12
 1130 552 1130 552 1104 396 c 0,13,14
 1072 198 1072 198 937 82 c 128,-1,15
 802 -34 802 -34 604 -34 c 0,16,17
 468 -34 468 -34 366 4 c 1,18,-1
 404 194 l 1,19,20
 506 152 506 152 628 152 c 0,21,22
 722 152 722 152 800 220 c 128,-1,23
 878 288 878 288 896 396 c 0,24,25
 918 530 918 530 855 602 c 128,-1,26
 792 674 792 674 666 674 c 2,27,-1
 540 674 l 1,28,-1
 570 856 l 1,29,-1
 678 856 l 2,30,31
 760 856 760 856 823 921 c 128,-1,32
 886 986 886 986 904 1094 c 0,33,34
 920 1194 920 1194 871 1256 c 128,-1,35
 822 1318 822 1318 718 1318 c 0,36,37
 612 1318 612 1318 539 1250 c 128,-1,38
 466 1182 466 1182 448 1066 c 2,39,-1
 272 0 l 1,40,-1
 68 0 l 1,0,-1
EndSplineSet
EndChar

StartChar: ae
Encoding: 230 230 168
Width: 1686
GlyphClass: 2
Flags: W
LayerCount: 2
Fore
SplineSet
16 278 m 0,0,1
 66 576 66 576 518 646 c 0,2,3
 694 674 694 674 742 688 c 0,4,5
 742 694 742 694 746 719 c 128,-1,6
 750 744 750 744 752 752 c 0,7,8
 764 828 764 828 716 881 c 128,-1,9
 668 934 668 934 572 934 c 0,10,11
 396 934 396 934 246 784 c 1,12,-1
 142 892 l 1,13,14
 234 990 234 990 353 1046 c 128,-1,15
 472 1102 472 1102 602 1102 c 0,16,17
 836 1102 836 1102 906 920 c 1,18,19
 1058 1102 1058 1102 1266 1102 c 0,20,21
 1460 1102 1460 1102 1561 946 c 128,-1,22
 1662 790 1662 790 1622 550 c 0,23,24
 1620 536 1620 536 1614 509 c 128,-1,25
 1608 482 1608 482 1606 464 c 1,26,-1
 898 464 l 1,27,-1
 892 432 l 1,28,29
 880 316 880 316 936 226 c 128,-1,30
 992 136 992 136 1112 136 c 0,31,32
 1284 136 1284 136 1396 298 c 1,33,-1
 1550 240 l 1,34,35
 1482 122 1482 122 1360 44 c 128,-1,36
 1238 -34 1238 -34 1080 -34 c 0,37,38
 828 -34 828 -34 744 202 c 1,39,40
 560 -34 560 -34 318 -34 c 0,41,42
 156 -34 156 -34 74 51 c 128,-1,43
 -8 136 -8 136 16 278 c 0,0,1
218 292 m 0,44,45
 208 228 208 228 249 184 c 128,-1,46
 290 140 290 140 370 140 c 0,47,48
 486 140 486 140 581 219 c 128,-1,49
 676 298 676 298 696 422 c 2,50,-1
 716 540 l 1,51,52
 620 516 620 516 506 498 c 0,53,54
 380 478 380 478 306 430 c 128,-1,55
 232 382 232 382 218 292 c 0,44,45
922 612 m 1,56,-1
 1432 612 l 1,57,58
 1432 616 1432 616 1434 620 c 0,59,60
 1456 748 1456 748 1402 840 c 128,-1,61
 1348 932 1348 932 1240 932 c 256,62,63
 1132 932 1132 932 1053 852 c 128,-1,64
 974 772 974 772 932 652 c 1,65,-1
 922 612 l 1,56,-1
EndSplineSet
EndChar

StartChar: eth
Encoding: 240 240 178
Width: 1050
GlyphClass: 2
Flags: W
LayerCount: 2
Fore
SplineSet
50 468 m 0,0,1
 90 704 90 704 236 844 c 128,-1,2
 382 984 382 984 582 984 c 0,3,4
 670 984 670 984 731 948 c 128,-1,5
 792 912 792 912 812 864 c 1,6,7
 804 1064 804 1064 698 1194 c 1,8,-1
 468 1036 l 1,9,-1
 374 1170 l 1,10,-1
 570 1304 l 1,11,12
 490 1354 490 1354 386 1372 c 1,13,-1
 482 1540 l 1,14,15
 582 1522 582 1522 668 1486 c 0,16,17
 714 1464 714 1464 758 1432 c 1,18,-1
 976 1582 l 1,19,-1
 1062 1448 l 1,20,-1
 874 1316 l 1,21,22
 918 1258 918 1258 948 1188 c 0,23,24
 992 1080 992 1080 1004 915 c 128,-1,25
 1016 750 1016 750 982 544 c 0,26,27
 940 286 940 286 789 126 c 128,-1,28
 638 -34 638 -34 416 -34 c 0,29,30
 212 -34 212 -34 113 107 c 128,-1,31
 14 248 14 248 50 468 c 0,0,1
252 474 m 0,32,33
 228 330 228 330 282 237 c 128,-1,34
 336 144 336 144 452 144 c 0,35,36
 564 144 564 144 648 234 c 128,-1,37
 732 324 732 324 756 476 c 0,38,39
 780 622 780 622 727 713 c 128,-1,40
 674 804 674 804 562 804 c 256,41,42
 450 804 450 804 364 715 c 128,-1,43
 278 626 278 626 252 474 c 0,32,33
EndSplineSet
EndChar

StartChar: divide
Encoding: 247 247 185
Width: 1084
GlyphClass: 2
Flags: W
LayerCount: 2
Fore
SplineSet
482 982 m 1,0,-1
 524 1236 l 1,1,-1
 780 1236 l 1,2,-1
 738 982 l 1,3,-1
 482 982 l 1,0,-1
58 634 m 1,4,-1
 88 818 l 1,5,-1
 1076 818 l 1,6,-1
 1046 634 l 1,7,-1
 58 634 l 1,4,-1
356 216 m 1,8,-1
 398 472 l 1,9,-1
 652 472 l 1,10,-1
 610 216 l 1,11,-1
 356 216 l 1,8,-1
EndSplineSet
EndChar

StartChar: oslash
Encoding: 248 248 186
Width: 1054
GlyphClass: 2
Flags: W
LayerCount: 2
Fore
SplineSet
62 532 m 0,0,1
 88 686 88 686 155 811 c 128,-1,2
 222 936 222 936 344 1019 c 128,-1,3
 466 1102 466 1102 618 1102 c 0,4,5
 728 1102 728 1102 810 1056 c 1,6,-1
 900 1194 l 1,7,-1
 1054 1194 l 1,8,-1
 908 972 l 1,9,10
 1030 816 1030 816 984 532 c 0,11,12
 968 434 968 434 929 341 c 128,-1,13
 890 248 890 248 824 160 c 128,-1,14
 758 72 758 72 656 19 c 128,-1,15
 554 -34 554 -34 428 -34 c 0,16,17
 322 -34 322 -34 248 4 c 1,18,-1
 164 -116 l 1,19,-1
 12 -116 l 1,20,-1
 142 82 l 1,21,22
 12 236 12 236 62 532 c 0,0,1
772 772 m 1,23,-1
 358 170 l 1,24,25
 404 144 404 144 458 144 c 0,26,27
 564 144 564 144 658 242 c 128,-1,28
 752 340 752 340 784 532 c 0,29,30
 808 678 808 678 772 772 c 1,23,-1
698 890 m 1,31,32
 654 924 654 924 588 924 c 0,33,34
 482 924 482 924 387 824 c 128,-1,35
 292 724 292 724 260 532 c 0,36,37
 234 380 234 380 282 278 c 1,38,-1
 698 890 l 1,31,32
EndSplineSet
EndChar

StartChar: thorn
Encoding: 254 254 192
Width: 1104
GlyphClass: 2
Flags: W
LayerCount: 2
Fore
SplineSet
332 534 m 0,0,1
 302 356 302 356 354 250 c 128,-1,2
 406 144 406 144 514 144 c 0,3,4
 634 144 634 144 719 247 c 128,-1,5
 804 350 804 350 836 534 c 0,6,7
 866 714 866 714 815 819 c 128,-1,8
 764 924 764 924 644 924 c 0,9,10
 538 924 538 924 450 817 c 128,-1,11
 362 710 362 710 332 534 c 0,0,1
-24 -446 m 1,12,-1
 302 1522 l 1,13,-1
 500 1522 l 1,14,-1
 400 918 l 1,15,16
 442 996 442 996 528 1049 c 128,-1,17
 614 1102 614 1102 698 1102 c 0,18,19
 892 1102 892 1102 985 949 c 128,-1,20
 1078 796 1078 796 1034 534 c 0,21,22
 1010 386 1010 386 953 273 c 128,-1,23
 896 160 896 160 822 95 c 128,-1,24
 748 30 748 30 669 -2 c 128,-1,25
 590 -34 590 -34 508 -34 c 0,26,27
 408 -34 408 -34 348 21 c 128,-1,28
 288 76 288 76 272 144 c 1,29,-1
 174 -446 l 1,30,-1
 -24 -446 l 1,12,-1
EndSplineSet
EndChar

StartChar: Dcroat
Encoding: 272 272 210
Width: 1340
GlyphClass: 2
Flags: W
LayerCount: 2
Fore
SplineSet
82 0 m 1,0,-1
 190 658 l 1,1,-1
 -2 658 l 1,2,-1
 28 832 l 1,3,-1
 220 832 l 1,4,-1
 326 1470 l 1,5,-1
 740 1470 l 2,6,7
 1062 1470 1062 1470 1208 1281 c 128,-1,8
 1354 1092 1354 1092 1294 734 c 0,9,10
 1268 576 1268 576 1208 447 c 128,-1,11
 1148 318 1148 318 1053 216 c 128,-1,12
 958 114 958 114 815 57 c 128,-1,13
 672 0 672 0 494 0 c 2,14,-1
 82 0 l 1,0,-1
324 184 m 1,15,-1
 500 184 l 2,16,17
 982 184 982 184 1074 734 c 0,18,19
 1166 1286 1166 1286 684 1286 c 2,20,-1
 506 1286 l 1,21,-1
 432 832 l 1,22,-1
 760 832 l 1,23,-1
 732 658 l 1,24,-1
 402 658 l 1,25,-1
 324 184 l 1,15,-1
EndSplineSet
EndChar

StartChar: dcroat
Encoding: 273 273 211
Width: 1102
GlyphClass: 2
Flags: W
LayerCount: 2
Fore
SplineSet
60 528 m 0,0,1
 104 792 104 792 251 940 c 128,-1,2
 398 1088 398 1088 580 1088 c 0,3,4
 676 1088 676 1088 741 1037 c 128,-1,5
 806 986 806 986 826 918 c 1,6,-1
 874 1206 l 1,7,-1
 476 1206 l 1,8,-1
 502 1362 l 1,9,-1
 900 1362 l 1,10,-1
 926 1522 l 1,11,-1
 1122 1522 l 1,12,-1
 1096 1362 l 1,13,-1
 1210 1362 l 1,14,-1
 1184 1206 l 1,15,-1
 1070 1206 l 1,16,-1
 870 0 l 1,17,-1
 680 0 l 1,18,-1
 706 156 l 1,19,20
 652 70 652 70 570 18 c 128,-1,21
 488 -34 488 -34 394 -34 c 0,22,23
 220 -34 220 -34 117 109 c 128,-1,24
 14 252 14 252 60 528 c 0,0,1
262 528 m 0,25,26
 232 346 232 346 285 245 c 128,-1,27
 338 144 338 144 450 144 c 256,28,29
 560 144 560 144 648 249 c 128,-1,30
 736 354 736 354 766 528 c 0,31,32
 794 696 794 696 741 803 c 128,-1,33
 688 910 688 910 576 910 c 256,34,35
 464 910 464 910 377 806 c 128,-1,36
 290 702 290 702 262 528 c 0,25,26
EndSplineSet
EndChar

StartChar: uni0123
Encoding: 291 291 229
Width: 1072
GlyphClass: 2
Flags: W
LayerCount: 2
Fore
SplineSet
512 1250 m 1,0,-1
 740 1624 l 1,1,-1
 876 1624 l 1,2,-1
 728 1250 l 1,3,-1
 512 1250 l 1,0,-1
268 554 m 0,4,5
 240 380 240 380 291 282 c 128,-1,6
 342 184 342 184 446 184 c 0,7,8
 556 184 556 184 637 280 c 128,-1,9
 718 376 718 376 746 554 c 0,10,11
 774 728 774 728 725 826 c 128,-1,12
 676 924 676 924 568 924 c 0,13,14
 462 924 462 924 379 823 c 128,-1,15
 296 722 296 722 268 554 c 0,4,5
68 552 m 0,16,17
 110 800 110 800 252 951 c 128,-1,18
 394 1102 394 1102 574 1102 c 0,19,20
 678 1102 678 1102 736 1049 c 128,-1,21
 794 996 794 996 810 926 c 1,22,-1
 834 1066 l 1,23,-1
 1028 1066 l 1,24,-1
 874 140 l 2,25,26
 824 -162 824 -162 692 -308 c 128,-1,27
 560 -454 560 -454 330 -454 c 0,28,29
 212 -454 212 -454 118 -402 c 128,-1,30
 24 -350 24 -350 -24 -252 c 1,31,-1
 124 -156 l 1,32,33
 206 -286 206 -286 360 -286 c 0,34,35
 472 -286 472 -286 551 -198 c 128,-1,36
 630 -110 630 -110 658 32 c 0,37,38
 676 122 676 122 684 166 c 1,39,40
 638 96 638 96 561 52 c 128,-1,41
 484 8 484 8 398 8 c 0,42,43
 210 8 210 8 119 158 c 128,-1,44
 28 308 28 308 68 552 c 0,16,17
EndSplineSet
EndChar

StartChar: Hbar
Encoding: 294 294 232
Width: 1388
GlyphClass: 2
Flags: W
LayerCount: 2
Fore
SplineSet
110 1104 m 1,0,-1
 140 1276 l 1,1,-1
 290 1276 l 1,2,-1
 322 1470 l 1,3,-1
 534 1470 l 1,4,-1
 502 1276 l 1,5,-1
 1124 1276 l 1,6,-1
 1158 1470 l 1,7,-1
 1366 1470 l 1,8,-1
 1334 1276 l 1,9,-1
 1486 1276 l 1,10,-1
 1458 1104 l 1,11,-1
 1306 1104 l 1,12,-1
 1124 0 l 1,13,-1
 914 0 l 1,14,-1
 1024 664 l 1,15,-1
 400 664 l 1,16,-1
 290 0 l 1,17,-1
 78 0 l 1,18,-1
 262 1104 l 1,19,-1
 110 1104 l 1,0,-1
1096 1104 m 1,20,-1
 474 1104 l 1,21,-1
 430 848 l 1,22,-1
 1054 848 l 1,23,-1
 1096 1104 l 1,20,-1
EndSplineSet
EndChar

StartChar: hbar
Encoding: 295 295 233
Width: 1062
GlyphClass: 2
Flags: W
LayerCount: 2
Fore
SplineSet
116 1206 m 1,0,-1
 144 1366 l 1,1,-1
 272 1366 l 1,2,-1
 298 1522 l 1,3,-1
 494 1522 l 1,4,-1
 468 1366 l 1,5,-1
 844 1366 l 1,6,-1
 818 1206 l 1,7,-1
 442 1206 l 1,8,-1
 390 896 l 1,9,-1
 392 896 l 1,10,11
 438 962 438 962 520 1011 c 128,-1,12
 602 1060 602 1060 694 1060 c 0,13,14
 754 1060 754 1060 803 1042 c 128,-1,15
 852 1024 852 1024 899 982 c 128,-1,16
 946 940 946 940 964 853 c 128,-1,17
 982 766 982 766 962 646 c 2,18,-1
 856 0 l 1,19,-1
 660 0 l 1,20,-1
 762 620 l 2,21,22
 806 882 806 882 630 882 c 0,23,24
 530 882 530 882 444 790 c 128,-1,25
 358 698 358 698 336 576 c 2,26,-1
 242 0 l 1,27,-1
 46 0 l 1,28,-1
 246 1206 l 1,29,-1
 116 1206 l 1,0,-1
EndSplineSet
EndChar

StartChar: dotlessi
Encoding: 305 305 243
Width: 468
GlyphClass: 2
Flags: W
LayerCount: 2
Fore
SplineSet
44 0 m 1,0,-1
 220 1066 l 1,1,-1
 416 1066 l 1,2,-1
 240 0 l 1,3,-1
 44 0 l 1,0,-1
EndSplineSet
EndChar

StartChar: kgreenlandic
Encoding: 312 312 250
Width: 994
GlyphClass: 2
Flags: W
LayerCount: 2
Fore
SplineSet
40 0 m 1,0,-1
 218 1066 l 1,1,-1
 412 1066 l 1,2,-1
 344 648 l 1,3,-1
 348 648 l 1,4,-1
 832 1066 l 1,5,-1
 1086 1066 l 1,6,-1
 518 576 l 1,7,-1
 916 0 l 1,8,-1
 678 0 l 1,9,-1
 364 428 l 1,10,-1
 296 364 l 1,11,-1
 236 0 l 1,12,-1
 40 0 l 1,0,-1
EndSplineSet
EndChar

StartChar: Lslash
Encoding: 321 321 259
Width: 1072
GlyphClass: 2
Flags: W
LayerCount: 2
Fore
SplineSet
412 680 m 1,0,-1
 330 184 l 1,1,-1
 992 184 l 1,2,-1
 962 0 l 1,3,-1
 88 0 l 1,4,-1
 178 544 l 1,5,-1
 -18 428 l 1,6,-1
 -90 586 l 1,7,-1
 214 764 l 1,8,-1
 330 1470 l 1,9,-1
 542 1470 l 1,10,-1
 448 898 l 1,11,-1
 670 1030 l 1,12,-1
 742 874 l 1,13,-1
 412 680 l 1,0,-1
EndSplineSet
EndChar

StartChar: lslash
Encoding: 322 322 260
Width: 504
GlyphClass: 2
Flags: W
LayerCount: 2
Fore
SplineSet
376 712 m 1,0,-1
 258 0 l 1,1,-1
 60 0 l 1,2,-1
 158 586 l 1,3,-1
 -26 476 l 1,4,-1
 -94 636 l 1,5,-1
 194 806 l 1,6,-1
 312 1522 l 1,7,-1
 510 1522 l 1,8,-1
 412 932 l 1,9,-1
 596 1038 l 1,10,-1
 660 880 l 1,11,-1
 376 712 l 1,0,-1
EndSplineSet
EndChar

StartChar: Eng
Encoding: 330 330 268
Width: 1376
GlyphClass: 2
Flags: W
LayerCount: 2
Fore
SplineSet
68 0 m 1,0,-1
 312 1470 l 1,1,-1
 538 1470 l 1,2,-1
 892 548 l 1,3,-1
 978 318 l 1,4,-1
 988 318 l 1,5,6
 994 508 994 508 1032 730 c 2,7,-1
 1154 1470 l 1,8,-1
 1366 1470 l 1,9,-1
 1126 26 l 2,10,11
 1090 -196 1090 -196 975 -320 c 128,-1,12
 860 -444 860 -444 678 -444 c 0,13,14
 620 -444 620 -444 480 -426 c 1,15,-1
 510 -244 l 1,16,17
 602 -260 602 -260 668 -260 c 0,18,19
 770 -260 770 -260 820 -200 c 128,-1,20
 870 -140 870 -140 896 -2 c 1,21,-1
 536 922 l 1,22,-1
 454 1148 l 1,23,-1
 444 1148 l 1,24,25
 434 932 434 932 406 762 c 2,26,-1
 280 0 l 1,27,-1
 68 0 l 1,0,-1
EndSplineSet
EndChar

StartChar: eng
Encoding: 331 331 269
Width: 1048
GlyphClass: 2
Flags: W
LayerCount: 2
Fore
SplineSet
32 0 m 1,0,-1
 208 1066 l 1,1,-1
 396 1066 l 1,2,-1
 372 918 l 1,3,-1
 374 918 l 1,4,5
 418 990 418 990 505 1046 c 128,-1,6
 592 1102 592 1102 698 1102 c 0,7,8
 846 1102 846 1102 919 1004 c 128,-1,9
 992 906 992 906 956 686 c 2,10,-1
 846 18 l 2,11,12
 806 -228 806 -228 687 -341 c 128,-1,13
 568 -454 568 -454 422 -454 c 0,14,15
 386 -454 386 -454 355 -450 c 128,-1,16
 324 -446 324 -446 292 -441 c 128,-1,17
 260 -436 260 -436 250 -434 c 1,18,-1
 280 -254 l 1,19,20
 380 -270 380 -270 422 -270 c 0,21,22
 518 -270 518 -270 571 -206 c 128,-1,23
 624 -142 624 -142 646 -10 c 2,24,-1
 756 658 l 2,25,26
 800 924 800 924 628 924 c 0,27,28
 526 924 526 924 439 837 c 128,-1,29
 352 750 352 750 330 624 c 2,30,-1
 228 0 l 1,31,-1
 32 0 l 1,0,-1
EndSplineSet
EndChar

StartChar: OE
Encoding: 338 338 276
Width: 1884
GlyphClass: 2
Flags: W
LayerCount: 2
Fore
SplineSet
106 734 m 0,0,1
 164 1082 164 1082 372 1293 c 128,-1,2
 580 1504 580 1504 858 1504 c 0,3,4
 978 1504 978 1504 1054 1470 c 1,5,-1
 1956 1470 l 1,6,-1
 1926 1284 l 1,7,-1
 1228 1284 l 1,8,-1
 1156 852 l 1,9,-1
 1784 852 l 1,10,-1
 1754 668 l 1,11,-1
 1126 668 l 1,12,-1
 1046 184 l 1,13,-1
 1764 184 l 1,14,-1
 1732 0 l 1,15,-1
 816 0 l 1,16,17
 716 -34 716 -34 604 -34 c 0,18,19
 324 -34 324 -34 186 175 c 128,-1,20
 48 384 48 384 106 734 c 0,0,1
326 734 m 256,21,22
 282 468 282 468 367 310 c 128,-1,23
 452 152 452 152 634 152 c 0,24,25
 744 152 744 152 838 214 c 1,26,-1
 1010 1252 l 1,27,28
 942 1318 942 1318 828 1318 c 0,29,30
 642 1318 642 1318 506 1159 c 128,-1,31
 370 1000 370 1000 326 734 c 256,21,22
EndSplineSet
EndChar

StartChar: uni0163
Encoding: 355 355 293
Width: 684
GlyphClass: 2
Flags: W
LayerCount: 2
Fore
SplineSet
86 892 m 1,0,-1
 116 1066 l 1,1,-1
 278 1066 l 1,2,-1
 332 1390 l 1,3,-1
 526 1390 l 1,4,-1
 472 1066 l 1,5,-1
 714 1066 l 1,6,-1
 686 892 l 1,7,-1
 444 892 l 1,8,-1
 350 332 l 2,9,10
 336 250 336 250 363 214 c 128,-1,11
 390 178 390 178 454 178 c 2,12,-1
 568 178 l 1,13,-1
 540 0 l 1,14,-1
 422 0 l 1,15,-1
 392 -68 l 1,16,17
 466 -82 466 -82 502 -128 c 128,-1,18
 538 -174 538 -174 526 -240 c 0,19,20
 512 -322 512 -322 438 -380 c 128,-1,21
 364 -438 364 -438 224 -438 c 0,22,23
 140 -438 140 -438 64 -416 c 1,24,-1
 84 -286 l 1,25,26
 162 -304 162 -304 240 -304 c 0,27,28
 358 -304 358 -304 372 -228 c 0,29,30
 384 -154 384 -154 190 -142 c 1,31,-1
 256 28 l 1,32,33
 118 94 118 94 154 318 c 2,34,-1
 250 892 l 1,35,-1
 86 892 l 1,0,-1
EndSplineSet
Substitution2: "'locl' Localized Forms in Latin lookup 3 subtable" uni021B
Substitution2: "'locl' Localized Forms in Latin lookup 2 subtable" uni021B
Substitution2: "'aalt' Access All Alternates lookup 0 subtable" uni021B
EndChar

StartChar: Tbar
Encoding: 358 358 296
Width: 1092
GlyphClass: 2
Flags: W
LayerCount: 2
Fore
SplineSet
136 1284 m 1,0,-1
 168 1470 l 1,1,-1
 1228 1470 l 1,2,-1
 1198 1284 l 1,3,-1
 774 1284 l 1,4,-1
 698 832 l 1,5,-1
 952 832 l 1,6,-1
 922 658 l 1,7,-1
 670 658 l 1,8,-1
 562 0 l 1,9,-1
 350 0 l 1,10,-1
 458 658 l 1,11,-1
 190 658 l 1,12,-1
 218 832 l 1,13,-1
 488 832 l 1,14,-1
 562 1284 l 1,15,-1
 136 1284 l 1,0,-1
EndSplineSet
EndChar

StartChar: tbar
Encoding: 359 359 297
Width: 686
GlyphClass: 2
Flags: W
LayerCount: 2
Fore
SplineSet
88 892 m 1,0,-1
 116 1066 l 1,1,-1
 280 1066 l 1,2,-1
 334 1390 l 1,3,-1
 526 1390 l 1,4,-1
 474 1066 l 1,5,-1
 716 1066 l 1,6,-1
 688 892 l 1,7,-1
 444 892 l 1,8,-1
 416 716 l 1,9,-1
 664 716 l 1,10,-1
 636 544 l 1,11,-1
 386 544 l 1,12,-1
 352 332 l 2,13,14
 338 250 338 250 364 214 c 128,-1,15
 390 178 390 178 456 178 c 2,16,-1
 572 178 l 1,17,-1
 542 0 l 1,18,-1
 402 0 l 2,19,20
 104 0 104 0 156 318 c 2,21,-1
 194 544 l 1,22,-1
 8 544 l 1,23,-1
 38 716 l 1,24,-1
 222 716 l 1,25,-1
 250 892 l 1,26,-1
 88 892 l 1,0,-1
EndSplineSet
EndChar

StartChar: longs
Encoding: 383 383 321
Width: 578
GlyphClass: 2
Flags: W
LayerCount: 2
Fore
SplineSet
50 0 m 1,0,-1
 248 1198 l 2,1,2
 274 1360 274 1360 364 1441 c 128,-1,3
 454 1522 454 1522 592 1522 c 2,4,-1
 734 1522 l 1,5,-1
 706 1344 l 1,6,-1
 600 1344 l 2,7,8
 466 1344 466 1344 440 1174 c 2,9,-1
 246 0 l 1,10,-1
 50 0 l 1,0,-1
EndSplineSet
EndChar

StartChar: uni0180
Encoding: 384 384 322
Width: 1102
GlyphClass: 2
Flags: W
LayerCount: 2
Fore
SplineSet
328 530 m 0,0,1
 298 354 298 354 352 249 c 128,-1,2
 406 144 406 144 512 144 c 0,3,4
 626 144 626 144 713 246 c 128,-1,5
 800 348 800 348 830 530 c 0,6,7
 858 704 858 704 808 809 c 128,-1,8
 758 914 758 914 642 914 c 0,9,10
 534 914 534 914 445 809 c 128,-1,11
 356 704 356 704 328 530 c 0,0,1
120 1206 m 1,12,-1
 146 1366 l 1,13,-1
 274 1366 l 1,14,-1
 300 1522 l 1,15,-1
 494 1522 l 1,16,-1
 468 1366 l 1,17,-1
 842 1366 l 1,18,-1
 816 1206 l 1,19,-1
 442 1206 l 1,20,-1
 392 914 l 1,21,22
 438 982 438 982 519 1037 c 128,-1,23
 600 1092 600 1092 696 1092 c 0,24,25
 886 1092 886 1092 981 941 c 128,-1,26
 1076 790 1076 790 1032 530 c 0,27,28
 1008 384 1008 384 949 271 c 128,-1,29
 890 158 890 158 815 94 c 128,-1,30
 740 30 740 30 663 -2 c 128,-1,31
 586 -34 586 -34 512 -34 c 0,32,33
 414 -34 414 -34 348 22 c 128,-1,34
 282 78 282 78 264 154 c 1,35,-1
 238 0 l 1,36,-1
 48 0 l 1,37,-1
 248 1206 l 1,38,-1
 120 1206 l 1,12,-1
EndSplineSet
EndChar

StartChar: uni0182
Encoding: 386 386 324
Width: 1266
GlyphClass: 2
Flags: W
LayerCount: 2
Fore
SplineSet
310 184 m 1,0,-1
 660 184 l 2,1,2
 770 184 770 184 853 244 c 128,-1,3
 936 304 936 304 956 422 c 0,4,5
 974 526 974 526 915 598 c 128,-1,6
 856 670 856 670 734 670 c 2,7,-1
 390 670 l 1,8,-1
 310 184 l 1,0,-1
68 0 m 1,9,-1
 312 1470 l 1,10,-1
 1182 1470 l 1,11,-1
 1150 1284 l 1,12,-1
 492 1284 l 1,13,-1
 420 852 l 1,14,-1
 782 852 l 2,15,16
 1002 852 1002 852 1104 731 c 128,-1,17
 1206 610 1206 610 1174 422 c 0,18,19
 1144 240 1144 240 1005 120 c 128,-1,20
 866 0 866 0 660 0 c 2,21,-1
 68 0 l 1,9,-1
EndSplineSet
EndChar

StartChar: uni0183
Encoding: 387 387 325
Width: 1098
GlyphClass: 2
Flags: W
LayerCount: 2
Fore
SplineSet
322 534 m 0,0,1
 292 352 292 352 344 248 c 128,-1,2
 396 144 396 144 506 144 c 0,3,4
 620 144 620 144 708 246 c 128,-1,5
 796 348 796 348 826 534 c 0,6,7
 856 714 856 714 804 819 c 128,-1,8
 752 924 752 924 638 924 c 0,9,10
 528 924 528 924 440 817 c 128,-1,11
 352 710 352 710 322 534 c 0,0,1
42 0 m 1,12,-1
 292 1512 l 1,13,-1
 1006 1512 l 1,14,-1
 978 1334 l 1,15,-1
 456 1334 l 1,16,-1
 390 926 l 1,17,18
 420 982 420 982 505 1042 c 128,-1,19
 590 1102 590 1102 694 1102 c 0,20,21
 884 1102 884 1102 977 949 c 128,-1,22
 1070 796 1070 796 1028 534 c 0,23,24
 1004 386 1004 386 946 272 c 128,-1,25
 888 158 888 158 814 94 c 128,-1,26
 740 30 740 30 662 -2 c 128,-1,27
 584 -34 584 -34 508 -34 c 0,28,29
 412 -34 412 -34 345 23 c 128,-1,30
 278 80 278 80 258 154 c 1,31,-1
 232 0 l 1,32,-1
 42 0 l 1,12,-1
EndSplineSet
EndChar

StartChar: uni0184
Encoding: 388 388 326
Width: 1288
GlyphClass: 2
Flags: W
LayerCount: 2
Fore
SplineSet
134 1334 m 1,0,-1
 414 1470 l 1,1,-1
 534 1470 l 1,2,-1
 432 848 l 1,3,-1
 798 848 l 2,4,5
 1018 848 1018 848 1122 728 c 128,-1,6
 1226 608 1226 608 1194 422 c 0,7,8
 1166 248 1166 248 1028 124 c 128,-1,9
 890 0 890 0 688 0 c 2,10,-1
 80 0 l 1,11,-1
 278 1202 l 1,12,-1
 134 1334 l 1,0,-1
322 184 m 1,13,-1
 678 184 l 2,14,15
 786 184 786 184 871 245 c 128,-1,16
 956 306 956 306 974 422 c 0,17,18
 990 524 990 524 934 595 c 128,-1,19
 878 666 878 666 754 666 c 2,20,-1
 402 666 l 1,21,-1
 322 184 l 1,13,-1
EndSplineSet
EndChar

StartChar: uni0185
Encoding: 389 389 327
Width: 1104
GlyphClass: 2
Flags: W
LayerCount: 2
Fore
SplineSet
126 1380 m 1,0,-1
 388 1522 l 1,1,-1
 494 1522 l 1,2,-1
 396 926 l 1,3,4
 444 1004 444 1004 530 1053 c 128,-1,5
 616 1102 616 1102 700 1102 c 0,6,7
 890 1102 890 1102 984 949 c 128,-1,8
 1078 796 1078 796 1034 534 c 0,9,10
 1010 388 1010 388 953 275 c 128,-1,11
 896 162 896 162 823 97 c 128,-1,12
 750 32 750 32 672 -1 c 128,-1,13
 594 -34 594 -34 514 -34 c 0,14,15
 418 -34 418 -34 353 21 c 128,-1,16
 288 76 288 76 264 154 c 1,17,-1
 238 0 l 1,18,-1
 48 0 l 1,19,-1
 256 1248 l 1,20,-1
 126 1380 l 1,0,-1
330 534 m 0,21,22
 300 352 300 352 353 248 c 128,-1,23
 406 144 406 144 514 144 c 0,24,25
 628 144 628 144 715 247 c 128,-1,26
 802 350 802 350 832 534 c 0,27,28
 862 710 862 710 812 817 c 128,-1,29
 762 924 762 924 644 924 c 0,30,31
 534 924 534 924 447 818 c 128,-1,32
 360 712 360 712 330 534 c 0,21,22
EndSplineSet
EndChar

StartChar: uni0186
Encoding: 390 390 328
Width: 1280
GlyphClass: 2
Flags: W
LayerCount: 2
Fore
SplineSet
4 338 m 1,0,-1
 204 400 l 1,1,2
 230 296 230 296 308 224 c 128,-1,3
 386 152 386 152 506 152 c 0,4,5
 690 152 690 152 829 310 c 128,-1,6
 968 468 968 468 1012 736 c 0,7,8
 1056 1000 1056 1000 972 1159 c 128,-1,9
 888 1318 888 1318 700 1318 c 0,10,11
 508 1318 508 1318 348 1098 c 1,12,-1
 178 1160 l 1,13,14
 262 1304 262 1304 405 1404 c 128,-1,15
 548 1504 548 1504 728 1504 c 0,16,17
 1008 1504 1008 1504 1149 1298 c 128,-1,18
 1290 1092 1290 1092 1232 736 c 0,19,20
 1172 376 1172 376 960 171 c 128,-1,21
 748 -34 748 -34 474 -34 c 0,22,23
 366 -34 366 -34 280 0 c 128,-1,24
 194 34 194 34 139 93 c 128,-1,25
 84 152 84 152 52 212 c 128,-1,26
 20 272 20 272 4 338 c 1,0,-1
EndSplineSet
EndChar

StartChar: uni0189
Encoding: 393 393 331
Width: 1336
GlyphClass: 2
Flags: W
LayerCount: 2
Fore
SplineSet
80 0 m 1,0,-1
 188 658 l 1,1,-1
 34 658 l 1,2,-1
 62 832 l 1,3,-1
 216 832 l 1,4,-1
 322 1470 l 1,5,-1
 738 1470 l 2,6,7
 1060 1470 1060 1470 1206 1281 c 128,-1,8
 1352 1092 1352 1092 1292 734 c 0,9,10
 1266 576 1266 576 1206 447 c 128,-1,11
 1146 318 1146 318 1050 216 c 128,-1,12
 954 114 954 114 812 57 c 128,-1,13
 670 0 670 0 490 0 c 2,14,-1
 80 0 l 1,0,-1
322 184 m 1,15,-1
 498 184 l 2,16,17
 980 184 980 184 1070 734 c 0,18,19
 1162 1286 1162 1286 682 1286 c 2,20,-1
 504 1286 l 1,21,-1
 428 832 l 1,22,-1
 796 832 l 1,23,-1
 768 658 l 1,24,-1
 400 658 l 1,25,-1
 322 184 l 1,15,-1
EndSplineSet
EndChar

StartChar: uni018B
Encoding: 395 395 333
Width: 1266
GlyphClass: 2
Flags: W
LayerCount: 2
Fore
SplineSet
266 422 m 0,0,1
 246 306 246 306 309 245 c 128,-1,2
 372 184 372 184 484 184 c 2,3,-1
 832 184 l 1,4,-1
 912 670 l 1,5,-1
 574 670 l 2,6,7
 450 670 450 670 367 599 c 128,-1,8
 284 528 284 528 266 422 c 0,0,1
48 422 m 0,9,10
 80 610 80 610 222 731 c 128,-1,11
 364 852 364 852 584 852 c 2,12,-1
 944 852 l 1,13,-1
 1014 1284 l 1,14,-1
 356 1284 l 1,15,-1
 386 1470 l 1,16,-1
 1258 1470 l 1,17,-1
 1014 0 l 1,18,-1
 422 0 l 2,19,20
 218 0 218 0 118 120 c 128,-1,21
 18 240 18 240 48 422 c 0,9,10
EndSplineSet
EndChar

StartChar: uni018C
Encoding: 396 396 334
Width: 1098
GlyphClass: 2
Flags: W
LayerCount: 2
Fore
SplineSet
262 534 m 0,0,1
 232 348 232 348 285 246 c 128,-1,2
 338 144 338 144 450 144 c 256,3,4
 562 144 562 144 649 250 c 128,-1,5
 736 356 736 356 764 534 c 0,6,7
 794 710 794 710 742 817 c 128,-1,8
 690 924 690 924 578 924 c 0,9,10
 464 924 464 924 378 819 c 128,-1,11
 292 714 292 714 262 534 c 0,0,1
62 534 m 0,12,13
 106 794 106 794 251 948 c 128,-1,14
 396 1102 396 1102 582 1102 c 0,15,16
 688 1102 688 1102 749 1044 c 128,-1,17
 810 986 810 986 828 926 c 1,18,-1
 898 1346 l 1,19,-1
 372 1346 l 1,20,-1
 400 1522 l 1,21,-1
 1122 1522 l 1,22,-1
 870 0 l 1,23,-1
 680 0 l 1,24,-1
 706 156 l 1,25,26
 660 80 660 80 576 23 c 128,-1,27
 492 -34 492 -34 392 -34 c 0,28,29
 314 -34 314 -34 247 -2 c 128,-1,30
 180 30 180 30 128 94 c 128,-1,31
 76 158 76 158 57 272 c 128,-1,32
 38 386 38 386 62 534 c 0,12,13
EndSplineSet
EndChar

StartChar: uni018D
Encoding: 397 397 335
Width: 1144
GlyphClass: 2
Flags: W
LayerCount: 2
Fore
SplineSet
280 640 m 0,0,1
 260 520 260 520 338 421 c 128,-1,2
 416 322 416 322 538 262 c 1,3,4
 678 326 678 326 775 425 c 128,-1,5
 872 524 872 524 890 636 c 0,6,7
 910 758 910 758 846 841 c 128,-1,8
 782 924 782 924 640 924 c 0,9,10
 500 924 500 924 400 844 c 128,-1,11
 300 764 300 764 280 640 c 0,0,1
78 632 m 0,12,13
 114 854 114 854 274 977 c 128,-1,14
 434 1100 434 1100 672 1100 c 0,15,16
 904 1100 904 1100 1016 971 c 128,-1,17
 1128 842 1128 842 1094 644 c 0,18,19
 1072 512 1072 512 964 384 c 128,-1,20
 856 256 856 256 688 172 c 1,21,22
 862 50 862 50 834 -112 c 0,23,24
 810 -262 810 -262 682 -350 c 128,-1,25
 554 -438 554 -438 370 -438 c 0,26,27
 212 -438 212 -438 114 -370 c 128,-1,28
 16 -302 16 -302 -24 -194 c 1,29,-1
 132 -106 l 1,30,31
 166 -168 166 -168 233 -215 c 128,-1,32
 300 -262 300 -262 398 -262 c 0,33,34
 492 -262 492 -262 558 -222 c 128,-1,35
 624 -182 624 -182 634 -116 c 0,36,37
 638 -86 638 -86 624 -55 c 128,-1,38
 610 -24 610 -24 565 10 c 128,-1,39
 520 44 520 44 487 64 c 128,-1,40
 454 84 454 84 382 124 c 0,41,42
 28 332 28 332 78 632 c 0,12,13
EndSplineSet
EndChar

StartChar: uni018E
Encoding: 398 398 336
Width: 1166
GlyphClass: 2
Flags: W
LayerCount: 2
Fore
SplineSet
-26 0 m 1,0,-1
 4 184 l 1,1,-1
 734 184 l 1,2,-1
 816 668 l 1,3,-1
 166 668 l 1,4,-1
 196 852 l 1,5,-1
 846 852 l 1,6,-1
 916 1284 l 1,7,-1
 190 1284 l 1,8,-1
 220 1470 l 1,9,-1
 1158 1470 l 1,10,-1
 914 0 l 1,11,-1
 -26 0 l 1,0,-1
EndSplineSet
EndChar

StartChar: uni018F
Encoding: 399 399 337
Width: 1370
GlyphClass: 2
Flags: W
LayerCount: 2
Fore
SplineSet
98 706 m 0,0,1
 106 756 106 756 122 828 c 1,2,-1
 1114 828 l 1,3,4
 1136 1060 1136 1060 1051 1189 c 128,-1,5
 966 1318 966 1318 788 1318 c 0,6,7
 558 1318 558 1318 382 1104 c 1,8,-1
 214 1178 l 1,9,10
 318 1336 318 1336 478 1420 c 128,-1,11
 638 1504 638 1504 824 1504 c 0,12,13
 1126 1504 1126 1504 1252 1289 c 128,-1,14
 1378 1074 1378 1074 1320 732 c 0,15,16
 1262 384 1262 384 1055 175 c 128,-1,17
 848 -34 848 -34 572 -34 c 0,18,19
 292 -34 292 -34 168 173 c 128,-1,20
 44 380 44 380 98 706 c 0,0,1
308 644 m 1,21,22
 306 636 306 636 306 624 c 128,-1,23
 306 612 306 612 304 606 c 0,24,25
 296 518 296 518 307 442 c 128,-1,26
 318 366 318 366 349 298 c 128,-1,27
 380 230 380 230 447 191 c 128,-1,28
 514 152 514 152 608 152 c 0,29,30
 764 152 764 152 901 280 c 128,-1,31
 1038 408 1038 408 1084 644 c 1,32,-1
 308 644 l 1,21,22
EndSplineSet
EndChar

StartChar: uni0190
Encoding: 400 400 338
Width: 1180
GlyphClass: 2
Flags: W
LayerCount: 2
Fore
SplineSet
54 412 m 0,0,1
 78 558 78 558 178 651 c 128,-1,2
 278 744 278 744 392 778 c 1,3,4
 308 820 308 820 258 910 c 128,-1,5
 208 1000 208 1000 228 1118 c 0,6,7
 256 1290 256 1290 399 1397 c 128,-1,8
 542 1504 542 1504 752 1504 c 0,9,10
 862 1504 862 1504 947 1471 c 128,-1,11
 1032 1438 1032 1438 1079 1383 c 128,-1,12
 1126 1328 1126 1328 1151 1276 c 128,-1,13
 1176 1224 1176 1224 1186 1170 c 1,14,-1
 998 1112 l 1,15,16
 926 1326 926 1326 736 1326 c 0,17,18
 622 1326 622 1326 540 1262 c 128,-1,19
 458 1198 458 1198 442 1098 c 0,20,21
 424 986 424 986 503 918 c 128,-1,22
 582 850 582 850 696 850 c 0,23,24
 794 850 794 850 838 854 c 1,25,-1
 810 676 l 1,26,27
 738 682 738 682 664 682 c 0,28,29
 520 682 520 682 406 610 c 128,-1,30
 292 538 292 538 272 414 c 0,31,32
 250 282 250 282 333 213 c 128,-1,33
 416 144 416 144 548 144 c 0,34,35
 646 144 646 144 750 203 c 128,-1,36
 854 262 854 262 914 346 c 1,37,-1
 1076 282 l 1,38,39
 990 134 990 134 840 50 c 128,-1,40
 690 -34 690 -34 510 -34 c 0,41,42
 274 -34 274 -34 147 86 c 128,-1,43
 20 206 20 206 54 412 c 0,0,1
EndSplineSet
EndChar

StartChar: uni0191
Encoding: 401 401 339
Width: 1112
GlyphClass: 2
Flags: W
LayerCount: 2
Fore
SplineSet
-212 -260 m 1,0,1
 -152 -270 -152 -270 -114 -270 c 0,2,3
 -32 -270 -32 -270 14 -213 c 128,-1,4
 60 -156 60 -156 80 -34 c 2,5,-1
 330 1470 l 1,6,-1
 1234 1470 l 1,7,-1
 1202 1284 l 1,8,-1
 510 1284 l 1,9,-1
 434 828 l 1,10,-1
 1056 828 l 1,11,-1
 1026 646 l 1,12,-1
 404 646 l 1,13,-1
 292 -34 l 2,14,15
 272 -152 272 -152 230 -237 c 128,-1,16
 188 -322 188 -322 131 -367 c 128,-1,17
 74 -412 74 -412 17 -433 c 128,-1,18
 -40 -454 -40 -454 -102 -454 c 0,19,20
 -148 -454 -148 -454 -242 -438 c 1,21,-1
 -212 -260 l 1,0,1
EndSplineSet
EndChar

StartChar: florin
Encoding: 402 402 340
Width: 650
GlyphClass: 2
Flags: W
LayerCount: 2
Fore
SplineSet
-184 -260 m 1,0,1
 -126 -270 -126 -270 -88 -270 c 0,2,3
 68 -270 68 -270 108 -26 c 2,4,-1
 260 892 l 1,5,-1
 98 892 l 1,6,-1
 126 1066 l 1,7,-1
 290 1066 l 1,8,-1
 312 1198 l 2,9,10
 338 1360 338 1360 427 1441 c 128,-1,11
 516 1522 516 1522 654 1522 c 2,12,-1
 806 1522 l 1,13,-1
 776 1346 l 1,14,-1
 654 1346 l 2,15,16
 532 1346 532 1346 504 1180 c 2,17,-1
 486 1066 l 1,18,-1
 706 1066 l 1,19,-1
 676 892 l 1,20,-1
 456 892 l 1,21,-1
 304 -28 l 2,22,23
 266 -254 266 -254 159 -354 c 128,-1,24
 52 -454 52 -454 -80 -454 c 0,25,26
 -124 -454 -124 -454 -214 -438 c 1,27,-1
 -184 -260 l 1,0,1
EndSplineSet
EndChar

StartChar: uni0194
Encoding: 404 404 342
Width: 1226
GlyphClass: 2
Flags: W
LayerCount: 2
Fore
SplineSet
150 1470 m 1,0,-1
 378 1470 l 1,1,-1
 566 434 l 1,2,-1
 578 350 l 1,3,-1
 582 350 l 1,4,-1
 620 434 l 1,5,-1
 1146 1470 l 1,6,-1
 1376 1470 l 1,7,-1
 724 248 l 1,8,9
 860 30 860 30 832 -132 c 0,10,11
 810 -270 810 -270 700 -362 c 128,-1,12
 590 -454 590 -454 444 -454 c 0,13,14
 296 -454 296 -454 216 -366 c 128,-1,15
 136 -278 136 -278 160 -132 c 0,16,17
 172 -64 172 -64 219 16 c 128,-1,18
 266 96 266 96 302 138 c 128,-1,19
 338 180 338 180 402 248 c 1,20,-1
 150 1470 l 1,0,-1
374 -124 m 0,21,22
 362 -192 362 -192 390 -236 c 128,-1,23
 418 -280 418 -280 474 -280 c 256,24,25
 530 -280 530 -280 571 -236 c 128,-1,26
 612 -192 612 -192 622 -124 c 0,27,28
 642 -8 642 -8 540 136 c 1,29,30
 394 0 394 0 374 -124 c 0,21,22
EndSplineSet
EndChar

StartChar: uni0195
Encoding: 405 405 343
Width: 1666
GlyphClass: 2
Flags: W
LayerCount: 2
Fore
SplineSet
42 0 m 1,0,-1
 294 1522 l 1,1,-1
 488 1522 l 1,2,-1
 392 938 l 1,3,-1
 394 938 l 1,4,5
 448 1010 448 1010 530 1056 c 128,-1,6
 612 1102 612 1102 698 1102 c 0,7,8
 750 1102 750 1102 792 1091 c 128,-1,9
 834 1080 834 1080 875 1052 c 128,-1,10
 916 1024 916 1024 940 979 c 128,-1,11
 964 934 964 934 973 860 c 128,-1,12
 982 786 982 786 966 686 c 2,13,-1
 914 376 l 2,14,15
 876 144 876 144 1082 144 c 0,16,17
 1286 144 1286 144 1324 380 c 2,18,-1
 1438 1066 l 1,19,-1
 1636 1066 l 1,20,-1
 1516 348 l 2,21,22
 1484 158 1484 158 1357 62 c 128,-1,23
 1230 -34 1230 -34 1054 -34 c 0,24,25
 972 -34 972 -34 908 -16 c 128,-1,26
 844 2 844 2 791 42 c 128,-1,27
 738 82 738 82 716 157 c 128,-1,28
 694 232 694 232 712 338 c 2,29,-1
 764 658 l 2,30,31
 808 924 808 924 634 924 c 0,32,33
 534 924 534 924 447 834 c 128,-1,34
 360 744 360 744 340 624 c 0,35,36
 340 622 340 622 338 618 c 2,37,-1
 236 0 l 1,38,-1
 42 0 l 1,0,-1
EndSplineSet
EndChar

StartChar: uni0196
Encoding: 406 406 344
Width: 678
GlyphClass: 2
Flags: W
LayerCount: 2
Fore
SplineSet
124 326 m 2,0,-1
 314 1470 l 1,1,-1
 524 1470 l 1,2,-1
 336 334 l 2,3,4
 320 238 320 238 345 195 c 128,-1,5
 370 152 370 152 442 152 c 0,6,7
 512 152 512 152 588 162 c 1,8,-1
 558 -18 l 1,9,10
 410 -34 410 -34 370 -34 c 0,11,12
 234 -34 234 -34 163 51 c 128,-1,13
 92 136 92 136 124 326 c 2,0,-1
EndSplineSet
EndChar

StartChar: uni0197
Encoding: 407 407 345
Width: 552
GlyphClass: 2
Flags: W
LayerCount: 2
Fore
SplineSet
46 656 m 1,0,-1
 74 826 l 1,1,-1
 214 826 l 1,2,-1
 322 1470 l 1,3,-1
 534 1470 l 1,4,-1
 426 826 l 1,5,-1
 568 826 l 1,6,-1
 540 656 l 1,7,-1
 398 656 l 1,8,-1
 290 0 l 1,9,-1
 78 0 l 1,10,-1
 186 656 l 1,11,-1
 46 656 l 1,0,-1
EndSplineSet
EndChar

StartChar: uni0198
Encoding: 408 408 346
Width: 1260
GlyphClass: 2
Flags: W
LayerCount: 2
Fore
SplineSet
68 0 m 1,0,-1
 312 1470 l 1,1,-1
 524 1470 l 1,2,-1
 406 768 l 1,3,-1
 410 768 l 1,4,-1
 1020 1372 l 2,5,6
 1156 1504 1156 1504 1334 1504 c 0,7,8
 1428 1504 1428 1504 1496 1484 c 1,9,-1
 1464 1298 l 1,10,11
 1396 1318 1396 1318 1312 1318 c 0,12,13
 1234 1318 1234 1318 1184 1270 c 2,14,-1
 730 830 l 1,15,-1
 1168 0 l 1,16,-1
 906 0 l 1,17,-1
 570 676 l 1,18,-1
 358 470 l 1,19,-1
 280 0 l 1,20,-1
 68 0 l 1,0,-1
EndSplineSet
EndChar

StartChar: uni0199
Encoding: 409 409 347
Width: 982
GlyphClass: 2
Flags: W
LayerCount: 2
Fore
SplineSet
44 0 m 1,0,-1
 248 1230 l 2,1,2
 274 1390 274 1390 379 1475 c 128,-1,3
 484 1560 484 1560 636 1560 c 0,4,5
 692 1560 692 1560 796 1554 c 1,6,-1
 764 1370 l 1,7,8
 674 1380 674 1380 642 1380 c 0,9,10
 568 1380 568 1380 509 1328 c 128,-1,11
 450 1276 450 1276 434 1190 c 2,12,-1
 338 606 l 1,13,-1
 800 1066 l 1,14,-1
 1052 1066 l 1,15,-1
 612 636 l 1,16,-1
 906 0 l 1,17,-1
 672 0 l 1,18,-1
 462 490 l 1,19,-1
 292 326 l 1,20,-1
 238 0 l 1,21,-1
 44 0 l 1,0,-1
EndSplineSet
EndChar

StartChar: uni019A
Encoding: 410 410 348
Width: 494
GlyphClass: 2
Flags: W
LayerCount: 2
Fore
SplineSet
28 744 m 1,0,-1
 56 914 l 1,1,-1
 208 914 l 1,2,-1
 308 1522 l 1,3,-1
 506 1522 l 1,4,-1
 404 914 l 1,5,-1
 556 914 l 1,6,-1
 528 744 l 1,7,-1
 376 744 l 1,8,-1
 254 0 l 1,9,-1
 56 0 l 1,10,-1
 180 744 l 1,11,-1
 28 744 l 1,0,-1
EndSplineSet
EndChar

StartChar: uni019B
Encoding: 411 411 349
Width: 968
GlyphClass: 2
Flags: W
LayerCount: 2
Fore
SplineSet
-82 0 m 1,0,-1
 476 1054 l 1,1,-1
 466 1118 l 1,2,-1
 222 950 l 1,3,-1
 150 1080 l 1,4,-1
 416 1258 l 1,5,6
 382 1338 382 1338 278 1338 c 2,7,-1
 240 1338 l 1,8,-1
 270 1512 l 1,9,-1
 338 1512 l 2,10,11
 510 1512 510 1512 586 1372 c 1,12,-1
 794 1516 l 1,13,-1
 868 1384 l 1,14,-1
 638 1232 l 1,15,-1
 864 0 l 1,16,-1
 646 0 l 1,17,-1
 568 572 l 2,18,19
 546 744 546 744 538 824 c 1,20,-1
 530 824 l 1,21,22
 494 736 494 736 416 572 c 2,23,-1
 138 0 l 1,24,-1
 -82 0 l 1,0,-1
EndSplineSet
EndChar

StartChar: uni019C
Encoding: 412 412 350
Width: 1856
GlyphClass: 2
Flags: W
LayerCount: 2
Fore
SplineSet
146 478 m 2,0,-1
 310 1470 l 1,1,-1
 522 1470 l 1,2,-1
 354 458 l 2,3,4
 304 150 304 150 486 150 c 0,5,6
 600 150 600 150 695 258 c 128,-1,7
 790 366 790 366 814 518 c 2,8,-1
 972 1470 l 1,9,-1
 1184 1470 l 1,10,-1
 1014 450 l 2,11,12
 988 296 988 296 1029 224 c 128,-1,13
 1070 152 1070 152 1156 152 c 0,14,15
 1274 152 1274 152 1362 253 c 128,-1,16
 1450 354 1450 354 1476 512 c 2,17,-1
 1634 1470 l 1,18,-1
 1844 1470 l 1,19,-1
 1600 0 l 1,20,-1
 1398 0 l 1,21,-1
 1424 154 l 1,22,-1
 1422 154 l 1,23,24
 1372 74 1372 74 1276 20 c 128,-1,25
 1180 -34 1180 -34 1078 -34 c 0,26,27
 842 -34 842 -34 810 186 c 1,28,29
 760 96 760 96 655 31 c 128,-1,30
 550 -34 550 -34 412 -34 c 0,31,32
 62 -34 62 -34 146 478 c 2,0,-1
EndSplineSet
EndChar

StartChar: uni019D
Encoding: 413 413 351
Width: 1394
GlyphClass: 2
Flags: W
LayerCount: 2
Fore
SplineSet
328 1470 m 1,0,-1
 556 1470 l 1,1,-1
 910 548 l 1,2,-1
 992 318 l 1,3,-1
 1004 318 l 1,4,5
 1016 540 1016 540 1048 740 c 2,6,-1
 1170 1470 l 1,7,-1
 1384 1470 l 1,8,-1
 1140 0 l 1,9,-1
 912 0 l 1,10,-1
 558 912 l 1,11,-1
 472 1148 l 1,12,-1
 462 1148 l 1,13,14
 454 940 454 940 418 728 c 2,15,-1
 294 -14 l 2,16,17
 256 -244 256 -244 145 -348 c 128,-1,18
 34 -452 34 -452 -108 -452 c 0,19,20
 -166 -452 -166 -452 -234 -438 c 1,21,-1
 -204 -260 l 1,22,23
 -164 -268 -164 -268 -118 -268 c 0,24,25
 -30 -268 -30 -268 16 -205 c 128,-1,26
 62 -142 62 -142 84 -10 c 2,27,-1
 328 1470 l 1,0,-1
EndSplineSet
EndChar

StartChar: uni019E
Encoding: 414 414 352
Width: 1070
GlyphClass: 2
Flags: W
LayerCount: 2
Fore
SplineSet
32 0 m 1,0,-1
 208 1066 l 1,1,-1
 396 1066 l 1,2,-1
 372 920 l 1,3,-1
 374 920 l 1,4,5
 420 994 420 994 505 1048 c 128,-1,6
 590 1102 590 1102 698 1102 c 0,7,8
 846 1102 846 1102 919 1004 c 128,-1,9
 992 906 992 906 956 686 c 2,10,-1
 768 -446 l 1,11,-1
 574 -446 l 1,12,-1
 756 658 l 2,13,14
 800 924 800 924 628 924 c 0,15,16
 526 924 526 924 439 837 c 128,-1,17
 352 750 352 750 330 624 c 2,18,-1
 228 0 l 1,19,-1
 32 0 l 1,0,-1
EndSplineSet
EndChar

StartChar: uni019F
Encoding: 415 415 353
Width: 1378
GlyphClass: 2
Flags: W
LayerCount: 2
Fore
SplineSet
106 734 m 0,0,1
 164 1080 164 1080 366 1292 c 128,-1,2
 568 1504 568 1504 846 1504 c 256,3,4
 1124 1504 1124 1504 1256 1293 c 128,-1,5
 1388 1082 1388 1082 1330 734 c 0,6,7
 1272 384 1272 384 1070 175 c 128,-1,8
 868 -34 868 -34 592 -34 c 0,9,10
 314 -34 314 -34 181 175 c 128,-1,11
 48 384 48 384 106 734 c 0,0,1
1092 644 m 1,12,-1
 314 644 l 1,13,14
 294 414 294 414 375 283 c 128,-1,15
 456 152 456 152 622 152 c 0,16,17
 786 152 786 152 912 282 c 128,-1,18
 1038 412 1038 412 1092 644 c 1,12,-1
340 814 m 1,19,-1
 1120 814 l 1,20,21
 1144 1046 1144 1046 1066 1182 c 128,-1,22
 988 1318 988 1318 816 1318 c 0,23,24
 646 1318 646 1318 520 1184 c 128,-1,25
 394 1050 394 1050 340 814 c 1,19,-1
EndSplineSet
EndChar

StartChar: uni01A2
Encoding: 418 418 356
Width: 1878
GlyphClass: 2
Flags: W
LayerCount: 2
Fore
SplineSet
104 728 m 0,0,1
 162 1084 162 1084 366 1294 c 128,-1,2
 570 1504 570 1504 836 1504 c 0,3,4
 918 1504 918 1504 1107 1464 c 128,-1,5
 1296 1424 1296 1424 1422 1424 c 0,6,7
 1618 1424 1618 1424 1870 1470 c 1,8,-1
 1626 0 l 1,9,-1
 1416 0 l 1,10,-1
 1624 1260 l 1,11,12
 1526 1240 1526 1240 1392 1240 c 0,13,14
 1286 1240 1286 1240 1188 1256 c 1,15,-1
 1000 120 l 1,16,17
 814 -34 814 -34 582 -34 c 0,18,19
 314 -34 314 -34 181 176 c 128,-1,20
 48 386 48 386 104 728 c 0,0,1
324 728 m 0,21,22
 280 462 280 462 361 307 c 128,-1,23
 442 152 442 152 614 152 c 0,24,25
 704 152 704 152 802 204 c 1,26,-1
 982 1288 l 1,27,28
 974 1290 974 1290 953 1298 c 128,-1,29
 932 1306 932 1306 923 1308 c 128,-1,30
 914 1310 914 1310 895 1314 c 128,-1,31
 876 1318 876 1318 855 1319 c 128,-1,32
 834 1320 834 1320 806 1320 c 0,33,34
 638 1320 638 1320 504 1163 c 128,-1,35
 370 1006 370 1006 324 728 c 0,21,22
EndSplineSet
EndChar

StartChar: uni01A3
Encoding: 419 419 357
Width: 1456
GlyphClass: 2
Flags: W
LayerCount: 2
Fore
SplineSet
62 532 m 256,0,1
 106 800 106 800 256 951 c 128,-1,2
 406 1102 406 1102 618 1102 c 0,3,4
 698 1102 698 1102 842 1072 c 128,-1,5
 986 1042 986 1042 1076 1042 c 0,6,7
 1246 1042 1246 1042 1418 1076 c 1,8,-1
 1240 0 l 1,9,-1
 1044 0 l 1,10,-1
 1190 874 l 1,11,12
 1122 864 1122 864 1046 864 c 0,13,14
 950 864 950 864 908 872 c 1,15,-1
 784 120 l 1,16,17
 638 -34 638 -34 430 -34 c 0,18,19
 218 -34 218 -34 118 115 c 128,-1,20
 18 264 18 264 62 532 c 256,0,1
260 532 m 0,21,22
 230 350 230 350 285 247 c 128,-1,23
 340 144 340 144 460 144 c 0,24,25
 526 144 526 144 604 218 c 1,26,-1
 718 904 l 1,27,28
 642 924 642 924 590 924 c 0,29,30
 464 924 464 924 377 818 c 128,-1,31
 290 712 290 712 260 532 c 0,21,22
EndSplineSet
EndChar

StartChar: uni01A5
Encoding: 421 421 359
Width: 1098
GlyphClass: 2
Flags: W
LayerCount: 2
Fore
SplineSet
322 534 m 0,0,1
 292 352 292 352 343 248 c 128,-1,2
 394 144 394 144 506 144 c 0,3,4
 620 144 620 144 708 248 c 128,-1,5
 796 352 796 352 826 534 c 0,6,7
 856 710 856 710 805 817 c 128,-1,8
 754 924 754 924 636 924 c 0,9,10
 528 924 528 924 440 817 c 128,-1,11
 352 710 352 710 322 534 c 0,0,1
-32 -446 m 1,12,-1
 242 1200 l 2,13,14
 270 1368 270 1368 377 1451 c 128,-1,15
 484 1534 484 1534 624 1534 c 0,16,17
 652 1534 652 1534 782 1524 c 1,18,-1
 752 1344 l 1,19,20
 676 1350 676 1350 628 1350 c 0,21,22
 548 1350 548 1350 494 1297 c 128,-1,23
 440 1244 440 1244 426 1164 c 2,24,-1
 386 916 l 1,25,26
 426 986 426 986 510 1044 c 128,-1,27
 594 1102 594 1102 694 1102 c 0,28,29
 878 1102 878 1102 974 948 c 128,-1,30
 1070 794 1070 794 1028 534 c 0,31,32
 1004 386 1004 386 945 272 c 128,-1,33
 886 158 886 158 812 94 c 128,-1,34
 738 30 738 30 659 -2 c 128,-1,35
 580 -34 580 -34 506 -34 c 0,36,37
 400 -34 400 -34 340 20 c 128,-1,38
 280 74 280 74 262 144 c 1,39,-1
 164 -446 l 1,40,-1
 -32 -446 l 1,12,-1
EndSplineSet
EndChar

StartChar: uni01A6
Encoding: 422 422 360
Width: 1242
GlyphClass: 2
Flags: W
LayerCount: 2
Fore
SplineSet
366 624 m 1,0,-1
 664 624 l 2,1,2
 922 624 922 624 964 866 c 0,3,4
 1000 1088 1000 1088 744 1088 c 2,5,-1
 444 1088 l 1,6,-1
 366 624 l 1,0,-1
50 0 m 1,7,-1
 294 1470 l 1,8,-1
 506 1470 l 1,9,-1
 474 1272 l 1,10,-1
 816 1272 l 2,11,12
 1034 1272 1034 1272 1124 1161 c 128,-1,13
 1214 1050 1214 1050 1186 884 c 0,14,15
 1172 796 1172 796 1134 729 c 128,-1,16
 1096 662 1096 662 1041 620 c 128,-1,17
 986 578 986 578 955 560 c 128,-1,18
 924 542 924 542 876 522 c 1,19,20
 942 474 942 474 963 419 c 128,-1,21
 984 364 984 364 990 262 c 0,22,23
 1014 -2 1014 -2 1084 -166 c 1,24,-1
 848 -166 l 1,25,26
 828 -118 828 -118 813 -54 c 128,-1,27
 798 10 798 10 792 43 c 128,-1,28
 786 76 786 76 776 157 c 128,-1,29
 766 238 766 238 764 252 c 0,30,31
 754 352 754 352 721 397 c 128,-1,32
 688 442 688 442 604 442 c 2,33,-1
 336 442 l 1,34,-1
 264 0 l 1,35,-1
 50 0 l 1,7,-1
EndSplineSet
EndChar

StartChar: uni01A7
Encoding: 423 423 361
Width: 1174
GlyphClass: 2
Flags: W
LayerCount: 2
Fore
SplineSet
32 396 m 0,0,1
 46 486 46 486 91 558 c 128,-1,2
 136 630 136 630 208 678 c 128,-1,3
 280 726 280 726 348 756 c 128,-1,4
 416 786 416 786 510 818 c 0,5,6
 732 888 732 888 794 922 c 0,7,8
 932 992 932 992 950 1106 c 0,9,10
 966 1204 966 1204 901 1261 c 128,-1,11
 836 1318 836 1318 710 1318 c 0,12,13
 514 1318 514 1318 356 1142 c 1,14,-1
 188 1206 l 1,15,16
 274 1334 274 1334 417 1419 c 128,-1,17
 560 1504 560 1504 738 1504 c 0,18,19
 960 1504 960 1504 1080 1395 c 128,-1,20
 1200 1286 1200 1286 1170 1106 c 0,21,22
 1158 1028 1158 1028 1116 961 c 128,-1,23
 1074 894 1074 894 1036 857 c 128,-1,24
 998 820 998 820 912 778 c 128,-1,25
 826 736 826 736 789 723 c 128,-1,26
 752 710 752 710 646 676 c 0,27,28
 630 670 630 670 620 666 c 0,29,30
 540 640 540 640 489 619 c 128,-1,31
 438 598 438 598 380 565 c 128,-1,32
 322 532 322 532 291 487 c 128,-1,33
 260 442 260 442 252 386 c 0,34,35
 234 280 234 280 304 215 c 128,-1,36
 374 150 374 150 500 150 c 0,37,38
 612 150 612 150 724 211 c 128,-1,39
 836 272 836 272 904 364 c 1,40,-1
 1080 298 l 1,41,42
 984 148 984 148 824 57 c 128,-1,43
 664 -34 664 -34 476 -34 c 0,44,45
 248 -34 248 -34 123 79 c 128,-1,46
 -2 192 -2 192 32 396 c 0,0,1
EndSplineSet
EndChar

StartChar: uni01A8
Encoding: 424 424 362
Width: 922
GlyphClass: 2
Flags: W
LayerCount: 2
Fore
SplineSet
10 282 m 0,0,1
 20 348 20 348 57 401 c 128,-1,2
 94 454 94 454 152 491 c 128,-1,3
 210 528 210 528 261 550 c 128,-1,4
 312 572 312 572 384 594 c 0,5,6
 442 612 442 612 466 620 c 128,-1,7
 490 628 490 628 537 647 c 128,-1,8
 584 666 584 666 606 683 c 128,-1,9
 628 700 628 700 648 727 c 128,-1,10
 668 754 668 754 674 786 c 0,11,12
 684 852 684 852 641 888 c 128,-1,13
 598 924 598 924 510 924 c 0,14,15
 358 924 358 924 232 772 c 1,16,-1
 114 858 l 1,17,18
 184 962 184 962 300 1032 c 128,-1,19
 416 1102 416 1102 546 1102 c 0,20,21
 710 1102 710 1102 804 1017 c 128,-1,22
 898 932 898 932 874 786 c 0,23,24
 854 662 854 662 759 593 c 128,-1,25
 664 524 664 524 520 476 c 0,26,27
 502 472 502 472 460 458 c 128,-1,28
 418 444 418 444 399 438 c 128,-1,29
 380 432 380 432 346 417 c 128,-1,30
 312 402 312 402 295 391 c 128,-1,31
 278 380 278 380 256 363 c 128,-1,32
 234 346 234 346 223 326 c 128,-1,33
 212 306 212 306 208 282 c 0,34,35
 198 218 198 218 244 180 c 128,-1,36
 290 142 290 142 378 142 c 0,37,38
 552 142 552 142 686 306 c 1,39,-1
 816 220 l 1,40,41
 736 106 736 106 615 36 c 128,-1,42
 494 -34 494 -34 350 -34 c 0,43,44
 160 -34 160 -34 74 58 c 128,-1,45
 -12 150 -12 150 10 282 c 0,0,1
EndSplineSet
EndChar

StartChar: uni01A9
Encoding: 425 425 363
Width: 1192
GlyphClass: 2
Flags: W
LayerCount: 2
Fore
SplineSet
50 0 m 1,0,-1
 74 142 l 1,1,-1
 686 738 l 1,2,-1
 270 1328 l 1,3,-1
 294 1470 l 1,4,-1
 1234 1470 l 1,5,-1
 1202 1282 l 1,6,-1
 558 1282 l 1,7,-1
 926 738 l 1,8,-1
 376 184 l 1,9,-1
 1032 184 l 1,10,-1
 1002 0 l 1,11,-1
 50 0 l 1,0,-1
EndSplineSet
EndChar

StartChar: uni01AA
Encoding: 426 426 364
Width: 836
GlyphClass: 2
Flags: W
LayerCount: 2
Fore
SplineSet
192 1204 m 0,0,1
 182 1140 182 1140 214 1106 c 128,-1,2
 246 1072 246 1072 298 1072 c 0,3,4
 388 1072 388 1072 452 1126 c 1,5,6
 466 1216 466 1216 442 1276 c 128,-1,7
 418 1336 418 1336 346 1336 c 0,8,9
 290 1336 290 1336 246 1298 c 128,-1,10
 202 1260 202 1260 192 1204 c 0,0,1
2 1194 m 0,11,12
 26 1336 26 1336 130 1420 c 128,-1,13
 234 1504 234 1504 374 1504 c 0,14,15
 536 1504 536 1504 604 1400 c 128,-1,16
 672 1296 672 1296 642 1110 c 2,17,-1
 442 -98 l 2,18,19
 414 -270 414 -270 552 -270 c 0,20,21
 600 -270 600 -270 678 -258 c 1,22,-1
 648 -438 l 1,23,24
 516 -454 516 -454 482 -454 c 0,25,26
 348 -454 348 -454 280 -372 c 128,-1,27
 212 -290 212 -290 242 -112 c 2,28,-1
 418 950 l 1,29,30
 360 902 360 902 240 902 c 0,31,32
 116 902 116 902 48 984 c 128,-1,33
 -20 1066 -20 1066 2 1194 c 0,11,12
EndSplineSet
EndChar

StartChar: uni01AB
Encoding: 427 427 365
Width: 684
GlyphClass: 2
Flags: W
LayerCount: 2
Fore
SplineSet
86 892 m 1,0,-1
 116 1066 l 1,1,-1
 278 1066 l 1,2,-1
 332 1390 l 1,3,-1
 526 1390 l 1,4,-1
 472 1066 l 1,5,-1
 714 1066 l 1,6,-1
 684 892 l 1,7,-1
 444 892 l 1,8,-1
 350 332 l 2,9,10
 336 250 336 250 363 214 c 128,-1,11
 390 178 390 178 454 178 c 0,12,13
 540 178 540 178 598 188 c 1,14,-1
 566 -8 l 2,15,16
 530 -228 530 -228 427 -341 c 128,-1,17
 324 -454 324 -454 172 -454 c 0,18,19
 104 -454 104 -454 44 -440 c 1,20,-1
 74 -258 l 1,21,22
 134 -270 134 -270 178 -270 c 0,23,24
 332 -270 332 -270 370 -40 c 2,25,-1
 378 4 l 1,26,27
 330 8 330 8 280 20 c 0,28,29
 114 74 114 74 154 318 c 2,30,-1
 250 892 l 1,31,-1
 86 892 l 1,0,-1
EndSplineSet
EndChar

StartChar: uni01AC
Encoding: 428 428 366
Width: 1190
GlyphClass: 2
Flags: W
LayerCount: 2
Fore
SplineSet
44 1158 m 0,0,1
 70 1318 70 1318 187 1394 c 128,-1,2
 304 1470 304 1470 476 1470 c 2,3,-1
 1324 1470 l 1,4,-1
 1292 1284 l 1,5,-1
 870 1284 l 1,6,-1
 656 0 l 1,7,-1
 446 0 l 1,8,-1
 658 1284 l 1,9,-1
 448 1284 l 2,10,11
 250 1284 250 1284 226 1142 c 0,12,13
 218 1098 218 1098 222 1056 c 1,14,-1
 36 1056 l 1,15,16
 34 1098 34 1098 44 1158 c 0,0,1
EndSplineSet
EndChar

StartChar: uni01AD
Encoding: 429 429 367
Width: 688
GlyphClass: 2
Flags: W
LayerCount: 2
Fore
SplineSet
86 892 m 1,0,-1
 116 1066 l 1,1,-1
 278 1066 l 1,2,-1
 300 1196 l 2,3,4
 326 1356 326 1356 432 1442 c 128,-1,5
 538 1528 538 1528 686 1528 c 0,6,7
 716 1528 716 1528 846 1520 c 1,8,-1
 816 1338 l 1,9,10
 746 1346 746 1346 692 1346 c 0,11,12
 612 1346 612 1346 557 1298 c 128,-1,13
 502 1250 502 1250 490 1170 c 2,14,-1
 472 1066 l 1,15,-1
 716 1066 l 1,16,-1
 686 892 l 1,17,-1
 444 892 l 1,18,-1
 350 332 l 2,19,20
 336 250 336 250 363 214 c 128,-1,21
 390 178 390 178 454 178 c 2,22,-1
 570 178 l 1,23,-1
 540 0 l 1,24,-1
 400 0 l 2,25,26
 102 0 102 0 154 318 c 2,27,-1
 250 892 l 1,28,-1
 86 892 l 1,0,-1
EndSplineSet
EndChar

StartChar: uni01AE
Encoding: 430 430 368
Width: 1092
GlyphClass: 2
Flags: W
LayerCount: 2
Fore
SplineSet
138 1284 m 1,0,-1
 170 1470 l 1,1,-1
 1228 1470 l 1,2,-1
 1196 1284 l 1,3,-1
 774 1284 l 1,4,-1
 552 -54 l 2,5,6
 534 -168 534 -168 561 -219 c 128,-1,7
 588 -270 588 -270 668 -270 c 0,8,9
 708 -270 708 -270 768 -260 c 1,10,-1
 740 -438 l 1,11,12
 648 -454 648 -454 598 -454 c 0,13,14
 534 -454 534 -454 485 -436 c 128,-1,15
 436 -418 436 -418 393 -375 c 128,-1,16
 350 -332 350 -332 336 -251 c 128,-1,17
 322 -170 322 -170 340 -54 c 2,18,-1
 562 1284 l 1,19,-1
 138 1284 l 1,0,-1
EndSplineSet
EndChar

StartChar: uni01B1
Encoding: 433 433 371
Width: 1436
GlyphClass: 2
Flags: W
LayerCount: 2
Fore
SplineSet
86 612 m 0,0,1
 122 824 122 824 251 971 c 128,-1,2
 380 1118 380 1118 578 1190 c 1,3,-1
 592 1284 l 1,4,-1
 218 1284 l 1,5,-1
 250 1470 l 1,6,-1
 784 1470 l 1,7,-1
 718 1070 l 1,8,9
 544 1024 544 1024 439 899 c 128,-1,10
 334 774 334 774 308 612 c 0,11,12
 276 418 276 418 368 287 c 128,-1,13
 460 156 460 156 652 156 c 0,14,15
 838 156 838 156 975 286 c 128,-1,16
 1112 416 1112 416 1144 612 c 0,17,18
 1170 770 1170 770 1108 896 c 128,-1,19
 1046 1022 1046 1022 884 1070 c 1,20,-1
 950 1470 l 1,21,-1
 1486 1470 l 1,22,-1
 1456 1284 l 1,23,-1
 1080 1284 l 1,24,-1
 1066 1190 l 1,25,26
 1238 1122 1238 1122 1319 973 c 128,-1,27
 1400 824 1400 824 1366 612 c 0,28,29
 1320 332 1320 332 1119 149 c 128,-1,30
 918 -34 918 -34 620 -34 c 0,31,32
 324 -34 324 -34 182 149 c 128,-1,33
 40 332 40 332 86 612 c 0,0,1
EndSplineSet
EndChar

StartChar: uni01B2
Encoding: 434 434 372
Width: 1386
GlyphClass: 2
Flags: W
LayerCount: 2
Fore
SplineSet
148 508 m 2,0,-1
 308 1470 l 1,1,-1
 522 1470 l 1,2,-1
 366 528 l 2,3,4
 332 318 332 318 388 235 c 128,-1,5
 444 152 444 152 584 152 c 0,6,7
 760 152 760 152 921 344 c 128,-1,8
 1082 536 1082 536 1132 832 c 0,9,10
 1172 1070 1172 1070 1130 1194 c 128,-1,11
 1088 1318 1088 1318 980 1318 c 0,12,13
 910 1318 910 1318 830 1296 c 1,14,-1
 862 1486 l 1,15,16
 968 1504 968 1504 1040 1504 c 0,17,18
 1240 1504 1240 1504 1323 1334 c 128,-1,19
 1406 1164 1406 1164 1352 836 c 0,20,21
 1314 602 1314 602 1204 406 c 128,-1,22
 1094 210 1094 210 922 88 c 128,-1,23
 750 -34 750 -34 552 -34 c 0,24,25
 300 -34 300 -34 201 98 c 128,-1,26
 102 230 102 230 148 508 c 2,0,-1
EndSplineSet
EndChar

StartChar: uni01B3
Encoding: 435 435 373
Width: 1212
GlyphClass: 2
Flags: W
LayerCount: 2
Fore
SplineSet
144 1470 m 1,0,-1
 388 1470 l 1,1,-1
 554 1004 l 2,2,3
 596 892 596 892 634 774 c 1,4,-1
 642 774 l 1,5,6
 686 842 686 842 802 1006 c 2,7,-1
 1006 1308 l 2,8,9
 1140 1504 1140 1504 1312 1504 c 0,10,11
 1378 1504 1378 1504 1430 1496 c 1,12,-1
 1400 1312 l 1,13,14
 1364 1320 1364 1320 1306 1320 c 256,15,16
 1250 1320 1250 1320 1158 1194 c 2,17,-1
 716 600 l 1,18,-1
 616 0 l 1,19,-1
 404 0 l 1,20,-1
 504 600 l 1,21,-1
 144 1470 l 1,0,-1
EndSplineSet
EndChar

StartChar: uni01B4
Encoding: 436 436 374
Width: 972
GlyphClass: 2
Flags: W
LayerCount: 2
Fore
SplineSet
96 1066 m 1,0,-1
 316 1066 l 1,1,-1
 404 494 l 2,2,3
 424 350 424 350 436 240 c 1,4,-1
 442 240 l 1,5,6
 466 298 466 298 558 494 c 2,7,-1
 758 924 l 2,8,9
 836 1092 836 1092 1032 1092 c 0,10,11
 1074 1092 1074 1092 1152 1078 c 1,12,-1
 1120 892 l 1,13,14
 1066 908 1066 908 1038 908 c 0,15,16
 958 908 958 908 920 832 c 2,17,-1
 424 -134 l 2,18,19
 338 -302 338 -302 243 -374 c 128,-1,20
 148 -446 148 -446 24 -446 c 2,21,-1
 -48 -446 l 1,22,-1
 -20 -270 l 1,23,-1
 18 -270 l 2,24,25
 96 -270 96 -270 155 -226 c 128,-1,26
 214 -182 214 -182 264 -72 c 2,27,-1
 304 14 l 1,28,-1
 96 1066 l 1,0,-1
EndSplineSet
EndChar

StartChar: uni01B5
Encoding: 437 437 375
Width: 1174
GlyphClass: 2
Flags: W
LayerCount: 2
Fore
SplineSet
192 642 m 1,0,-1
 220 812 l 1,1,-1
 552 812 l 1,2,-1
 952 1284 l 1,3,-1
 244 1284 l 1,4,-1
 276 1470 l 1,5,-1
 1246 1470 l 1,6,-1
 1220 1310 l 1,7,-1
 798 812 l 1,8,-1
 1014 812 l 1,9,-1
 986 642 l 1,10,-1
 648 642 l 1,11,-1
 262 184 l 1,12,-1
 1052 184 l 1,13,-1
 1022 0 l 1,14,-1
 -28 0 l 1,15,-1
 -2 158 l 1,16,-1
 406 642 l 1,17,-1
 192 642 l 1,0,-1
EndSplineSet
EndChar

StartChar: uni01B6
Encoding: 438 438 376
Width: 914
GlyphClass: 2
Flags: W
LayerCount: 2
Fore
SplineSet
-46 0 m 1,0,-1
 -24 138 l 1,1,-1
 262 458 l 1,2,-1
 102 458 l 1,3,-1
 130 628 l 1,4,-1
 414 628 l 1,5,-1
 646 892 l 1,6,-1
 146 892 l 1,7,-1
 176 1066 l 1,8,-1
 932 1066 l 1,9,-1
 910 936 l 1,10,-1
 638 628 l 1,11,-1
 800 628 l 1,12,-1
 772 458 l 1,13,-1
 486 458 l 1,14,-1
 238 176 l 1,15,-1
 806 176 l 1,16,-1
 776 0 l 1,17,-1
 -46 0 l 1,0,-1
EndSplineSet
EndChar

StartChar: uni01B7
Encoding: 439 439 377
Width: 1346
GlyphClass: 2
Flags: W
LayerCount: 2
Fore
SplineSet
-16 -44 m 1,0,-1
 180 28 l 1,1,2
 202 -90 202 -90 284 -174 c 128,-1,3
 366 -258 366 -258 512 -258 c 0,4,5
 694 -258 694 -258 819 -139 c 128,-1,6
 944 -20 944 -20 976 172 c 0,7,8
 1008 366 1008 366 907 480 c 128,-1,9
 806 594 806 594 586 594 c 2,10,-1
 406 594 l 1,11,-1
 434 764 l 1,12,-1
 968 1284 l 1,13,-1
 264 1284 l 1,14,-1
 296 1470 l 1,15,-1
 1320 1470 l 1,16,-1
 1300 1346 l 1,17,-1
 700 772 l 1,18,-1
 732 770 l 1,19,20
 986 744 986 744 1112 586 c 128,-1,21
 1238 428 1238 428 1196 172 c 0,22,23
 1150 -102 1150 -102 953 -271 c 128,-1,24
 756 -440 756 -440 488 -440 c 0,25,26
 262 -440 262 -440 140 -325 c 128,-1,27
 18 -210 18 -210 -16 -44 c 1,0,-1
EndSplineSet
EndChar

StartChar: uni01B8
Encoding: 440 440 378
Width: 1346
GlyphClass: 2
Flags: W
LayerCount: 2
Fore
SplineSet
20 172 m 0,0,1
 62 426 62 426 248 589 c 128,-1,2
 434 752 434 752 682 770 c 2,3,-1
 716 772 l 1,4,-1
 306 1346 l 1,5,-1
 328 1470 l 1,6,-1
 1352 1470 l 1,7,-1
 1322 1284 l 1,8,-1
 616 1284 l 1,9,-1
 980 764 l 1,10,-1
 952 594 l 1,11,-1
 772 594 l 2,12,13
 552 594 552 594 412 480 c 128,-1,14
 272 366 272 366 240 172 c 0,15,16
 208 -20 208 -20 295 -139 c 128,-1,17
 382 -258 382 -258 562 -258 c 0,18,19
 708 -258 708 -258 819 -174 c 128,-1,20
 930 -90 930 -90 988 28 c 1,21,-1
 1160 -44 l 1,22,23
 1074 -212 1074 -212 914 -326 c 128,-1,24
 754 -440 754 -440 528 -440 c 0,25,26
 260 -440 260 -440 117 -271 c 128,-1,27
 -26 -102 -26 -102 20 172 c 0,0,1
EndSplineSet
EndChar

StartChar: uni01B9
Encoding: 441 441 379
Width: 1070
GlyphClass: 2
Flags: W
LayerCount: 2
Fore
SplineSet
-10 38 m 0,0,1
 22 228 22 228 163 363 c 128,-1,2
 304 498 304 498 486 508 c 1,3,-1
 520 508 l 1,4,-1
 198 936 l 1,5,-1
 220 1066 l 1,6,-1
 1026 1066 l 1,7,-1
 996 892 l 1,8,-1
 480 892 l 1,9,-1
 764 496 l 1,10,-1
 740 354 l 1,11,-1
 570 354 l 2,12,13
 410 354 410 354 312 266 c 128,-1,14
 214 178 214 178 190 38 c 0,15,16
 168 -96 168 -96 228 -186 c 128,-1,17
 288 -276 288 -276 414 -276 c 0,18,19
 516 -276 516 -276 596 -211 c 128,-1,20
 676 -146 676 -146 724 -48 c 1,21,-1
 892 -98 l 1,22,23
 820 -254 820 -254 688 -354 c 128,-1,24
 556 -454 556 -454 380 -454 c 0,25,26
 172 -454 172 -454 63 -314 c 128,-1,27
 -46 -174 -46 -174 -10 38 c 0,0,1
EndSplineSet
EndChar

StartChar: uni01BA
Encoding: 442 442 380
Width: 842
GlyphClass: 2
Flags: W
LayerCount: 2
Fore
SplineSet
-42 -126 m 0,0,1
 -30 -52 -30 -52 30 11 c 128,-1,2
 90 74 90 74 166 117 c 128,-1,3
 242 160 242 160 317 199 c 128,-1,4
 392 238 392 238 449 281 c 128,-1,5
 506 324 506 324 512 368 c 0,6,7
 520 420 520 420 460 454 c 128,-1,8
 400 488 400 488 280 488 c 2,9,-1
 214 488 l 1,10,-1
 232 600 l 1,11,-1
 570 892 l 1,12,-1
 132 892 l 1,13,-1
 160 1066 l 1,14,-1
 854 1066 l 1,15,-1
 832 928 l 1,16,-1
 452 608 l 1,17,-1
 490 606 l 2,18,19
 606 600 606 600 669 543 c 128,-1,20
 732 486 732 486 714 378 c 0,21,22
 702 302 702 302 643 238 c 128,-1,23
 584 174 584 174 507 131 c 128,-1,24
 430 88 430 88 354 49 c 128,-1,25
 278 10 278 10 223 -31 c 128,-1,26
 168 -72 168 -72 162 -114 c 0,27,28
 144 -220 144 -220 286 -220 c 0,29,30
 346 -220 346 -220 490 -192 c 1,31,-1
 460 -372 l 1,32,33
 336 -396 336 -396 226 -396 c 0,34,35
 84 -396 84 -396 10 -326 c 128,-1,36
 -64 -256 -64 -256 -42 -126 c 0,0,1
EndSplineSet
EndChar

StartChar: uni01BB
Encoding: 443 443 381
Width: 1072
GlyphClass: 2
Flags: W
LayerCount: 2
Fore
SplineSet
202 624 m 1,0,-1
 230 796 l 1,1,-1
 652 796 l 1,2,3
 804 938 804 938 832 1092 c 0,4,5
 850 1206 850 1206 797 1266 c 128,-1,6
 744 1326 744 1326 650 1326 c 0,7,8
 458 1324 458 1324 340 1064 c 1,9,-1
 172 1118 l 1,10,11
 238 1290 238 1290 369 1397 c 128,-1,12
 500 1504 500 1504 686 1504 c 0,13,14
 878 1504 878 1504 980 1390 c 128,-1,15
 1082 1276 1082 1276 1050 1082 c 0,16,17
 1026 940 1026 940 900 796 c 1,18,-1
 1062 796 l 1,19,-1
 1034 624 l 1,20,-1
 728 624 l 1,21,22
 710 610 710 610 641 551 c 128,-1,23
 572 492 572 492 552 474 c 128,-1,24
 532 456 532 456 479 408 c 128,-1,25
 426 360 426 360 403 331 c 128,-1,26
 380 302 380 302 345 261 c 128,-1,27
 310 220 310 220 286 178 c 1,28,-1
 894 178 l 1,29,-1
 864 0 l 1,30,-1
 0 0 l 1,31,32
 26 156 26 156 143 303 c 128,-1,33
 260 450 260 450 458 624 c 1,34,-1
 202 624 l 1,0,-1
EndSplineSet
EndChar

StartChar: uni01BC
Encoding: 444 444 382
Width: 1122
GlyphClass: 2
Flags: W
LayerCount: 2
Fore
SplineSet
32 262 m 1,0,-1
 214 324 l 1,1,2
 264 144 264 144 462 144 c 0,3,4
 590 144 590 144 678 225 c 128,-1,5
 766 306 766 306 788 442 c 0,6,7
 808 566 808 566 735 655 c 128,-1,8
 662 744 662 744 488 744 c 0,9,10
 376 744 376 744 242 716 c 1,11,-1
 404 1286 l 1,12,-1
 312 1286 l 1,13,-1
 342 1470 l 1,14,-1
 1106 1470 l 1,15,-1
 1074 1284 l 1,16,-1
 602 1284 l 1,17,-1
 498 918 l 1,18,19
 520 922 520 922 600 922 c 0,20,21
 822 922 822 922 933 788 c 128,-1,22
 1044 654 1044 654 1010 446 c 0,23,24
 976 246 976 246 826 106 c 128,-1,25
 676 -34 676 -34 442 -34 c 0,26,27
 270 -34 270 -34 166 50 c 128,-1,28
 62 134 62 134 32 262 c 1,0,-1
EndSplineSet
EndChar

StartChar: uni01BD
Encoding: 445 445 383
Width: 894
GlyphClass: 2
Flags: W
LayerCount: 2
Fore
SplineSet
20 202 m 1,0,-1
 190 276 l 1,1,2
 206 216 206 216 250 179 c 128,-1,3
 294 142 294 142 352 142 c 0,4,5
 440 142 440 142 497 192 c 128,-1,6
 554 242 554 242 568 324 c 0,7,8
 580 402 580 402 527 462 c 128,-1,9
 474 522 474 522 368 522 c 0,10,11
 288 522 288 522 168 504 c 1,12,-1
 292 892 l 1,13,-1
 222 892 l 1,14,-1
 250 1066 l 1,15,-1
 824 1066 l 1,16,-1
 796 892 l 1,17,-1
 462 892 l 1,18,-1
 400 698 l 1,19,-1
 448 698 l 2,20,21
 620 698 620 698 707 593 c 128,-1,22
 794 488 794 488 768 332 c 0,23,24
 742 180 742 180 628 73 c 128,-1,25
 514 -34 514 -34 324 -34 c 0,26,27
 88 -34 88 -34 20 202 c 1,0,-1
EndSplineSet
EndChar

StartChar: uni01BE
Encoding: 446 446 384
Width: 828
GlyphClass: 2
Flags: W
LayerCount: 2
Fore
SplineSet
100 892 m 1,0,-1
 130 1066 l 1,1,-1
 276 1066 l 1,2,-1
 328 1384 l 1,3,-1
 522 1384 l 1,4,-1
 470 1066 l 1,5,-1
 700 1066 l 1,6,-1
 672 892 l 1,7,-1
 440 892 l 1,8,-1
 426 802 l 2,9,10
 416 736 416 736 445 685 c 128,-1,11
 474 634 474 634 522 600 c 128,-1,12
 570 566 570 566 616 528 c 128,-1,13
 662 490 662 490 689 428 c 128,-1,14
 716 366 716 366 702 282 c 0,15,16
 680 150 680 150 583 58 c 128,-1,17
 486 -34 486 -34 310 -34 c 0,18,19
 80 -34 80 -34 0 190 c 1,20,-1
 156 270 l 1,21,22
 218 144 218 144 334 144 c 0,23,24
 406 144 406 144 451 180 c 128,-1,25
 496 216 496 216 506 276 c 0,26,27
 514 326 514 326 483 364 c 128,-1,28
 452 402 452 402 405 435 c 128,-1,29
 358 468 358 468 312 507 c 128,-1,30
 266 546 266 546 240 616 c 128,-1,31
 214 686 214 686 230 782 c 2,32,-1
 248 892 l 1,33,-1
 100 892 l 1,0,-1
EndSplineSet
EndChar

StartChar: uni01BF
Encoding: 447 447 385
Width: 1080
GlyphClass: 2
Flags: W
LayerCount: 2
Fore
SplineSet
-32 -446 m 1,0,-1
 218 1066 l 1,1,-1
 408 1066 l 1,2,-1
 394 980 l 1,3,4
 532 1102 532 1102 702 1102 c 0,5,6
 894 1102 894 1102 979 983 c 128,-1,7
 1064 864 1064 864 1034 672 c 0,8,9
 942 114 942 114 238 4 c 1,10,-1
 164 -446 l 1,11,-1
 -32 -446 l 1,0,-1
266 174 m 1,12,13
 484 206 484 206 641 327 c 128,-1,14
 798 448 798 448 832 646 c 0,15,16
 856 786 856 786 803 855 c 128,-1,17
 750 924 750 924 650 924 c 0,18,19
 570 924 570 924 492 881 c 128,-1,20
 414 838 414 838 366 778 c 1,21,-1
 266 174 l 1,12,13
EndSplineSet
EndChar

StartChar: uni01C0
Encoding: 448 448 386
Width: 468
GlyphClass: 2
Flags: W
LayerCount: 2
Fore
SplineSet
-20 -412 m 1,0,-1
 318 1630 l 1,1,-1
 504 1630 l 1,2,-1
 166 -412 l 1,3,-1
 -20 -412 l 1,0,-1
EndSplineSet
EndChar

StartChar: uni01C1
Encoding: 449 449 387
Width: 828
GlyphClass: 2
Flags: W
LayerCount: 2
Fore
SplineSet
-20 -412 m 1,0,-1
 318 1630 l 1,1,-1
 504 1630 l 1,2,-1
 166 -412 l 1,3,-1
 -20 -412 l 1,0,-1
342 -412 m 1,4,-1
 680 1630 l 1,5,-1
 866 1630 l 1,6,-1
 528 -412 l 1,7,-1
 342 -412 l 1,4,-1
EndSplineSet
EndChar

StartChar: uni01C2
Encoding: 450 450 388
Width: 662
GlyphClass: 2
Flags: W
LayerCount: 2
Fore
SplineSet
74 828 m 1,0,-1
 98 974 l 1,1,-1
 310 974 l 1,2,-1
 418 1630 l 1,3,-1
 604 1630 l 1,4,-1
 496 974 l 1,5,-1
 702 974 l 1,6,-1
 678 828 l 1,7,-1
 472 828 l 1,8,-1
 426 546 l 1,9,-1
 632 546 l 1,10,-1
 608 402 l 1,11,-1
 402 402 l 1,12,-1
 266 -412 l 1,13,-1
 80 -412 l 1,14,-1
 216 402 l 1,15,-1
 4 402 l 1,16,-1
 28 546 l 1,17,-1
 240 546 l 1,18,-1
 286 828 l 1,19,-1
 74 828 l 1,0,-1
EndSplineSet
EndChar

StartChar: uni01DD
Encoding: 477 477 415
Width: 1046
GlyphClass: 2
Flags: W
LayerCount: 2
Fore
SplineSet
54 514 m 0,0,1
 60 546 60 546 74 604 c 1,2,-1
 790 604 l 1,3,4
 812 738 812 738 754 834 c 128,-1,5
 696 930 696 930 564 930 c 0,6,7
 470 930 470 930 397 884 c 128,-1,8
 324 838 324 838 280 768 c 1,9,-1
 126 826 l 1,10,11
 194 944 194 944 314 1023 c 128,-1,12
 434 1102 434 1102 598 1102 c 0,13,14
 810 1102 810 1102 913 943 c 128,-1,15
 1016 784 1016 784 974 526 c 0,16,17
 932 270 932 270 776 118 c 128,-1,18
 620 -34 620 -34 418 -34 c 0,19,20
 218 -34 218 -34 116 118 c 128,-1,21
 14 270 14 270 54 514 c 0,0,1
242 454 m 1,22,23
 220 322 220 322 274 228 c 128,-1,24
 328 134 328 134 446 134 c 256,25,26
 564 134 564 134 650 227 c 128,-1,27
 736 320 736 320 764 454 c 1,28,-1
 242 454 l 1,22,23
EndSplineSet
EndChar

StartChar: uni01E4
Encoding: 484 484 422
Width: 1410
GlyphClass: 2
Flags: W
LayerCount: 2
Fore
SplineSet
106 736 m 0,0,1
 160 1066 160 1066 367 1285 c 128,-1,2
 574 1504 574 1504 880 1504 c 0,3,4
 982 1504 982 1504 1066 1470 c 128,-1,5
 1150 1436 1150 1436 1201 1381 c 128,-1,6
 1252 1326 1252 1326 1284 1273 c 128,-1,7
 1316 1220 1316 1220 1330 1166 c 1,8,-1
 1136 1104 l 1,9,10
 1112 1152 1112 1152 1099 1174 c 128,-1,11
 1086 1196 1086 1196 1051 1237 c 128,-1,12
 1016 1278 1016 1278 966 1298 c 128,-1,13
 916 1318 916 1318 850 1318 c 0,14,15
 650 1318 650 1318 509 1160 c 128,-1,16
 368 1002 368 1002 324 736 c 256,17,18
 280 470 280 470 368 311 c 128,-1,19
 456 152 456 152 640 152 c 0,20,21
 744 152 744 152 835 203 c 128,-1,22
 926 254 926 254 984 348 c 1,23,-1
 626 348 l 1,24,-1
 648 486 l 1,25,-1
 1050 486 l 1,26,27
 1062 524 1062 524 1068 554 c 2,28,-1
 1080 632 l 1,29,-1
 706 632 l 1,30,-1
 736 812 l 1,31,-1
 1316 812 l 1,32,-1
 1262 486 l 1,33,-1
 1384 486 l 1,34,-1
 1360 348 l 1,35,-1
 1240 348 l 1,36,-1
 1182 0 l 1,37,-1
 1030 0 l 1,38,-1
 1042 172 l 1,39,40
 892 -34 892 -34 608 -34 c 0,41,42
 332 -34 332 -34 190 173 c 128,-1,43
 48 380 48 380 106 736 c 0,0,1
EndSplineSet
EndChar

StartChar: uni01E5
Encoding: 485 485 423
Width: 1082
GlyphClass: 2
Flags: W
LayerCount: 2
Fore
SplineSet
72 576 m 0,0,1
 110 808 110 808 252 955 c 128,-1,2
 394 1102 394 1102 578 1102 c 0,3,4
 678 1102 678 1102 737 1048 c 128,-1,5
 796 994 796 994 810 928 c 1,6,-1
 834 1066 l 1,7,-1
 1028 1066 l 1,8,-1
 880 178 l 2,9,10
 860 52 860 52 840 -16 c 1,11,-1
 970 -16 l 1,12,-1
 948 -144 l 1,13,-1
 794 -144 l 1,14,15
 724 -298 724 -298 615 -376 c 128,-1,16
 506 -454 506 -454 332 -454 c 0,17,18
 82 -454 82 -454 -24 -252 c 1,19,-1
 124 -156 l 1,20,21
 204 -286 204 -286 362 -286 c 0,22,23
 502 -286 502 -286 594 -144 c 1,24,-1
 258 -144 l 1,25,-1
 280 -16 l 1,26,-1
 644 -16 l 1,27,28
 662 32 662 32 678 126 c 2,29,-1
 696 234 l 1,30,31
 650 164 650 164 572 119 c 128,-1,32
 494 74 494 74 408 74 c 0,33,34
 226 74 226 74 130 210 c 128,-1,35
 34 346 34 346 72 576 c 0,0,1
272 576 m 0,36,37
 246 422 246 422 301 336 c 128,-1,38
 356 250 356 250 456 250 c 0,39,40
 558 250 558 250 642 342 c 128,-1,41
 726 434 726 434 750 590 c 0,42,43
 776 744 776 744 725 834 c 128,-1,44
 674 924 674 924 570 924 c 0,45,46
 464 924 464 924 381 826 c 128,-1,47
 298 728 298 728 272 576 c 0,36,37
EndSplineSet
EndChar

StartChar: uni01EF
Encoding: 495 495 433
Width: 1070
GlyphClass: 2
Flags: W
LayerCount: 2
Fore
SplineSet
316 1574 m 1,0,-1
 512 1574 l 1,1,-1
 658 1362 l 1,2,-1
 876 1574 l 1,3,-1
 1070 1574 l 1,4,-1
 724 1250 l 1,5,-1
 552 1250 l 1,6,-1
 316 1574 l 1,0,-1
-38 -98 m 1,7,-1
 144 -48 l 1,8,9
 162 -146 162 -146 220 -211 c 128,-1,10
 278 -276 278 -276 380 -276 c 0,11,12
 506 -276 506 -276 595 -186 c 128,-1,13
 684 -96 684 -96 708 44 c 0,14,15
 730 180 730 180 660 267 c 128,-1,16
 590 354 590 354 432 354 c 2,17,-1
 262 354 l 1,18,-1
 286 496 l 1,19,-1
 700 892 l 1,20,-1
 184 892 l 1,21,-1
 212 1066 l 1,22,-1
 1020 1066 l 1,23,-1
 998 936 l 1,24,-1
 534 508 l 1,25,-1
 616 498 l 1,26,27
 770 468 770 468 855 343 c 128,-1,28
 940 218 940 218 912 44 c 0,29,30
 876 -174 876 -174 722 -314 c 128,-1,31
 568 -454 568 -454 356 -454 c 0,32,33
 180 -454 180 -454 80 -354 c 128,-1,34
 -20 -254 -20 -254 -38 -98 c 1,7,-1
EndSplineSet
EndChar

StartChar: uni01F6
Encoding: 502 502 440
Width: 1948
GlyphClass: 2
Flags: W
LayerCount: 2
Fore
SplineSet
68 0 m 1,0,-1
 312 1470 l 1,1,-1
 524 1470 l 1,2,-1
 420 848 l 1,3,-1
 1026 848 l 1,4,-1
 1128 1470 l 1,5,-1
 1342 1470 l 1,6,-1
 1166 400 l 2,7,8
 1144 268 1144 268 1193 206 c 128,-1,9
 1242 144 1242 144 1342 144 c 0,10,11
 1434 144 1434 144 1505 209 c 128,-1,12
 1576 274 1576 274 1594 380 c 2,13,-1
 1706 1066 l 1,14,-1
 1916 1066 l 1,15,-1
 1798 356 l 2,16,17
 1766 164 1766 164 1629 65 c 128,-1,18
 1492 -34 1492 -34 1312 -34 c 0,19,20
 1130 -34 1130 -34 1020 59 c 128,-1,21
 910 152 910 152 944 356 c 2,22,-1
 996 664 l 1,23,-1
 390 664 l 1,24,-1
 280 0 l 1,25,-1
 68 0 l 1,0,-1
EndSplineSet
EndChar

StartChar: uni01F7
Encoding: 503 503 441
Width: 1246
GlyphClass: 2
Flags: W
LayerCount: 2
Fore
SplineSet
-4 -434 m 1,0,-1
 312 1470 l 1,1,-1
 524 1470 l 1,2,-1
 502 1328 l 1,3,4
 708 1504 708 1504 904 1504 c 0,5,6
 1114 1504 1114 1504 1198 1367 c 128,-1,7
 1282 1230 1282 1230 1240 986 c 0,8,9
 1216 840 1216 840 1142 703 c 128,-1,10
 1068 566 1068 566 969 462 c 128,-1,11
 870 358 870 358 745 265 c 128,-1,12
 620 172 620 172 508 111 c 128,-1,13
 396 50 396 50 282 2 c 1,14,-1
 210 -434 l 1,15,-1
 -4 -434 l 1,0,-1
316 210 m 1,16,17
 422 262 422 262 526 332 c 128,-1,18
 630 402 630 402 738 498 c 128,-1,19
 846 594 846 594 924 719 c 128,-1,20
 1002 844 1002 844 1024 976 c 0,21,22
 1050 1138 1050 1138 1000 1229 c 128,-1,23
 950 1320 950 1320 830 1320 c 0,24,25
 744 1320 744 1320 642 1259 c 128,-1,26
 540 1198 540 1198 466 1114 c 1,27,-1
 316 210 l 1,16,17
EndSplineSet
EndChar

StartChar: Aringacute
Encoding: 506 506 444
Width: 1276
GlyphClass: 2
Flags: W
LayerCount: 2
Fore
SplineSet
-102 0 m 1,0,-1
 670 1470 l 1,1,-1
 694 1470 l 1,2,3
 640 1488 640 1488 604 1534 c 0,4,5
 534 1610 534 1610 552 1722 c 0,6,7
 570 1830 570 1830 662 1908 c 0,8,9
 720 1958 720 1958 790 1974 c 1,10,-1
 986 2220 l 1,11,-1
 1236 2220 l 1,12,-1
 970 1968 l 1,13,14
 1024 1950 1024 1950 1060 1908 c 0,15,16
 1124 1830 1124 1830 1104 1722 c 0,17,18
 1086 1610 1086 1610 994 1534 c 0,19,20
 940 1488 940 1488 880 1470 c 1,21,-1
 908 1470 l 1,22,-1
 1192 0 l 1,23,-1
 962 0 l 1,24,-1
 900 384 l 1,25,-1
 320 384 l 1,26,-1
 128 0 l 1,27,-1
 -102 0 l 1,0,-1
402 558 m 1,28,-1
 872 558 l 1,29,-1
 802 974 l 2,30,31
 796 1008 796 1008 781 1111 c 128,-1,32
 766 1214 766 1214 758 1264 c 1,33,-1
 748 1264 l 1,34,35
 712 1190 712 1190 610 974 c 2,36,-1
 402 558 l 1,28,-1
694 1722 m 0,37,38
 684 1664 684 1664 716 1626 c 128,-1,39
 748 1588 748 1588 804 1588 c 256,40,41
 860 1588 860 1588 906 1625 c 128,-1,42
 952 1662 952 1662 962 1722 c 0,43,44
 972 1778 972 1778 941 1816 c 128,-1,45
 910 1854 910 1854 848 1854 c 0,46,47
 790 1854 790 1854 746 1815 c 128,-1,48
 702 1776 702 1776 694 1722 c 0,37,38
EndSplineSet
EndChar

StartChar: aringacute
Encoding: 507 507 445
Width: 1028
GlyphClass: 2
Flags: W
LayerCount: 2
Fore
SplineSet
16 274 m 0,0,1
 66 574 66 574 502 644 c 0,2,3
 684 672 684 672 740 690 c 1,4,-1
 750 750 l 2,5,6
 764 834 764 834 715 884 c 128,-1,7
 666 934 666 934 568 934 c 0,8,9
 394 934 394 934 248 786 c 1,10,-1
 144 894 l 1,11,12
 238 992 238 992 354 1047 c 128,-1,13
 470 1102 470 1102 592 1102 c 0,14,15
 1006 1102 1006 1102 934 670 c 2,16,-1
 822 0 l 1,17,-1
 632 0 l 1,18,-1
 656 148 l 1,19,20
 614 74 614 74 521 20 c 128,-1,21
 428 -34 428 -34 318 -34 c 0,22,23
 154 -34 154 -34 74 52 c 128,-1,24
 -6 138 -6 138 16 274 c 0,0,1
392 1456 m 0,25,26
 410 1564 410 1564 498 1642 c 0,27,28
 556 1694 556 1694 626 1712 c 1,29,-1
 814 1956 l 1,30,-1
 1056 1956 l 1,31,-1
 798 1704 l 1,32,33
 850 1684 850 1684 884 1642 c 0,34,35
 944 1564 944 1564 926 1456 c 0,36,37
 908 1346 908 1346 818 1269 c 128,-1,38
 728 1192 728 1192 614 1192 c 0,39,40
 506 1192 506 1192 440 1269 c 128,-1,41
 374 1346 374 1346 392 1456 c 0,25,26
218 292 m 0,42,43
 208 228 208 228 249 184 c 128,-1,44
 290 140 290 140 374 140 c 0,45,46
 490 140 490 140 583 219 c 128,-1,47
 676 298 676 298 696 424 c 2,48,-1
 716 540 l 1,49,50
 632 518 632 518 494 496 c 0,51,52
 368 474 368 474 300 425 c 128,-1,53
 232 376 232 376 218 292 c 0,42,43
528 1456 m 256,54,55
 518 1400 518 1400 549 1361 c 128,-1,56
 580 1322 580 1322 636 1322 c 256,57,58
 692 1322 692 1322 736 1360 c 128,-1,59
 780 1398 780 1398 788 1456 c 256,60,61
 798 1514 798 1514 768 1552 c 128,-1,62
 738 1590 738 1590 680 1590 c 0,63,64
 624 1590 624 1590 581 1551 c 128,-1,65
 538 1512 538 1512 528 1456 c 256,54,55
EndSplineSet
EndChar

StartChar: uni021C
Encoding: 540 540 478
Width: 1114
GlyphClass: 2
Flags: W
LayerCount: 2
Fore
SplineSet
-56 -218 m 1,0,1
 92 -252 92 -252 232 -252 c 0,2,3
 432 -252 432 -252 574 -141 c 128,-1,4
 716 -30 716 -30 748 158 c 0,5,6
 782 358 782 358 697 449 c 128,-1,7
 612 540 612 540 482 540 c 0,8,9
 378 540 378 540 258 494 c 1,10,-1
 290 682 l 1,11,-1
 500 728 l 2,12,13
 648 762 648 762 748 848 c 128,-1,14
 848 934 848 934 870 1060 c 0,15,16
 890 1176 890 1176 829 1245 c 128,-1,17
 768 1314 768 1314 638 1314 c 0,18,19
 460 1314 460 1314 342 1136 c 1,20,-1
 186 1214 l 1,21,22
 260 1346 260 1346 389 1425 c 128,-1,23
 518 1504 518 1504 670 1504 c 0,24,25
 914 1504 914 1504 1021 1389 c 128,-1,26
 1128 1274 1128 1274 1096 1084 c 0,27,28
 1068 920 1068 920 964 807 c 128,-1,29
 860 694 860 694 738 646 c 1,30,31
 858 608 858 608 930 484 c 128,-1,32
 1002 360 1002 360 968 156 c 0,33,34
 922 -122 922 -122 711 -281 c 128,-1,35
 500 -440 500 -440 204 -440 c 0,36,37
 82 -440 82 -440 -88 -412 c 1,38,-1
 -56 -218 l 1,0,1
EndSplineSet
EndChar

StartChar: uni021D
Encoding: 541 541 479
Width: 846
GlyphClass: 2
Flags: W
LayerCount: 2
Fore
SplineSet
-70 -252 m 1,0,1
 42 -276 42 -276 142 -276 c 0,2,3
 274 -276 274 -276 367 -199 c 128,-1,4
 460 -122 460 -122 484 24 c 0,5,6
 506 158 506 158 453 231 c 128,-1,7
 400 304 400 304 310 304 c 0,8,9
 252 304 252 304 162 276 c 1,10,-1
 190 450 l 1,11,-1
 338 484 l 2,12,13
 438 508 438 508 506 577 c 128,-1,14
 574 646 574 646 588 732 c 256,15,16
 602 818 602 818 570 871 c 128,-1,17
 538 924 538 924 458 924 c 0,18,19
 338 924 338 924 260 786 c 1,20,-1
 118 850 l 1,21,22
 168 960 168 960 268 1031 c 128,-1,23
 368 1102 368 1102 498 1102 c 0,24,25
 660 1102 660 1102 736 999 c 128,-1,26
 812 896 812 896 788 760 c 0,27,28
 748 516 748 516 528 408 c 1,29,30
 612 378 612 378 661 278 c 128,-1,31
 710 178 710 178 686 32 c 0,32,33
 648 -202 648 -202 497 -327 c 128,-1,34
 346 -452 346 -452 116 -452 c 0,35,36
 14 -452 14 -452 -100 -434 c 1,37,-1
 -70 -252 l 1,0,1
EndSplineSet
EndChar

StartChar: uni0220
Encoding: 544 544 482
Width: 1358
GlyphClass: 2
Flags: W
LayerCount: 2
Fore
SplineSet
68 0 m 1,0,-1
 312 1470 l 1,1,-1
 514 1470 l 1,2,-1
 486 1300 l 1,3,-1
 488 1300 l 1,4,5
 684 1504 684 1504 930 1504 c 0,6,7
 1358 1504 1358 1504 1272 984 c 2,8,-1
 1034 -446 l 1,9,-1
 822 -446 l 1,10,-1
 1056 966 l 2,11,12
 1084 1140 1084 1140 1037 1229 c 128,-1,13
 990 1318 990 1318 848 1318 c 0,14,15
 712 1318 712 1318 586 1202 c 128,-1,16
 460 1086 460 1086 434 938 c 2,17,-1
 280 0 l 1,18,-1
 68 0 l 1,0,-1
EndSplineSet
EndChar

StartChar: uni0221
Encoding: 545 545 483
Width: 1408
GlyphClass: 2
Flags: W
LayerCount: 2
Fore
SplineSet
864 -182 m 1,0,1
 872 -230 872 -230 907 -264 c 128,-1,2
 942 -298 942 -298 998 -298 c 0,3,4
 1048 -298 1048 -298 1079 -272 c 128,-1,5
 1110 -246 1110 -246 1116 -206 c 0,6,7
 1122 -164 1122 -164 1097 -134 c 128,-1,8
 1072 -104 1072 -104 1026 -104 c 0,9,10
 940 -104 940 -104 864 -182 c 1,0,1
62 534 m 0,11,12
 106 796 106 796 252 949 c 128,-1,13
 398 1102 398 1102 584 1102 c 0,14,15
 680 1102 680 1102 743 1049 c 128,-1,16
 806 996 806 996 828 926 c 1,17,-1
 926 1522 l 1,18,-1
 1122 1522 l 1,19,-1
 886 102 l 2,20,21
 870 4 870 4 872 -10 c 1,22,23
 954 54 954 54 1054 54 c 0,24,25
 1180 54 1180 54 1242 -19 c 128,-1,26
 1304 -92 1304 -92 1288 -198 c 0,27,28
 1268 -314 1268 -314 1183 -384 c 128,-1,29
 1098 -454 1098 -454 972 -454 c 0,30,31
 828 -454 828 -454 758 -336 c 1,32,33
 732 -372 732 -372 690 -452 c 1,34,-1
 538 -390 l 1,35,36
 614 -248 614 -248 672 -180 c 1,37,38
 660 -124 660 -124 682 40 c 2,39,-1
 702 154 l 1,40,41
 658 80 658 80 576 23 c 128,-1,42
 494 -34 494 -34 394 -34 c 0,43,44
 314 -34 314 -34 247 -2 c 128,-1,45
 180 30 180 30 128 94 c 128,-1,46
 76 158 76 158 57 272 c 128,-1,47
 38 386 38 386 62 534 c 0,11,12
262 534 m 0,48,49
 232 350 232 350 285 247 c 128,-1,50
 338 144 338 144 450 144 c 0,51,52
 558 144 558 144 646 248 c 128,-1,53
 734 352 734 352 764 534 c 0,54,55
 794 710 794 710 741 817 c 128,-1,56
 688 924 688 924 578 924 c 0,57,58
 462 924 462 924 377 819 c 128,-1,59
 292 714 292 714 262 534 c 0,48,49
EndSplineSet
EndChar

StartChar: uni0222
Encoding: 546 546 484
Width: 1362
GlyphClass: 2
Flags: W
LayerCount: 2
Fore
SplineSet
58 482 m 0,0,1
 82 622 82 622 179 741 c 128,-1,2
 276 860 276 860 422 930 c 1,3,4
 204 1038 204 1038 248 1298 c 0,5,6
 264 1396 264 1396 302 1470 c 1,7,-1
 510 1470 l 1,8,9
 482 1380 482 1380 470 1312 c 0,10,11
 450 1190 450 1190 525 1100 c 128,-1,12
 600 1010 600 1010 756 1010 c 0,13,14
 904 1010 904 1010 1011 1098 c 128,-1,15
 1118 1186 1118 1186 1138 1312 c 0,16,17
 1150 1388 1150 1388 1152 1470 c 1,18,-1
 1360 1470 l 1,19,20
 1372 1404 1372 1404 1356 1298 c 0,21,22
 1312 1038 1312 1038 1058 930 c 1,23,24
 1184 864 1184 864 1241 743 c 128,-1,25
 1298 622 1298 622 1276 482 c 0,26,27
 1260 388 1260 388 1210 300 c 128,-1,28
 1160 212 1160 212 1077 135 c 128,-1,29
 994 58 994 58 866 12 c 128,-1,30
 738 -34 738 -34 582 -34 c 256,31,32
 428 -34 428 -34 315 12 c 128,-1,33
 202 58 202 58 144 134 c 128,-1,34
 86 210 86 210 64 299 c 128,-1,35
 42 388 42 388 58 482 c 0,0,1
278 482 m 0,36,37
 254 332 254 332 348 242 c 128,-1,38
 442 152 442 152 614 152 c 0,39,40
 782 152 782 152 907 242 c 128,-1,41
 1032 332 1032 332 1056 482 c 0,42,43
 1080 630 1080 630 985 726 c 128,-1,44
 890 822 890 822 724 822 c 0,45,46
 562 822 562 822 433 728 c 128,-1,47
 304 634 304 634 278 482 c 0,36,37
EndSplineSet
EndChar

StartChar: uni0223
Encoding: 547 547 485
Width: 1046
GlyphClass: 2
Flags: W
LayerCount: 2
Fore
SplineSet
54 490 m 0,0,1
 82 654 82 654 169 775 c 128,-1,2
 256 896 256 896 372 946 c 1,3,4
 188 1044 188 1044 232 1314 c 0,5,6
 248 1410 248 1410 286 1492 c 1,7,-1
 478 1492 l 1,8,9
 444 1374 444 1374 436 1330 c 0,10,11
 414 1202 414 1202 450 1114 c 128,-1,12
 486 1026 486 1026 598 1026 c 0,13,14
 704 1026 704 1026 774 1113 c 128,-1,15
 844 1200 844 1200 866 1330 c 0,16,17
 874 1382 874 1382 876 1492 c 1,18,-1
 1066 1492 l 1,19,20
 1080 1414 1080 1414 1062 1314 c 0,21,22
 1016 1038 1016 1038 802 946 c 1,23,24
 902 898 902 898 949 776 c 128,-1,25
 996 654 996 654 968 490 c 0,26,27
 952 392 952 392 912 302 c 128,-1,28
 872 212 872 212 807 135 c 128,-1,29
 742 58 742 58 642 12 c 128,-1,30
 542 -34 542 -34 424 -34 c 256,31,32
 306 -34 306 -34 222 11 c 128,-1,33
 138 56 138 56 99 133 c 128,-1,34
 60 210 60 210 49 300 c 128,-1,35
 38 390 38 390 54 490 c 0,0,1
256 490 m 256,36,37
 230 334 230 334 284 239 c 128,-1,38
 338 144 338 144 452 144 c 0,39,40
 568 144 568 144 655 238 c 128,-1,41
 742 332 742 332 768 490 c 0,42,43
 794 644 794 644 738 745 c 128,-1,44
 682 846 682 846 568 846 c 0,45,46
 458 846 458 846 370 746 c 128,-1,47
 282 646 282 646 256 490 c 256,36,37
EndSplineSet
EndChar

StartChar: uni0224
Encoding: 548 548 486
Width: 1180
GlyphClass: 2
Flags: W
LayerCount: 2
Fore
SplineSet
-28 0 m 1,0,-1
 -2 158 l 1,1,-1
 952 1284 l 1,2,-1
 244 1284 l 1,3,-1
 276 1470 l 1,4,-1
 1246 1470 l 1,5,-1
 1220 1310 l 1,6,-1
 262 184 l 1,7,-1
 820 184 l 2,8,9
 988 184 988 184 1054 94 c 128,-1,10
 1120 4 1120 4 1090 -182 c 0,11,12
 1068 -316 1068 -316 992 -446 c 1,13,-1
 802 -446 l 1,14,15
 878 -322 878 -322 896 -210 c 0,16,17
 930 0 930 0 734 0 c 2,18,-1
 -28 0 l 1,0,-1
EndSplineSet
EndChar

StartChar: uni0225
Encoding: 549 549 487
Width: 912
GlyphClass: 2
Flags: W
LayerCount: 2
Fore
SplineSet
-46 0 m 1,0,-1
 -24 138 l 1,1,-1
 646 894 l 1,2,-1
 146 894 l 1,3,-1
 176 1070 l 1,4,-1
 932 1070 l 1,5,-1
 910 940 l 1,6,-1
 238 176 l 1,7,-1
 642 176 l 2,8,9
 792 176 792 176 854 91 c 128,-1,10
 916 6 916 6 886 -178 c 0,11,12
 858 -346 858 -346 802 -446 c 1,13,-1
 628 -446 l 1,14,15
 684 -348 684 -348 706 -214 c 0,16,17
 724 -108 724 -108 693 -54 c 128,-1,18
 662 0 662 0 566 0 c 2,19,-1
 -46 0 l 1,0,-1
EndSplineSet
EndChar

StartChar: uni0234
Encoding: 564 564 502
Width: 774
GlyphClass: 2
Flags: W
LayerCount: 2
Fore
SplineSet
240 -182 m 1,0,1
 246 -230 246 -230 281 -264 c 128,-1,2
 316 -298 316 -298 372 -298 c 0,3,4
 422 -298 422 -298 454 -272 c 128,-1,5
 486 -246 486 -246 492 -206 c 0,6,7
 500 -162 500 -162 474 -133 c 128,-1,8
 448 -104 448 -104 398 -104 c 0,9,10
 318 -104 318 -104 240 -182 c 1,0,1
-88 -390 m 1,11,12
 -4 -242 -4 -242 50 -180 c 1,13,14
 32 -104 32 -104 58 56 c 2,15,-1
 302 1522 l 1,16,-1
 496 1522 l 1,17,-1
 262 102 l 2,18,19
 248 14 248 14 246 -12 c 1,20,21
 326 54 326 54 430 54 c 0,22,23
 556 54 556 54 618 -19 c 128,-1,24
 680 -92 680 -92 662 -198 c 0,25,26
 642 -314 642 -314 557 -384 c 128,-1,27
 472 -454 472 -454 348 -454 c 0,28,29
 204 -454 204 -454 132 -336 c 1,30,31
 92 -390 92 -390 64 -452 c 1,32,-1
 -88 -390 l 1,11,12
EndSplineSet
EndChar

StartChar: uni0235
Encoding: 565 565 503
Width: 1374
GlyphClass: 2
Flags: W
LayerCount: 2
Fore
SplineSet
838 -182 m 1,0,1
 844 -232 844 -232 881 -265 c 128,-1,2
 918 -298 918 -298 972 -298 c 0,3,4
 1022 -298 1022 -298 1054 -271 c 128,-1,5
 1086 -244 1086 -244 1092 -204 c 256,6,7
 1098 -164 1098 -164 1075 -134 c 128,-1,8
 1052 -104 1052 -104 998 -104 c 0,9,10
 916 -104 916 -104 838 -182 c 1,0,1
32 0 m 1,11,-1
 208 1066 l 1,12,-1
 396 1066 l 1,13,-1
 372 918 l 1,14,-1
 374 918 l 1,15,16
 412 982 412 982 498 1042 c 128,-1,17
 584 1102 584 1102 698 1102 c 0,18,19
 846 1102 846 1102 919 1004 c 128,-1,20
 992 906 992 906 956 686 c 2,21,-1
 858 98 l 2,22,23
 842 2 842 2 842 -10 c 1,24,25
 922 54 922 54 1030 54 c 0,26,27
 1154 54 1154 54 1217 -18 c 128,-1,28
 1280 -90 1280 -90 1262 -198 c 0,29,30
 1242 -314 1242 -314 1156 -384 c 128,-1,31
 1070 -454 1070 -454 948 -454 c 0,32,33
 802 -454 802 -454 732 -336 c 1,34,35
 692 -396 692 -396 664 -452 c 1,36,-1
 512 -390 l 1,37,38
 570 -274 570 -274 650 -180 c 1,39,40
 630 -106 630 -106 658 62 c 2,41,-1
 756 658 l 2,42,43
 800 924 800 924 628 924 c 0,44,45
 526 924 526 924 439 837 c 128,-1,46
 352 750 352 750 330 624 c 2,47,-1
 228 0 l 1,48,-1
 32 0 l 1,11,-1
EndSplineSet
EndChar

StartChar: uni0236
Encoding: 566 566 504
Width: 832
GlyphClass: 2
Flags: W
LayerCount: 2
Fore
SplineSet
292 -182 m 1,0,1
 298 -228 298 -228 333 -263 c 128,-1,2
 368 -298 368 -298 426 -298 c 0,3,4
 478 -298 478 -298 509 -271 c 128,-1,5
 540 -244 540 -244 546 -206 c 256,6,7
 552 -168 552 -168 528 -136 c 128,-1,8
 504 -104 504 -104 454 -104 c 0,9,10
 370 -104 370 -104 292 -182 c 1,0,1
86 892 m 1,11,-1
 116 1066 l 1,12,-1
 278 1066 l 1,13,-1
 332 1390 l 1,14,-1
 526 1390 l 1,15,-1
 472 1066 l 1,16,-1
 716 1066 l 1,17,-1
 686 892 l 1,18,-1
 444 892 l 1,19,-1
 310 90 l 2,20,21
 298 12 298 12 298 -10 c 1,22,23
 378 54 378 54 484 54 c 0,24,25
 608 54 608 54 670 -19 c 128,-1,26
 732 -92 732 -92 716 -198 c 0,27,28
 696 -314 696 -314 611 -384 c 128,-1,29
 526 -454 526 -454 402 -454 c 0,30,31
 254 -454 254 -454 186 -336 c 1,32,33
 142 -400 142 -400 116 -452 c 1,34,-1
 -34 -390 l 1,35,36
 48 -240 48 -240 100 -180 c 1,37,38
 84 -108 84 -108 112 64 c 2,39,-1
 250 892 l 1,40,-1
 86 892 l 1,11,-1
EndSplineSet
EndChar

StartChar: uni0237
Encoding: 567 567 505
Width: 506
GlyphClass: 2
Flags: W
LayerCount: 2
Fore
SplineSet
-160 -262 m 1,0,-1
 -122 -262 l 2,1,2
 26 -262 26 -262 64 -42 c 2,3,-1
 246 1066 l 1,4,-1
 442 1066 l 1,5,-1
 258 -52 l 2,6,7
 226 -242 226 -242 128 -340 c 128,-1,8
 30 -438 30 -438 -118 -438 c 2,9,-1
 -188 -438 l 1,10,-1
 -160 -262 l 1,0,-1
EndSplineSet
EndChar

StartChar: uni0238
Encoding: 568 568 506
Width: 1728
GlyphClass: 2
Flags: W
LayerCount: 2
Fore
SplineSet
62 534 m 0,0,1
 106 798 106 798 253 950 c 128,-1,2
 400 1102 400 1102 584 1102 c 0,3,4
 680 1102 680 1102 743 1049 c 128,-1,5
 806 996 806 996 826 926 c 1,6,-1
 924 1522 l 1,7,-1
 1120 1522 l 1,8,-1
 1022 926 l 1,9,10
 1070 996 1070 996 1149 1049 c 128,-1,11
 1228 1102 1228 1102 1324 1102 c 0,12,13
 1510 1102 1510 1102 1606 951 c 128,-1,14
 1702 800 1702 800 1658 534 c 0,15,16
 1634 384 1634 384 1575 270 c 128,-1,17
 1516 156 1516 156 1442 92 c 128,-1,18
 1368 28 1368 28 1291 -3 c 128,-1,19
 1214 -34 1214 -34 1138 -34 c 0,20,21
 1038 -34 1038 -34 975 21 c 128,-1,22
 912 76 912 76 894 152 c 1,23,-1
 868 0 l 1,24,-1
 676 0 l 1,25,-1
 702 154 l 1,26,27
 652 72 652 72 569 19 c 128,-1,28
 486 -34 486 -34 392 -34 c 0,29,30
 316 -34 316 -34 251 -4 c 128,-1,31
 186 26 186 26 132 90 c 128,-1,32
 78 154 78 154 57 268 c 128,-1,33
 36 382 36 382 62 534 c 0,0,1
262 534 m 0,34,35
 230 346 230 346 284 245 c 128,-1,36
 338 144 338 144 450 144 c 256,37,38
 562 144 562 144 648 249 c 128,-1,39
 734 354 734 354 762 522 c 2,40,-1
 764 534 l 2,41,42
 792 704 792 704 741 814 c 128,-1,43
 690 924 690 924 578 924 c 256,44,45
 466 924 466 924 379 820 c 128,-1,46
 292 716 292 716 262 534 c 0,34,35
950 520 m 2,47,48
 924 358 924 358 976 251 c 128,-1,49
 1028 144 1028 144 1136 144 c 0,50,51
 1250 144 1250 144 1337 245 c 128,-1,52
 1424 346 1424 346 1456 534 c 0,53,54
 1486 714 1486 714 1434 819 c 128,-1,55
 1382 924 1382 924 1268 924 c 0,56,57
 1156 924 1156 924 1068 813 c 128,-1,58
 980 702 980 702 952 534 c 2,59,-1
 950 520 l 2,47,48
EndSplineSet
EndChar

StartChar: uni0239
Encoding: 569 569 507
Width: 1730
GlyphClass: 2
Flags: W
CounterMasks: 1 0e
LayerCount: 2
Fore
SplineSet
62 534 m 0,0,1
 106 794 106 794 251 948 c 128,-1,2
 396 1102 396 1102 584 1102 c 0,3,4
 764 1102 764 1102 828 918 c 1,5,-1
 852 1066 l 1,6,-1
 1044 1066 l 1,7,-1
 1020 920 l 1,8,9
 1070 996 1070 996 1153 1049 c 128,-1,10
 1236 1102 1236 1102 1330 1102 c 0,11,12
 1518 1102 1518 1102 1610 948 c 128,-1,13
 1702 794 1702 794 1660 534 c 0,14,15
 1636 388 1636 388 1580 275 c 128,-1,16
 1524 162 1524 162 1451 97 c 128,-1,17
 1378 32 1378 32 1299 -1 c 128,-1,18
 1220 -34 1220 -34 1140 -34 c 0,19,20
 1038 -34 1038 -34 974 21 c 128,-1,21
 910 76 910 76 892 150 c 1,22,-1
 794 -446 l 1,23,-1
 598 -446 l 1,24,-1
 696 148 l 1,25,26
 648 72 648 72 567 19 c 128,-1,27
 486 -34 486 -34 394 -34 c 0,28,29
 222 -34 222 -34 119 110 c 128,-1,30
 16 254 16 254 62 534 c 0,0,1
262 534 m 0,31,32
 232 350 232 350 285 247 c 128,-1,33
 338 144 338 144 448 144 c 0,34,35
 564 144 564 144 649 249 c 128,-1,36
 734 354 734 354 764 534 c 2,37,-1
 766 546 l 2,38,39
 794 714 794 714 742 819 c 128,-1,40
 690 924 690 924 576 924 c 0,41,42
 458 924 458 924 374 815 c 128,-1,43
 290 706 290 706 262 534 c 0,31,32
956 536 m 2,44,45
 926 356 926 356 979 250 c 128,-1,46
 1032 144 1032 144 1144 144 c 256,47,48
 1256 144 1256 144 1343 247 c 128,-1,49
 1430 350 1430 350 1460 534 c 0,50,51
 1488 708 1488 708 1441 816 c 128,-1,52
 1394 924 1394 924 1274 924 c 0,53,54
 1166 924 1166 924 1076 819 c 128,-1,55
 986 714 986 714 958 548 c 2,56,-1
 956 536 l 2,44,45
EndSplineSet
EndChar

StartChar: uni023A
Encoding: 570 570 508
Width: 1276
GlyphClass: 2
Flags: W
LayerCount: 2
Fore
SplineSet
-102 0 m 1,0,-1
 670 1470 l 1,1,-1
 910 1470 l 1,2,-1
 966 1180 l 1,3,-1
 1262 1556 l 1,4,-1
 1414 1556 l 1,5,-1
 996 1024 l 1,6,-1
 1192 0 l 1,7,-1
 962 0 l 1,8,-1
 898 382 l 1,9,-1
 494 382 l 1,10,-1
 46 -186 l 1,11,-1
 -110 -186 l 1,12,-1
 36 0 l 1,13,-1
 -102 0 l 1,0,-1
402 558 m 1,14,-1
 476 558 l 1,15,-1
 806 976 l 1,16,17
 802 988 802 988 788 1092 c 0,18,19
 770 1206 770 1206 758 1264 c 1,20,-1
 748 1264 l 1,21,22
 680 1116 680 1116 610 974 c 2,23,-1
 402 558 l 1,14,-1
630 558 m 1,24,-1
 874 558 l 1,25,-1
 832 814 l 1,26,-1
 630 558 l 1,24,-1
318 382 m 1,27,-1
 286 318 l 1,28,-1
 336 382 l 1,29,-1
 318 382 l 1,27,-1
EndSplineSet
EndChar

StartChar: uni023B
Encoding: 571 571 509
Width: 1282
GlyphClass: 2
Flags: W
LayerCount: 2
Fore
SplineSet
106 736 m 0,0,1
 164 1086 164 1086 372 1295 c 128,-1,2
 580 1504 580 1504 864 1504 c 0,3,4
 968 1504 968 1504 1058 1464 c 1,5,-1
 1120 1580 l 1,6,-1
 1274 1580 l 1,7,-1
 1174 1386 l 1,8,9
 1266 1300 1266 1300 1304 1160 c 1,10,-1
 1110 1098 l 1,11,12
 1084 1158 1084 1158 1066 1186 c 1,13,-1
 524 174 l 1,14,15
 574 152 574 152 638 152 c 0,16,17
 760 152 760 152 861 225 c 128,-1,18
 962 298 962 298 1022 400 c 1,19,-1
 1204 338 l 1,20,21
 1164 274 1164 274 1113 216 c 128,-1,22
 1062 158 1062 158 990 98 c 128,-1,23
 918 38 918 38 819 2 c 128,-1,24
 720 -34 720 -34 610 -34 c 0,25,26
 510 -34 510 -34 428 -6 c 1,27,-1
 366 -122 l 1,28,-1
 210 -122 l 1,29,-1
 302 54 l 1,30,31
 172 150 172 150 119 325 c 128,-1,32
 66 500 66 500 106 736 c 0,0,1
408 252 m 1,33,-1
 964 1286 l 1,34,35
 902 1318 902 1318 832 1318 c 0,36,37
 640 1318 640 1318 503 1157 c 128,-1,38
 366 996 366 996 324 736 c 0,39,40
 270 408 270 408 408 252 c 1,33,-1
EndSplineSet
EndChar

StartChar: uni023C
Encoding: 572 572 510
Width: 964
GlyphClass: 2
Flags: W
LayerCount: 2
Fore
SplineSet
62 534 m 0,0,1
 104 782 104 782 252 942 c 128,-1,2
 400 1102 400 1102 622 1102 c 0,3,4
 684 1102 684 1102 744 1076 c 1,5,-1
 808 1204 l 1,6,-1
 948 1204 l 1,7,-1
 848 1006 l 1,8,9
 930 930 930 930 942 796 c 1,10,-1
 774 750 l 1,11,12
 764 792 764 792 750 818 c 1,13,-1
 410 150 l 1,14,15
 426 144 426 144 458 144 c 0,16,17
 608 144 608 144 722 332 c 1,18,-1
 882 282 l 1,19,20
 830 164 830 164 707 65 c 128,-1,21
 584 -34 584 -34 428 -34 c 0,22,23
 370 -34 370 -34 320 -22 c 1,24,-1
 272 -120 l 1,25,-1
 132 -120 l 1,26,-1
 208 28 l 1,27,28
 104 98 104 98 69 234 c 128,-1,29
 34 370 34 370 62 534 c 0,0,1
312 228 m 1,30,-1
 656 906 l 1,31,32
 626 924 626 924 588 924 c 0,33,34
 466 924 466 924 378 813 c 128,-1,35
 290 702 290 702 262 534 c 0,36,37
 228 328 228 328 312 228 c 1,30,-1
EndSplineSet
EndChar

StartChar: uni023D
Encoding: 573 573 511
Width: 1062
GlyphClass: 2
Flags: W
LayerCount: 2
Fore
SplineSet
46 744 m 1,0,-1
 74 916 l 1,1,-1
 230 916 l 1,2,-1
 322 1470 l 1,3,-1
 534 1470 l 1,4,-1
 442 916 l 1,5,-1
 814 916 l 1,6,-1
 786 744 l 1,7,-1
 414 744 l 1,8,-1
 322 184 l 1,9,-1
 984 184 l 1,10,-1
 954 0 l 1,11,-1
 80 0 l 1,12,-1
 202 744 l 1,13,-1
 46 744 l 1,0,-1
EndSplineSet
EndChar

StartChar: uni023E
Encoding: 574 574 512
Width: 1096
GlyphClass: 2
Flags: W
LayerCount: 2
Fore
SplineSet
772 1284 m 1,0,-1
 722 988 l 1,1,-1
 930 1284 l 1,2,-1
 772 1284 l 1,0,-1
136 1284 m 1,3,-1
 168 1470 l 1,4,-1
 1064 1470 l 1,5,-1
 1140 1580 l 1,6,-1
 1288 1580 l 1,7,-1
 1210 1470 l 1,8,-1
 1226 1470 l 1,9,-1
 1196 1284 l 1,10,-1
 1080 1284 l 1,11,-1
 678 714 l 1,12,-1
 560 0 l 1,13,-1
 348 0 l 1,14,-1
 400 322 l 1,15,-1
 112 -90 l 1,16,-1
 -38 -90 l 1,17,-1
 446 596 l 1,18,-1
 560 1284 l 1,19,-1
 136 1284 l 1,3,-1
EndSplineSet
EndChar

StartChar: uni023F
Encoding: 575 575 513
Width: 922
GlyphClass: 2
Flags: W
LayerCount: 2
Fore
SplineSet
-8 218 m 1,0,-1
 148 306 l 1,1,2
 226 136 226 136 406 136 c 0,3,4
 496 136 496 136 557 174 c 128,-1,5
 618 212 618 212 628 276 c 0,6,7
 632 304 632 304 623 330 c 128,-1,8
 614 356 614 356 599 372 c 128,-1,9
 584 388 584 388 552 406 c 128,-1,10
 520 424 520 424 497 432 c 128,-1,11
 474 440 474 440 427 457 c 128,-1,12
 380 474 380 474 360 482 c 0,13,14
 302 506 302 506 260 528 c 128,-1,15
 218 550 218 550 181 586 c 128,-1,16
 144 622 144 622 128 673 c 128,-1,17
 112 724 112 724 124 790 c 0,18,19
 148 934 148 934 273 1018 c 128,-1,20
 398 1102 398 1102 560 1102 c 0,21,22
 690 1102 690 1102 783 1032 c 128,-1,23
 876 962 876 962 914 858 c 1,24,-1
 770 774 l 1,25,26
 688 930 688 930 532 930 c 0,27,28
 442 930 442 930 388 891 c 128,-1,29
 334 852 334 852 322 788 c 0,30,31
 304 674 304 674 514 608 c 0,32,33
 582 584 582 584 635 561 c 128,-1,34
 688 538 688 538 740 499 c 128,-1,35
 792 460 792 460 815 403 c 128,-1,36
 838 346 838 346 826 276 c 0,37,38
 804 142 804 142 684 54 c 128,-1,39
 564 -34 564 -34 374 -34 c 0,40,41
 270 -34 270 -34 198 4 c 1,42,43
 216 -158 216 -158 236 -206 c 0,44,45
 276 -304 276 -304 396 -304 c 0,46,47
 464 -304 464 -304 506 -296 c 1,48,-1
 482 -440 l 1,49,50
 408 -454 408 -454 364 -454 c 0,51,52
 284 -454 284 -454 227 -426 c 128,-1,53
 170 -398 170 -398 138 -360 c 128,-1,54
 106 -322 106 -322 87 -256 c 128,-1,55
 68 -190 68 -190 62 -140 c 128,-1,56
 56 -90 56 -90 50 -16 c 0,57,58
 44 136 44 136 -8 218 c 1,0,-1
EndSplineSet
EndChar

StartChar: uni0240
Encoding: 576 576 514
Width: 914
GlyphClass: 2
Flags: W
LayerCount: 2
Fore
SplineSet
-46 0 m 1,0,-1
 -24 138 l 1,1,-1
 646 892 l 1,2,-1
 146 892 l 1,3,-1
 176 1066 l 1,4,-1
 932 1066 l 1,5,-1
 910 936 l 1,6,-1
 202 138 l 1,7,8
 266 124 266 124 314 76 c 128,-1,9
 362 28 362 28 394 -30 c 128,-1,10
 426 -88 426 -88 455 -144 c 128,-1,11
 484 -200 484 -200 526 -238 c 128,-1,12
 568 -276 568 -276 624 -276 c 0,13,14
 684 -276 684 -276 736 -266 c 1,15,-1
 708 -438 l 1,16,17
 646 -454 646 -454 584 -454 c 0,18,19
 502 -454 502 -454 441 -410 c 128,-1,20
 380 -366 380 -366 342 -301 c 128,-1,21
 304 -236 304 -236 270 -171 c 128,-1,22
 236 -106 236 -106 184 -57 c 128,-1,23
 132 -8 132 -8 68 0 c 1,24,-1
 -46 0 l 1,0,-1
EndSplineSet
EndChar

StartChar: uni0241
Encoding: 577 577 515
Width: 1114
GlyphClass: 2
Flags: W
LayerCount: 2
Fore
SplineSet
204 1156 m 1,0,1
 272 1312 272 1312 412 1408 c 128,-1,2
 552 1504 552 1504 722 1504 c 0,3,4
 912 1504 912 1504 1011 1390 c 128,-1,5
 1110 1276 1110 1276 1080 1094 c 0,6,7
 1066 1004 1066 1004 1019 931 c 128,-1,8
 972 858 972 858 914 808 c 128,-1,9
 856 758 856 758 799 709 c 128,-1,10
 742 660 742 660 697 596 c 128,-1,11
 652 532 652 532 640 454 c 2,12,-1
 564 0 l 1,13,-1
 352 0 l 1,14,-1
 430 472 l 2,15,16
 444 562 444 562 491 636 c 128,-1,17
 538 710 538 710 595 761 c 128,-1,18
 652 812 652 812 708 859 c 128,-1,19
 764 906 764 906 808 968 c 128,-1,20
 852 1030 852 1030 864 1102 c 0,21,22
 880 1200 880 1200 832 1260 c 128,-1,23
 784 1320 784 1320 692 1320 c 256,24,25
 600 1320 600 1320 520 1261 c 128,-1,26
 440 1202 440 1202 386 1098 c 1,27,-1
 204 1156 l 1,0,1
EndSplineSet
EndChar

StartChar: uni0250
Encoding: 592 592 516
Width: 1030
GlyphClass: 2
Flags: W
LayerCount: 2
Fore
SplineSet
304 526 m 1,0,1
 378 544 378 544 530 570 c 0,2,3
 654 590 654 590 722 639 c 128,-1,4
 790 688 790 688 804 774 c 0,5,6
 814 838 814 838 773 882 c 128,-1,7
 732 926 732 926 646 926 c 0,8,9
 534 926 534 926 439 847 c 128,-1,10
 344 768 344 768 324 648 c 2,11,-1
 304 526 l 1,0,1
86 398 m 2,12,-1
 198 1066 l 1,13,-1
 388 1066 l 1,14,-1
 366 922 l 1,15,16
 408 992 408 992 499 1047 c 128,-1,17
 590 1102 590 1102 702 1102 c 0,18,19
 864 1102 864 1102 947 1016 c 128,-1,20
 1030 930 1030 930 1006 790 c 0,21,22
 956 492 956 492 506 422 c 0,23,24
 362 400 362 400 278 376 c 1,25,-1
 268 312 l 2,26,27
 254 230 254 230 307 180 c 128,-1,28
 360 130 360 130 454 130 c 0,29,30
 624 130 624 130 776 282 c 1,31,-1
 878 172 l 1,32,33
 786 74 786 74 667 20 c 128,-1,34
 548 -34 548 -34 430 -34 c 0,35,36
 212 -34 212 -34 132 77 c 128,-1,37
 52 188 52 188 86 398 c 2,12,-1
EndSplineSet
EndChar

StartChar: uni0251
Encoding: 593 593 517
Width: 1084
GlyphClass: 2
Flags: W
LayerCount: 2
Fore
SplineSet
262 534 m 0,0,1
 232 348 232 348 285 246 c 128,-1,2
 338 144 338 144 450 144 c 0,3,4
 546 144 546 144 637 241 c 128,-1,5
 728 338 728 338 760 534 c 0,6,7
 790 710 790 710 738 817 c 128,-1,8
 686 924 686 924 576 924 c 0,9,10
 462 924 462 924 377 819 c 128,-1,11
 292 714 292 714 262 534 c 0,0,1
62 534 m 0,12,13
 106 796 106 796 250 949 c 128,-1,14
 394 1102 394 1102 582 1102 c 0,15,16
 676 1102 676 1102 739 1048 c 128,-1,17
 802 994 802 994 822 926 c 1,18,-1
 844 1066 l 1,19,-1
 1040 1066 l 1,20,-1
 864 0 l 1,21,-1
 672 0 l 1,22,-1
 698 156 l 1,23,24
 650 78 650 78 567 22 c 128,-1,25
 484 -34 484 -34 392 -34 c 0,26,27
 312 -34 312 -34 246 -2 c 128,-1,28
 180 30 180 30 128 94 c 128,-1,29
 76 158 76 158 57 272 c 128,-1,30
 38 386 38 386 62 534 c 0,12,13
EndSplineSet
EndChar

StartChar: uni0252
Encoding: 594 594 518
Width: 1084
GlyphClass: 2
Flags: W
LayerCount: 2
Fore
SplineSet
34 0 m 1,0,-1
 210 1066 l 1,1,-1
 406 1066 l 1,2,-1
 382 926 l 1,3,4
 432 996 432 996 510 1049 c 128,-1,5
 588 1102 588 1102 684 1102 c 0,6,7
 872 1102 872 1102 965 949 c 128,-1,8
 1058 796 1058 796 1014 534 c 0,9,10
 990 384 990 384 932 271 c 128,-1,11
 874 158 874 158 800 93 c 128,-1,12
 726 28 726 28 649 -3 c 128,-1,13
 572 -34 572 -34 498 -34 c 0,14,15
 400 -34 400 -34 335 23 c 128,-1,16
 270 80 270 80 252 154 c 1,17,-1
 228 0 l 1,18,-1
 34 0 l 1,0,-1
314 534 m 0,19,20
 284 354 284 354 337 249 c 128,-1,21
 390 144 390 144 498 144 c 0,22,23
 610 144 610 144 696 246 c 128,-1,24
 782 348 782 348 814 534 c 0,25,26
 844 716 844 716 793 820 c 128,-1,27
 742 924 742 924 628 924 c 0,28,29
 518 924 518 924 431 817 c 128,-1,30
 344 710 344 710 314 534 c 0,19,20
EndSplineSet
EndChar

StartChar: uni0253
Encoding: 595 595 519
Width: 1094
GlyphClass: 2
Flags: W
LayerCount: 2
Fore
SplineSet
320 534 m 0,0,1
 290 354 290 354 342 249 c 128,-1,2
 394 144 394 144 504 144 c 0,3,4
 620 144 620 144 706 248 c 128,-1,5
 792 352 792 352 822 536 c 0,6,7
 852 712 852 712 802 818 c 128,-1,8
 752 924 752 924 634 924 c 0,9,10
 522 924 522 924 436 817 c 128,-1,11
 350 710 350 710 320 534 c 0,0,1
38 0 m 1,12,-1
 228 1148 l 2,13,14
 260 1342 260 1342 373 1447 c 128,-1,15
 486 1552 486 1552 650 1552 c 0,16,17
 718 1552 718 1552 848 1530 c 1,18,-1
 814 1348 l 1,19,20
 702 1368 702 1368 652 1368 c 0,21,22
 558 1368 558 1368 497 1299 c 128,-1,23
 436 1230 436 1230 416 1110 c 2,24,-1
 386 926 l 1,25,26
 438 1000 438 1000 516 1051 c 128,-1,27
 594 1102 594 1102 692 1102 c 0,28,29
 882 1102 882 1102 974 947 c 128,-1,30
 1066 792 1066 792 1024 536 c 0,31,32
 978 262 978 262 829 114 c 128,-1,33
 680 -34 680 -34 506 -34 c 0,34,35
 404 -34 404 -34 341 23 c 128,-1,36
 278 80 278 80 254 154 c 1,37,-1
 228 0 l 1,38,-1
 38 0 l 1,12,-1
EndSplineSet
EndChar

StartChar: uni0254
Encoding: 596 596 520
Width: 964
GlyphClass: 2
Flags: W
LayerCount: 2
Fore
SplineSet
-10 282 m 1,0,-1
 166 332 l 1,1,2
 178 258 178 258 231 201 c 128,-1,3
 284 144 284 144 366 144 c 0,4,5
 478 144 478 144 571 247 c 128,-1,6
 664 350 664 350 694 532 c 0,7,8
 722 700 722 700 669 812 c 128,-1,9
 616 924 616 924 494 924 c 0,10,11
 420 924 420 924 358 873 c 128,-1,12
 296 822 296 822 260 748 c 1,13,-1
 100 796 l 1,14,15
 148 918 148 918 264 1010 c 128,-1,16
 380 1102 380 1102 528 1102 c 0,17,18
 732 1102 732 1102 834 945 c 128,-1,19
 936 788 936 788 892 532 c 0,20,21
 848 272 848 272 697 119 c 128,-1,22
 546 -34 546 -34 340 -34 c 0,23,24
 192 -34 192 -34 98 61 c 128,-1,25
 4 156 4 156 -10 282 c 1,0,-1
EndSplineSet
EndChar

StartChar: uni0255
Encoding: 597 597 521
Width: 964
GlyphClass: 2
Flags: W
LayerCount: 2
Fore
SplineSet
406 146 m 1,0,1
 462 120 462 120 522 120 c 0,2,3
 590 120 590 120 634 147 c 128,-1,4
 678 174 678 174 684 212 c 0,5,6
 696 284 696 284 606 284 c 0,7,8
 548 284 548 284 495 243 c 128,-1,9
 442 202 442 202 406 146 c 1,0,1
64 546 m 0,10,11
 104 782 104 782 252 942 c 128,-1,12
 400 1102 400 1102 616 1102 c 0,13,14
 764 1102 764 1102 846 1007 c 128,-1,15
 928 912 928 912 940 796 c 1,16,-1
 766 748 l 1,17,18
 754 818 754 818 709 871 c 128,-1,19
 664 924 664 924 588 924 c 0,20,21
 466 924 466 924 378 813 c 128,-1,22
 290 702 290 702 262 534 c 0,23,24
 232 352 232 352 296 244 c 1,25,26
 354 326 354 326 443 382 c 128,-1,27
 532 438 532 438 636 438 c 0,28,29
 752 438 752 438 811 374 c 128,-1,30
 870 310 870 310 854 214 c 0,31,32
 836 102 836 102 738 34 c 128,-1,33
 640 -34 640 -34 490 -34 c 0,34,35
 388 -34 388 -34 320 -14 c 1,36,37
 284 -88 284 -88 268 -128 c 1,38,-1
 106 -88 l 1,39,40
 136 -8 136 -8 176 60 c 1,41,42
 10 216 10 216 64 546 c 0,10,11
EndSplineSet
EndChar

StartChar: uni0256
Encoding: 598 598 522
Width: 1102
GlyphClass: 2
Flags: W
LayerCount: 2
Fore
SplineSet
62 534 m 0,0,1
 106 800 106 800 253 951 c 128,-1,2
 400 1102 400 1102 584 1102 c 0,3,4
 680 1102 680 1102 743 1049 c 128,-1,5
 806 996 806 996 828 926 c 1,6,-1
 926 1522 l 1,7,-1
 1122 1522 l 1,8,-1
 860 -62 l 2,9,10
 826 -270 826 -270 968 -270 c 0,11,12
 1018 -270 1018 -270 1104 -256 c 1,13,-1
 1074 -438 l 1,14,15
 934 -454 934 -454 902 -454 c 0,16,17
 604 -454 604 -454 666 -76 c 2,18,-1
 704 154 l 1,19,20
 654 72 654 72 571 19 c 128,-1,21
 488 -34 488 -34 394 -34 c 0,22,23
 314 -34 314 -34 247 -2 c 128,-1,24
 180 30 180 30 128 94 c 128,-1,25
 76 158 76 158 57 272 c 128,-1,26
 38 386 38 386 62 534 c 0,0,1
262 534 m 0,27,28
 232 354 232 354 284 249 c 128,-1,29
 336 144 336 144 452 144 c 0,30,31
 560 144 560 144 648 250 c 128,-1,32
 736 356 736 356 764 534 c 0,33,34
 794 710 794 710 741 817 c 128,-1,35
 688 924 688 924 578 924 c 0,36,37
 466 924 466 924 379 820 c 128,-1,38
 292 716 292 716 262 534 c 0,27,28
EndSplineSet
EndChar

StartChar: uni0257
Encoding: 599 599 523
Width: 1102
GlyphClass: 2
Flags: W
LayerCount: 2
Fore
SplineSet
62 536 m 0,0,1
 106 800 106 800 252 951 c 128,-1,2
 398 1102 398 1102 584 1102 c 0,3,4
 678 1102 678 1102 743 1048 c 128,-1,5
 808 994 808 994 828 924 c 1,6,-1
 878 1226 l 2,7,8
 904 1384 904 1384 1009 1468 c 128,-1,9
 1114 1552 1114 1552 1262 1552 c 0,10,11
 1292 1552 1292 1552 1420 1542 c 1,12,-1
 1390 1358 l 1,13,14
 1326 1366 1326 1366 1266 1366 c 0,15,16
 1190 1366 1190 1366 1135 1318 c 128,-1,17
 1080 1270 1080 1270 1066 1184 c 2,18,-1
 870 0 l 1,19,-1
 680 0 l 1,20,-1
 706 158 l 1,21,22
 660 80 660 80 574 23 c 128,-1,23
 488 -34 488 -34 394 -34 c 0,24,25
 314 -34 314 -34 247 -2 c 128,-1,26
 180 30 180 30 128 95 c 128,-1,27
 76 160 76 160 57 274 c 128,-1,28
 38 388 38 388 62 536 c 0,0,1
262 536 m 0,29,30
 232 350 232 350 284 246 c 128,-1,31
 336 142 336 142 450 142 c 0,32,33
 556 142 556 142 645 247 c 128,-1,34
 734 352 734 352 764 536 c 0,35,36
 794 712 794 712 741 818 c 128,-1,37
 688 924 688 924 578 924 c 0,38,39
 462 924 462 924 377 820 c 128,-1,40
 292 716 292 716 262 536 c 0,29,30
EndSplineSet
EndChar

StartChar: uni0258
Encoding: 600 600 524
Width: 1046
GlyphClass: 2
Flags: W
LayerCount: 2
Fore
SplineSet
50 464 m 1,0,1
 56 520 56 520 62 552 c 0,2,3
 102 798 102 798 255 950 c 128,-1,4
 408 1102 408 1102 606 1102 c 0,5,6
 808 1102 808 1102 913 948 c 128,-1,7
 1018 794 1018 794 976 540 c 0,8,9
 932 274 932 274 774 120 c 128,-1,10
 616 -34 616 -34 408 -34 c 0,11,12
 246 -34 246 -34 151 44 c 128,-1,13
 56 122 56 122 26 238 c 1,14,-1
 202 298 l 1,15,16
 226 226 226 226 285 181 c 128,-1,17
 344 136 344 136 432 136 c 0,18,19
 560 136 560 136 650 231 c 128,-1,20
 740 326 740 326 764 464 c 1,21,-1
 50 464 l 1,0,1
270 612 m 1,22,-1
 788 612 l 1,23,24
 804 746 804 746 751 839 c 128,-1,25
 698 932 698 932 578 932 c 0,26,27
 460 932 460 932 377 840 c 128,-1,28
 294 748 294 748 270 612 c 1,22,-1
EndSplineSet
EndChar

StartChar: uni025A
Encoding: 602 602 526
Width: 1240
GlyphClass: 2
Flags: W
LayerCount: 2
Fore
SplineSet
44 454 m 1,0,-1
 782 772 l 1,1,2
 728 930 728 930 568 930 c 0,3,4
 392 930 392 930 280 768 c 1,5,-1
 124 826 l 1,6,7
 194 948 194 948 315 1025 c 128,-1,8
 436 1102 436 1102 600 1102 c 0,9,10
 738 1102 738 1102 827 1033 c 128,-1,11
 916 964 916 964 958 854 c 1,12,-1
 1118 930 l 1,13,14
 1126 862 1126 862 1162 821 c 128,-1,15
 1198 780 1198 780 1250 780 c 0,16,17
 1304 780 1304 780 1334 790 c 1,18,-1
 1306 626 l 1,19,20
 1248 612 1248 612 1206 612 c 0,21,22
 1146 612 1146 612 1101 641 c 128,-1,23
 1056 670 1056 670 1040 714 c 1,24,-1
 986 684 l 1,25,26
 988 610 988 610 974 530 c 0,27,28
 932 282 932 282 780 124 c 128,-1,29
 628 -34 628 -34 416 -34 c 0,30,31
 278 -34 278 -34 186 42 c 128,-1,32
 94 118 94 118 63 225 c 128,-1,33
 32 332 32 332 44 454 c 1,0,-1
240 368 m 1,34,35
 238 258 238 258 295 196 c 128,-1,36
 352 134 352 134 444 134 c 0,37,38
 552 134 552 134 637 219 c 128,-1,39
 722 304 722 304 754 442 c 0,40,41
 768 484 768 484 776 536 c 0,42,43
 780 566 780 566 786 600 c 1,44,-1
 240 368 l 1,34,35
EndSplineSet
EndChar

StartChar: uni025B
Encoding: 603 603 527
Width: 918
GlyphClass: 2
Flags: W
LayerCount: 2
Fore
SplineSet
24 300 m 0,0,1
 40 400 40 400 103 467 c 128,-1,2
 166 534 166 534 246 564 c 1,3,-1
 246 566 l 1,4,5
 118 642 118 642 142 796 c 0,6,7
 164 930 164 930 281 1016 c 128,-1,8
 398 1102 398 1102 566 1102 c 0,9,10
 820 1102 820 1102 906 856 c 1,11,-1
 734 786 l 1,12,13
 710 846 710 846 658 885 c 128,-1,14
 606 924 606 924 540 924 c 0,15,16
 454 924 454 924 402 886 c 128,-1,17
 350 848 350 848 340 784 c 0,18,19
 328 716 328 716 373 673 c 128,-1,20
 418 630 418 630 520 630 c 2,21,-1
 622 630 l 1,22,-1
 596 474 l 1,23,-1
 494 474 l 2,24,25
 366 474 366 474 300 424 c 128,-1,26
 234 374 234 374 222 302 c 0,27,28
 210 228 210 228 269 186 c 128,-1,29
 328 144 328 144 414 144 c 0,30,31
 490 144 490 144 563 184 c 128,-1,32
 636 224 636 224 682 278 c 1,33,-1
 822 204 l 1,34,35
 752 98 752 98 635 32 c 128,-1,36
 518 -34 518 -34 382 -34 c 0,37,38
 202 -34 202 -34 100 55 c 128,-1,39
 -2 144 -2 144 24 300 c 0,0,1
EndSplineSet
EndChar

StartChar: uni025C
Encoding: 604 604 528
Width: 918
GlyphClass: 2
Flags: W
LayerCount: 2
Fore
SplineSet
-24 204 m 1,0,-1
 140 278 l 1,1,2
 168 224 168 224 228 184 c 128,-1,3
 288 144 288 144 364 144 c 0,4,5
 452 144 452 144 524 186 c 128,-1,6
 596 228 596 228 608 302 c 0,7,8
 620 374 620 374 571 424 c 128,-1,9
 522 474 522 474 396 474 c 2,10,-1
 290 474 l 1,11,-1
 316 630 l 1,12,-1
 422 630 l 2,13,14
 522 630 522 630 581 673 c 128,-1,15
 640 716 640 716 652 784 c 0,16,17
 662 848 662 848 623 886 c 128,-1,18
 584 924 584 924 498 924 c 0,19,20
 432 924 432 924 366 885 c 128,-1,21
 300 846 300 846 256 786 c 1,22,-1
 106 856 l 1,23,24
 274 1102 274 1102 528 1102 c 0,25,26
 698 1102 698 1102 787 1016 c 128,-1,27
 876 930 876 930 852 796 c 0,28,29
 826 644 826 644 670 566 c 1,30,-1
 672 564 l 1,31,32
 742 534 742 534 784 467 c 128,-1,33
 826 400 826 400 808 300 c 0,34,35
 782 144 782 144 649 55 c 128,-1,36
 516 -34 516 -34 336 -34 c 0,37,38
 202 -34 202 -34 107 32 c 128,-1,39
 12 98 12 98 -24 204 c 1,0,-1
EndSplineSet
EndChar

StartChar: uni025D
Encoding: 605 605 529
Width: 1076
GlyphClass: 2
Flags: W
LayerCount: 2
Fore
SplineSet
-24 204 m 1,0,-1
 140 278 l 1,1,2
 162 228 162 228 224 186 c 128,-1,3
 286 144 286 144 364 144 c 0,4,5
 464 144 464 144 530 187 c 128,-1,6
 596 230 596 230 608 304 c 0,7,8
 620 376 620 376 569 425 c 128,-1,9
 518 474 518 474 396 474 c 2,10,-1
 290 474 l 1,11,-1
 316 630 l 1,12,-1
 420 630 l 2,13,14
 522 630 522 630 581 674 c 128,-1,15
 640 718 640 718 652 784 c 0,16,17
 662 846 662 846 625 885 c 128,-1,18
 588 924 588 924 498 924 c 0,19,20
 362 924 362 924 256 786 c 1,21,-1
 106 856 l 1,22,23
 278 1102 278 1102 528 1102 c 0,24,25
 754 1102 754 1102 832 954 c 1,26,-1
 988 1038 l 1,27,28
 1000 970 1000 970 1039 924 c 128,-1,29
 1078 878 1078 878 1128 878 c 0,30,31
 1176 878 1176 878 1208 890 c 1,32,-1
 1180 722 l 1,33,34
 1132 710 1132 710 1086 710 c 0,35,36
 1022 710 1022 710 974 742 c 128,-1,37
 926 774 926 774 912 818 c 1,38,-1
 850 786 l 2,39,40
 850 784 850 784 845 766 c 128,-1,41
 840 748 840 748 838 738 c 0,42,43
 818 680 818 680 769 634 c 128,-1,44
 720 588 720 588 672 566 c 1,45,-1
 674 564 l 1,46,47
 740 534 740 534 783 467 c 128,-1,48
 826 400 826 400 808 302 c 0,49,50
 782 144 782 144 651 55 c 128,-1,51
 520 -34 520 -34 332 -34 c 0,52,53
 198 -34 198 -34 103 34 c 128,-1,54
 8 102 8 102 -24 204 c 1,0,-1
EndSplineSet
EndChar

StartChar: uni025E
Encoding: 606 606 530
Width: 1042
GlyphClass: 2
Flags: W
LayerCount: 2
Fore
SplineSet
62 536 m 0,0,1
 104 786 104 786 252 944 c 128,-1,2
 400 1102 400 1102 640 1102 c 0,3,4
 802 1102 802 1102 901 1022 c 128,-1,5
 1000 942 1000 942 976 794 c 0,6,7
 962 712 962 712 916 651 c 128,-1,8
 870 590 870 590 806 560 c 1,9,-1
 806 558 l 1,10,11
 962 486 962 486 930 302 c 0,12,13
 902 134 902 134 769 50 c 128,-1,14
 636 -34 636 -34 452 -34 c 0,15,16
 218 -34 218 -34 118 120 c 128,-1,17
 18 274 18 274 62 536 c 0,0,1
264 536 m 0,18,19
 228 324 228 324 300 234 c 128,-1,20
 372 144 372 144 486 144 c 0,21,22
 706 144 706 144 730 298 c 0,23,24
 742 366 742 366 695 416 c 128,-1,25
 648 466 648 466 534 466 c 2,26,-1
 462 466 l 1,27,-1
 490 628 l 1,28,-1
 562 628 l 2,29,30
 656 628 656 628 710 673 c 128,-1,31
 764 718 764 718 774 780 c 0,32,33
 786 852 786 852 742 888 c 128,-1,34
 698 924 698 924 612 924 c 0,35,36
 496 924 496 924 396 829 c 128,-1,37
 296 734 296 734 264 536 c 0,18,19
EndSplineSet
EndChar

StartChar: uni025F
Encoding: 607 607 531
Width: 520
GlyphClass: 2
Flags: W
LayerCount: 2
Fore
SplineSet
-36 512 m 1,0,-1
 -8 682 l 1,1,-1
 188 682 l 1,2,-1
 250 1066 l 1,3,-1
 446 1066 l 1,4,-1
 382 682 l 1,5,-1
 566 682 l 1,6,-1
 538 512 l 1,7,-1
 354 512 l 1,8,-1
 262 -52 l 2,9,10
 230 -242 230 -242 132 -340 c 128,-1,11
 34 -438 34 -438 -116 -438 c 2,12,-1
 -184 -438 l 1,13,-1
 -156 -262 l 1,14,-1
 -120 -262 l 2,15,16
 30 -262 30 -262 68 -42 c 2,17,-1
 160 512 l 1,18,-1
 -36 512 l 1,0,-1
EndSplineSet
EndChar

StartChar: uni0260
Encoding: 608 608 532
Width: 1094
GlyphClass: 2
Flags: W
LayerCount: 2
Fore
SplineSet
68 554 m 256,0,1
 110 802 110 802 251 952 c 128,-1,2
 392 1102 392 1102 576 1102 c 0,3,4
 672 1102 672 1102 731 1049 c 128,-1,5
 790 996 790 996 810 926 c 1,6,-1
 860 1226 l 2,7,8
 886 1382 886 1382 995 1467 c 128,-1,9
 1104 1552 1104 1552 1246 1552 c 0,10,11
 1304 1552 1304 1552 1404 1544 c 1,12,-1
 1374 1360 l 1,13,14
 1310 1368 1310 1368 1252 1368 c 0,15,16
 1178 1368 1178 1368 1119 1319 c 128,-1,17
 1060 1270 1060 1270 1046 1184 c 2,18,-1
 874 140 l 2,19,20
 852 6 852 6 815 -96 c 128,-1,21
 778 -198 778 -198 715 -282 c 128,-1,22
 652 -366 652 -366 555 -410 c 128,-1,23
 458 -454 458 -454 330 -454 c 0,24,25
 80 -454 80 -454 -24 -252 c 1,26,-1
 124 -156 l 1,27,28
 212 -286 212 -286 362 -286 c 0,29,30
 484 -286 484 -286 561 -188 c 128,-1,31
 638 -90 638 -90 664 56 c 2,32,-1
 684 166 l 1,33,34
 636 96 636 96 562 52 c 128,-1,35
 488 8 488 8 402 8 c 0,36,37
 214 8 214 8 120 157 c 128,-1,38
 26 306 26 306 68 554 c 256,0,1
268 554 m 0,39,40
 238 374 238 374 291 279 c 128,-1,41
 344 184 344 184 446 184 c 0,42,43
 558 184 558 184 638 281 c 128,-1,44
 718 378 718 378 748 556 c 0,45,46
 776 724 776 724 727 824 c 128,-1,47
 678 924 678 924 570 924 c 0,48,49
 464 924 464 924 380 825 c 128,-1,50
 296 726 296 726 268 554 c 0,39,40
EndSplineSet
EndChar

StartChar: uni0262
Encoding: 610 610 534
Width: 1054
GlyphClass: 2
Flags: W
LayerCount: 2
Fore
SplineSet
62 530 m 0,0,1
 104 788 104 788 257 944 c 128,-1,2
 410 1100 410 1100 638 1100 c 0,3,4
 896 1100 896 1100 984 838 c 1,5,-1
 808 764 l 1,6,7
 750 922 750 922 608 922 c 0,8,9
 474 922 474 922 382 818 c 128,-1,10
 290 714 290 714 260 530 c 0,11,12
 230 350 230 350 289 248 c 128,-1,13
 348 146 348 146 478 146 c 0,14,15
 580 146 580 146 652 209 c 128,-1,16
 724 272 724 272 748 372 c 2,17,-1
 758 436 l 1,18,-1
 496 436 l 1,19,-1
 522 598 l 1,20,-1
 968 598 l 1,21,-1
 870 0 l 1,22,-1
 722 0 l 1,23,-1
 732 110 l 1,24,25
 692 52 692 52 613 9 c 128,-1,26
 534 -34 534 -34 440 -34 c 0,27,28
 232 -34 232 -34 125 114 c 128,-1,29
 18 262 18 262 62 530 c 0,0,1
EndSplineSet
EndChar

StartChar: uni0263
Encoding: 611 611 535
Width: 968
GlyphClass: 2
Flags: W
LayerCount: 2
Fore
SplineSet
98 1066 m 1,0,-1
 314 1066 l 1,1,-1
 418 298 l 1,2,-1
 424 228 l 1,3,-1
 428 228 l 1,4,-1
 462 298 l 1,5,-1
 822 1066 l 1,6,-1
 1038 1066 l 1,7,-1
 544 118 l 1,8,9
 656 -22 656 -22 632 -172 c 0,10,11
 612 -296 612 -296 524 -375 c 128,-1,12
 436 -454 436 -454 314 -454 c 0,13,14
 198 -454 198 -454 135 -376 c 128,-1,15
 72 -298 72 -298 94 -172 c 0,16,17
 116 -36 116 -36 272 114 c 1,18,-1
 98 1066 l 1,0,-1
258 -172 m 0,19,20
 248 -228 248 -228 270 -267 c 128,-1,21
 292 -306 292 -306 340 -306 c 0,22,23
 390 -306 390 -306 425 -267 c 128,-1,24
 460 -228 460 -228 470 -172 c 0,25,26
 488 -68 488 -68 396 40 c 1,27,28
 278 -56 278 -56 258 -172 c 0,19,20
EndSplineSet
Substitution2: "'sups' Superscript lookup 5 subtable" uni02E0
Substitution2: "'aalt' Access All Alternates lookup 0 subtable" uni02E0
EndChar

StartChar: uni0264
Encoding: 612 612 536
Width: 908
GlyphClass: 2
Flags: W
LayerCount: 2
Fore
SplineSet
470 646 m 1,0,1
 314 474 314 474 288 326 c 0,2,3
 274 246 274 246 302 195 c 128,-1,4
 330 144 330 144 390 144 c 0,5,6
 446 144 446 144 488 197 c 128,-1,7
 530 250 530 250 544 326 c 0,8,9
 570 478 570 478 470 646 c 1,0,1
92 908 m 1,10,-1
 122 1082 l 1,11,12
 200 1102 200 1102 246 1102 c 0,13,14
 334 1102 334 1102 395 1062 c 128,-1,15
 456 1022 456 1022 518 940 c 1,16,17
 688 1102 688 1102 848 1102 c 0,18,19
 898 1102 898 1102 962 1084 c 1,20,-1
 932 906 l 1,21,22
 886 922 886 922 822 922 c 0,23,24
 732 922 732 922 614 804 c 1,25,26
 694 666 694 666 726 563 c 128,-1,27
 758 460 758 460 734 324 c 0,28,29
 708 164 708 164 609 65 c 128,-1,30
 510 -34 510 -34 360 -34 c 0,31,32
 206 -34 206 -34 139 67 c 128,-1,33
 72 168 72 168 98 324 c 0,34,35
 114 420 114 420 163 514 c 128,-1,36
 212 608 212 608 258 665 c 128,-1,37
 304 722 304 722 380 804 c 1,38,39
 340 860 340 860 302 891 c 128,-1,40
 264 922 264 922 206 922 c 0,41,42
 182 922 182 922 92 908 c 1,10,-1
EndSplineSet
EndChar

StartChar: uni0265
Encoding: 613 613 537
Width: 1060
GlyphClass: 2
Flags: W
LayerCount: 2
Fore
SplineSet
84 380 m 2,0,-1
 198 1066 l 1,1,-1
 392 1066 l 1,2,-1
 284 404 l 2,3,4
 240 144 240 144 418 144 c 0,5,6
 514 144 514 144 602 236 c 128,-1,7
 690 328 690 328 710 448 c 2,8,-1
 812 1066 l 1,9,-1
 1008 1066 l 1,10,-1
 758 -446 l 1,11,-1
 562 -446 l 1,12,-1
 658 128 l 1,13,-1
 656 128 l 1,14,15
 610 62 610 62 527 14 c 128,-1,16
 444 -34 444 -34 348 -34 c 0,17,18
 286 -34 286 -34 235 -15 c 128,-1,19
 184 4 184 4 140 47 c 128,-1,20
 96 90 96 90 80 176 c 128,-1,21
 64 262 64 262 84 380 c 2,0,-1
EndSplineSet
EndChar

StartChar: uni0266
Encoding: 614 614 538
Width: 1060
GlyphClass: 2
Flags: W
LayerCount: 2
Fore
SplineSet
42 0 m 1,0,-1
 242 1210 l 2,1,2
 270 1376 270 1376 379 1464 c 128,-1,3
 488 1552 488 1552 636 1552 c 0,4,5
 740 1552 740 1552 826 1540 c 1,6,-1
 796 1358 l 1,7,8
 720 1368 720 1368 640 1368 c 256,9,10
 560 1368 560 1368 502 1311 c 128,-1,11
 444 1254 444 1254 430 1172 c 2,12,-1
 392 938 l 1,13,-1
 394 938 l 1,14,15
 446 1006 446 1006 527 1054 c 128,-1,16
 608 1102 608 1102 698 1102 c 0,17,18
 760 1102 760 1102 813 1084 c 128,-1,19
 866 1066 866 1066 910 1022 c 128,-1,20
 954 978 954 978 970 893 c 128,-1,21
 986 808 986 808 966 686 c 2,22,-1
 852 0 l 1,23,-1
 656 0 l 1,24,-1
 764 658 l 2,25,26
 808 924 808 924 634 924 c 0,27,28
 534 924 534 924 447 834 c 128,-1,29
 360 744 360 744 338 618 c 2,30,-1
 236 0 l 1,31,-1
 42 0 l 1,0,-1
EndSplineSet
Substitution2: "'sups' Superscript lookup 5 subtable" uni02B1
Substitution2: "'aalt' Access All Alternates lookup 0 subtable" uni02B1
EndChar

